Dekko-Regular.ufo
<glyph name="numbersign" format="1">
  <advance width="1248"/>
  <unicode hex="0023"/>
  <outline>
    <contour>
      <point x="999" y="760" type="curve"/>
      <point x="1054" y="760"/>
      <point x="1087" y="814"/>
      <point x="1087" y="871" type="curve" smooth="yes"/>
      <point x="1087" y="930"/>
      <point x="1064" y="975"/>
      <point x="1021" y="975" type="curve" smooth="yes"/>
      <point x="978" y="975"/>
      <point x="938" y="955"/>
      <point x="866" y="949" type="curve"/>
      <point x="863" y="1162" type="line"/>
      <point x="863" y="1257"/>
      <point x="853" y="1328"/>
      <point x="796" y="1328" type="curve" smooth="yes"/>
      <point x="740" y="1328"/>
      <point x="736" y="1266"/>
      <point x="736" y="1188" type="curve"/>
      <point x="740" y="932" type="line"/>
      <point x="726" y="932" type="line" smooth="yes"/>
      <point x="643" y="926"/>
      <point x="623" y="913"/>
      <point x="532" y="913" type="curve"/>
      <point x="532" y="978" type="line" smooth="yes"/>
      <point x="532" y="1070"/>
      <point x="525" y="1162"/>
      <point x="471" y="1162" type="curve" smooth="yes"/>
      <point x="399" y="1162"/>
      <point x="392" y="1078"/>
      <point x="392" y="1003" type="curve" smooth="yes"/>
      <point x="392" y="914"/>
      <point x="394" y="904"/>
      <point x="394" y="897" type="curve"/>
      <point x="169" y="897" type="line" smooth="yes"/>
      <point x="134" y="897"/>
      <point x="85" y="868"/>
      <point x="85" y="800" type="curve" smooth="yes"/>
      <point x="85" y="720"/>
      <point x="187" y="702"/>
      <point x="200" y="702" type="curve" smooth="yes"/>
      <point x="397" y="702" type="line"/>
      <point x="399" y="645"/>
      <point x="397" y="595"/>
      <point x="397" y="547" type="curve"/>
      <point x="268" y="540" type="line"/>
      <point x="256" y="547"/>
      <point x="240" y="550"/>
      <point x="213" y="550" type="curve" smooth="yes"/>
      <point x="169" y="550"/>
      <point x="139" y="476"/>
      <point x="139" y="441" type="curve" smooth="yes"/>
      <point x="139" y="354"/>
      <point x="198" y="344"/>
      <point x="244" y="344" type="curve" smooth="yes"/>
      <point x="273" y="344"/>
      <point x="319" y="344"/>
      <point x="400" y="349" type="curve"/>
      <point x="400" y="266" type="line" smooth="yes"/>
      <point x="400" y="155"/>
      <point x="397" y="36"/>
      <point x="489" y="36" type="curve" smooth="yes"/>
      <point x="537" y="36"/>
      <point x="555" y="71"/>
      <point x="555" y="139" type="curve" smooth="yes"/>
      <point x="555" y="187"/>
      <point x="537" y="218"/>
      <point x="537" y="247" type="curve" smooth="yes"/>
      <point x="537" y="289"/>
      <point x="533" y="342"/>
      <point x="532" y="382" type="curve"/>
      <point x="751" y="406" type="line"/>
      <point x="751" y="303"/>
      <point x="734" y="150"/>
      <point x="825" y="150" type="curve" smooth="yes"/>
      <point x="853" y="150"/>
      <point x="885" y="189"/>
      <point x="889" y="238" type="curve" smooth="yes"/>
      <point x="889" y="256"/>
      <point x="885" y="282"/>
      <point x="884" y="301" type="curve"/>
      <point x="884" y="368"/>
      <point x="884" y="391"/>
      <point x="881" y="406" type="curve"/>
      <point x="940" y="406"/>
      <point x="965" y="391"/>
      <point x="1009" y="391" type="curve" smooth="yes"/>
      <point x="1062" y="391"/>
      <point x="1094" y="427"/>
      <point x="1094" y="502" type="curve" smooth="yes"/>
      <point x="1094" y="585"/>
      <point x="1068" y="602"/>
      <point x="944" y="602" type="curve" smooth="yes"/>
      <point x="932" y="602"/>
      <point x="904" y="602"/>
      <point x="874" y="600" type="curve"/>
      <point x="874" y="777" type="line"/>
      <point x="920" y="777" type="line" smooth="yes"/>
      <point x="949" y="777"/>
      <point x="975" y="767"/>
    </contour>
    <contour>
      <point x="751" y="580" type="curve"/>
      <point x="525" y="553" type="line"/>
      <point x="525" y="580" type="line" smooth="yes"/>
      <point x="525" y="619"/>
      <point x="526" y="694"/>
      <point x="526" y="734" type="curve"/>
      <point x="607" y="747"/>
      <point x="668" y="755"/>
      <point x="734" y="757" type="curve" smooth="yes"/>
      <point x="747" y="757" type="line"/>
      <point x="747" y="706"/>
      <point x="751" y="631"/>
    </contour>
  </outline>
</glyph>
<glyph name="ampersand" format="1">
  <advance width="958"/>
  <unicode hex="0026"/>
  <outline>
    <contour>
      <point x="540" y="88" type="curve"/>
      <point x="615" y="5" type="line" smooth="yes"/>
      <point x="631" y="-12"/>
      <point x="655" y="-26"/>
      <point x="666" y="-26" type="curve" smooth="yes"/>
      <point x="702" y="-26"/>
      <point x="740" y="-8"/>
      <point x="740" y="43" type="curve" smooth="yes"/>
      <point x="740" y="116"/>
      <point x="691" y="157"/>
      <point x="666" y="193" type="curve"/>
      <point x="732" y="273"/>
      <point x="849" y="378"/>
      <point x="849" y="507" type="curve" smooth="yes"/>
      <point x="849" y="563"/>
      <point x="841" y="616"/>
      <point x="777" y="616" type="curve" smooth="yes"/>
      <point x="706" y="616"/>
      <point x="716" y="458"/>
      <point x="661" y="411" type="curve"/>
      <point x="563" y="305" type="line"/>
      <point x="525" y="363"/>
      <point x="429" y="580"/>
      <point x="418" y="661" type="curve"/>
      <point x="448" y="753"/>
      <point x="471" y="798"/>
      <point x="471" y="853" type="curve" smooth="yes"/>
      <point x="471" y="938"/>
      <point x="454" y="988"/>
      <point x="392" y="988" type="curve" smooth="yes"/>
      <point x="303" y="988"/>
      <point x="253" y="874"/>
      <point x="253" y="775" type="curve" smooth="yes"/>
      <point x="253" y="740"/>
      <point x="268" y="709"/>
      <point x="268" y="674" type="curve" smooth="yes"/>
      <point x="268" y="641"/>
      <point x="244" y="616"/>
      <point x="225" y="578" type="curve" smooth="yes"/>
      <point x="181" y="476"/>
      <point x="144" y="356"/>
      <point x="144" y="237" type="curve" smooth="yes"/>
      <point x="144" y="120"/>
      <point x="165" y="-5"/>
      <point x="315" y="-5" type="curve" smooth="yes"/>
      <point x="399" y="-5"/>
      <point x="528" y="81"/>
    </contour>
    <contour>
      <point x="458" y="225" type="curve"/>
      <point x="421" y="208"/>
      <point x="349" y="187"/>
      <point x="337" y="187" type="curve" smooth="yes"/>
      <point x="303" y="187"/>
      <point x="277" y="218"/>
      <point x="277" y="263" type="curve" smooth="yes"/>
      <point x="277" y="334"/>
      <point x="301" y="409"/>
      <point x="322" y="489" type="curve"/>
      <point x="367" y="423"/>
      <point x="418" y="292"/>
    </contour>
  </outline>
</glyph>
<glyph name="comma" format="1">
  <advance width="413"/>
  <unicode hex="002C"/>
  <outline>
    <contour>
      <point x="-45" y="-181" type="curve" smooth="yes"/>
      <point x="-45" y="-228"/>
      <point x="-26" y="-299"/>
      <point x="29" y="-299" type="curve" smooth="yes"/>
      <point x="67" y="-299"/>
      <point x="163" y="-91"/>
      <point x="222" y="-2" type="curve" smooth="yes"/>
      <point x="263" y="60"/>
      <point x="303" y="98"/>
      <point x="303" y="181" type="curve" smooth="yes"/>
      <point x="303" y="237"/>
      <point x="253" y="292"/>
      <point x="198" y="292" type="curve" smooth="yes"/>
      <point x="101" y="292"/>
      <point x="89" y="144"/>
      <point x="53" y="71" type="curve" smooth="yes"/>
      <point x="33" y="33"/>
      <point x="-49" y="-122"/>
    </contour>
  </outline>
</glyph>
<glyph name="six" format="1">
  <advance width="1185"/>
  <unicode hex="0036"/>
  <outline>
    <contour>
      <point x="132" y="563" type="curve" smooth="yes"/>
      <point x="132" y="138"/>
      <point x="265" y="-5"/>
      <point x="581" y="-5" type="curve" smooth="yes"/>
      <point x="828" y="-5"/>
      <point x="1070" y="226"/>
      <point x="1070" y="520" type="curve" smooth="yes"/>
      <point x="1070" y="647"/>
      <point x="995" y="755"/>
      <point x="844" y="755" type="curve" smooth="yes"/>
      <point x="619" y="755"/>
      <point x="498" y="531"/>
      <point x="492" y="298" type="curve" smooth="yes"/>
      <point x="492" y="276"/>
      <point x="492" y="244"/>
      <point x="498" y="222" type="curve"/>
      <point x="319" y="250"/>
      <point x="279" y="393"/>
      <point x="279" y="565" type="curve" smooth="yes"/>
      <point x="279" y="768"/>
      <point x="540" y="1064"/>
      <point x="540" y="1255" type="curve" smooth="yes"/>
      <point x="540" y="1316"/>
      <point x="526" y="1370"/>
      <point x="468" y="1370" type="curve" smooth="yes"/>
      <point x="374" y="1370"/>
      <point x="132" y="773"/>
    </contour>
    <contour>
      <point x="603" y="233" type="curve"/>
      <point x="603" y="348"/>
      <point x="685" y="543"/>
      <point x="841" y="543" type="curve" smooth="yes"/>
      <point x="878" y="543"/>
      <point x="923" y="526"/>
      <point x="923" y="490" type="curve" smooth="yes"/>
      <point x="923" y="358"/>
      <point x="788" y="233"/>
    </contour>
  </outline>
</glyph>
<glyph name="nine" format="1">
  <advance width="1109"/>
  <unicode hex="0039"/>
  <outline>
    <contour>
      <point x="701" y="73" type="curve"/>
      <point x="701" y="-11"/>
      <point x="785" y="-63"/>
      <point x="805" y="-63" type="curve" smooth="yes"/>
      <point x="895" y="-63"/>
      <point x="887" y="419"/>
      <point x="904" y="661" type="curve"/>
      <point x="909" y="719"/>
      <point x="913" y="785"/>
      <point x="913" y="852" type="curve" smooth="yes"/>
      <point x="913" y="975"/>
      <point x="844" y="977"/>
      <point x="844" y="1006" type="curve" smooth="yes"/>
      <point x="844" y="1241"/>
      <point x="703" y="1374"/>
      <point x="526" y="1374" type="curve" smooth="yes"/>
      <point x="399" y="1374"/>
      <point x="104" y="1251"/>
      <point x="104" y="1027" type="curve" smooth="yes"/>
      <point x="104" y="725"/>
      <point x="360" y="615"/>
      <point x="554" y="615" type="curve" smooth="yes"/>
      <point x="604" y="615"/>
      <point x="678" y="638"/>
      <point x="755" y="667" type="curve"/>
      <point x="755" y="427"/>
      <point x="706" y="271"/>
    </contour>
    <contour>
      <point x="263" y="995" type="curve" smooth="yes"/>
      <point x="263" y="1113"/>
      <point x="430" y="1167"/>
      <point x="526" y="1167" type="curve" smooth="yes"/>
      <point x="669" y="1167"/>
      <point x="740" y="1031"/>
      <point x="740" y="895" type="curve" smooth="yes"/>
      <point x="740" y="887" type="line" smooth="yes"/>
      <point x="740" y="839"/>
      <point x="602" y="830"/>
      <point x="558" y="830" type="curve" smooth="yes"/>
      <point x="453" y="830"/>
      <point x="263" y="893"/>
    </contour>
  </outline>
</glyph>
<glyph name="A" format="1">
  <advance width="1188"/>
  <unicode hex="0041"/>
  <outline>
    <contour>
      <point x="751" y="406" type="line" smooth="yes"/>
      <point x="825" y="406"/>
      <point x="831" y="368"/>
      <point x="877" y="205" type="curve"/>
      <point x="895" y="129"/>
      <point x="942" y="-23"/>
      <point x="1002" y="-23" type="curve" smooth="yes"/>
      <point x="1030" y="-23"/>
      <point x="1094" y="-18"/>
      <point x="1094" y="74" type="curve" smooth="yes"/>
      <point x="1094" y="146"/>
      <point x="1080" y="149"/>
      <point x="1038" y="200" type="curve" smooth="yes"/>
      <point x="946" y="313"/>
      <point x="833" y="1231"/>
      <point x="590" y="1231" type="curve" smooth="yes"/>
      <point x="533" y="1231"/>
      <point x="483" y="1114"/>
      <point x="450" y="1047" type="curve"/>
      <point x="260" y="600" type="line"/>
      <point x="215" y="571"/>
      <point x="205" y="535"/>
      <point x="205" y="476" type="curve" smooth="yes"/>
      <point x="205" y="471"/>
      <point x="205" y="458"/>
      <point x="208" y="448" type="curve"/>
      <point x="169" y="344"/>
      <point x="144" y="263"/>
      <point x="122" y="200" type="curve"/>
      <point x="101" y="163"/>
      <point x="88" y="116"/>
      <point x="88" y="67" type="curve" smooth="yes"/>
      <point x="88" y="4"/>
      <point x="114" y="-12"/>
      <point x="159" y="-12" type="curve" smooth="yes"/>
      <point x="173" y="-12"/>
      <point x="237" y="8"/>
      <point x="244" y="122" type="curve"/>
      <point x="311" y="315" type="line" smooth="yes"/>
      <point x="339" y="397"/>
      <point x="344" y="406"/>
      <point x="384" y="406" type="curve" smooth="yes"/>
    </contour>
    <contour>
      <point x="582" y="994" type="curve"/>
      <point x="661" y="822" type="line" smooth="yes"/>
      <point x="697" y="745"/>
      <point x="732" y="661"/>
      <point x="751" y="605" type="curve"/>
      <point x="709" y="602"/>
      <point x="671" y="602"/>
      <point x="635" y="602" type="curve" smooth="yes"/>
      <point x="560" y="602"/>
      <point x="499" y="605"/>
      <point x="416" y="607" type="curve"/>
      <point x="454" y="719"/>
      <point x="553" y="977"/>
    </contour>
    <contour>
      <point x="590" y="-297" type="move" name="btm"/>
    </contour>
    <contour>
      <point x="598" y="1515" type="move" name="top"/>
    </contour>
  </outline>
</glyph>
<glyph name="B" format="1">
  <advance width="1031"/>
  <unicode hex="0042"/>
  <outline>
    <contour>
      <point x="359" y="-5" type="curve" smooth="yes"/>
      <point x="661" y="-5"/>
      <point x="936" y="142"/>
      <point x="936" y="476" type="curve" smooth="yes"/>
      <point x="936" y="660"/>
      <point x="836" y="773"/>
      <point x="691" y="829" type="curve"/>
      <point x="720" y="871"/>
      <point x="755" y="936"/>
      <point x="755" y="1030" type="curve" smooth="yes"/>
      <point x="755" y="1152"/>
      <point x="631" y="1221"/>
      <point x="550" y="1221" type="curve" smooth="yes"/>
      <point x="463" y="1221"/>
      <point x="344" y="1206"/>
      <point x="244" y="1174" type="curve" smooth="yes"/>
      <point x="173" y="1149"/>
      <point x="157" y="940"/>
      <point x="157" y="802" type="curve"/>
      <point x="150" y="139"/>
      <point x="144" y="112"/>
      <point x="144" y="85" type="curve" smooth="yes"/>
      <point x="144" y="14"/>
      <point x="220" y="-20"/>
      <point x="258" y="-20" type="curve" smooth="yes"/>
      <point x="283" y="-20"/>
      <point x="303" y="0"/>
      <point x="322" y="0" type="curve" smooth="yes"/>
      <point x="339" y="0"/>
      <point x="347" y="-5"/>
    </contour>
    <contour>
      <point x="518" y="881" type="curve"/>
      <point x="319" y="818"/>
      <point x="302" y="818"/>
      <point x="277" y="818" type="curve"/>
      <point x="283" y="975" type="line" smooth="yes"/>
      <point x="285" y="1021"/>
      <point x="450" y="1033"/>
      <point x="492" y="1033" type="curve" smooth="yes"/>
      <point x="570" y="1033"/>
      <point x="641" y="1021"/>
      <point x="641" y="999" type="curve" smooth="yes"/>
      <point x="641" y="958"/>
      <point x="557" y="905"/>
    </contour>
    <contour>
      <point x="525" y="678" type="curve" smooth="yes"/>
      <point x="652" y="678"/>
      <point x="824" y="612"/>
      <point x="824" y="491" type="curve" smooth="yes"/>
      <point x="824" y="205"/>
      <point x="481" y="213"/>
      <point x="283" y="195" type="curve"/>
      <point x="272" y="299"/>
      <point x="273" y="406"/>
      <point x="273" y="505" type="curve" smooth="yes"/>
      <point x="273" y="528"/>
      <point x="277" y="580"/>
      <point x="277" y="602" type="curve"/>
      <point x="389" y="616"/>
      <point x="462" y="678"/>
    </contour>
    <contour>
      <point x="540" y="-297" type="move" name="btm"/>
    </contour>
    <contour>
      <point x="478" y="1429" type="move" name="top"/>
    </contour>
  </outline>
</glyph>
<glyph name="C" format="1">
  <advance width="1076"/>
  <unicode hex="0043"/>
  <outline>
    <contour>
      <point x="105" y="458" type="curve" smooth="yes"/>
      <point x="105" y="71"/>
      <point x="354" y="-14"/>
      <point x="580" y="-14" type="curve" smooth="yes"/>
      <point x="745" y="-14"/>
      <point x="1013" y="31"/>
      <point x="1013" y="183" type="curve" smooth="yes"/>
      <point x="1013" y="240"/>
      <point x="985" y="283"/>
      <point x="942" y="283" type="curve" smooth="yes"/>
      <point x="930" y="283"/>
      <point x="907" y="263"/>
      <point x="863" y="222" type="curve"/>
      <point x="783" y="187"/>
      <point x="641" y="175"/>
      <point x="563" y="175" type="curve" smooth="yes"/>
      <point x="409" y="175"/>
      <point x="240" y="277"/>
      <point x="240" y="461" type="curve" smooth="yes"/>
      <point x="240" y="612"/>
      <point x="349" y="1038"/>
      <point x="596" y="1038" type="curve" smooth="yes"/>
      <point x="891" y="1038"/>
      <point x="720" y="740"/>
      <point x="843" y="740" type="curve" smooth="yes"/>
      <point x="904" y="740"/>
      <point x="930" y="836"/>
      <point x="930" y="885" type="curve" smooth="yes"/>
      <point x="930" y="1109"/>
      <point x="760" y="1226"/>
      <point x="595" y="1226" type="curve" smooth="yes"/>
      <point x="409" y="1226"/>
      <point x="243" y="1005"/>
      <point x="189" y="856" type="curve" smooth="yes"/>
      <point x="144" y="726"/>
      <point x="105" y="595"/>
    </contour>
    <contour>
      <point x="560" y="-297" type="move" name="btm"/>
    </contour>
    <contour>
      <point x="600" y="1497" type="move" name="top"/>
    </contour>
  </outline>
</glyph>
<glyph name="Q" format="1">
  <advance width="1270"/>
  <unicode hex="0051"/>
  <outline>
    <contour>
      <point x="105" y="610" type="curve" smooth="yes"/>
      <point x="105" y="218"/>
      <point x="287" y="-23"/>
      <point x="590" y="-23" type="curve" smooth="yes"/>
      <point x="853" y="-23"/>
      <point x="1139" y="153"/>
      <point x="1139" y="610" type="curve" smooth="yes"/>
      <point x="1139" y="894"/>
      <point x="904" y="1221"/>
      <point x="625" y="1221" type="curve" smooth="yes"/>
      <point x="356" y="1221"/>
      <point x="105" y="973"/>
    </contour>
    <contour>
      <point x="633" y="1038" type="curve" smooth="yes"/>
      <point x="825" y="1038"/>
      <point x="999" y="800"/>
      <point x="999" y="574" type="curve" smooth="yes"/>
      <point x="999" y="301"/>
      <point x="790" y="169"/>
      <point x="578" y="169" type="curve" smooth="yes"/>
      <point x="382" y="169"/>
      <point x="244" y="329"/>
      <point x="244" y="595" type="curve" smooth="yes"/>
      <point x="244" y="879"/>
      <point x="426" y="1038"/>
    </contour>
    <contour>
      <point x="1038" y="-144" type="curve" smooth="yes"/>
      <point x="1060" y="-185"/>
      <point x="1109" y="-192"/>
      <point x="1132" y="-192" type="curve" smooth="yes"/>
      <point x="1174" y="-192"/>
      <point x="1194" y="-158"/>
      <point x="1194" y="-105" type="curve" smooth="yes"/>
      <point x="1194" y="-29"/>
      <point x="1005" y="254"/>
      <point x="916" y="352" type="curve" smooth="yes"/>
      <point x="881" y="391"/>
      <point x="804" y="526"/>
      <point x="712" y="526" type="curve" smooth="yes"/>
      <point x="681" y="526"/>
      <point x="660" y="486"/>
      <point x="660" y="426" type="curve" smooth="yes"/>
      <point x="660" y="377" type="line"/>
      <point x="822" y="232"/>
      <point x="1028" y="-126"/>
    </contour>
    <contour>
      <point x="649" y="-297" type="move" name="btm"/>
    </contour>
    <contour>
      <point x="580" y="1429" type="move" name="top"/>
    </contour>
  </outline>
</glyph>
<glyph name="underscore" format="1">
  <advance width="985"/>
  <unicode hex="005F"/>
  <outline>
    <contour>
      <point x="1005" y="-307" type="line" smooth="yes"/>
      <point x="1044" y="-307"/>
      <point x="1070" y="-302"/>
      <point x="1070" y="-230" type="curve" smooth="yes"/>
      <point x="1070" y="-163"/>
      <point x="1044" y="-142"/>
      <point x="1005" y="-142" type="curve" smooth="yes"/>
      <point x="-5" y="-142" type="line" smooth="yes"/>
      <point x="-41" y="-142"/>
      <point x="-68" y="-194"/>
      <point x="-68" y="-232" type="curve" smooth="yes"/>
      <point x="-68" y="-248" type="line" smooth="yes"/>
      <point x="-68" y="-275"/>
      <point x="-60" y="-307"/>
      <point x="-12" y="-307" type="curve" smooth="yes"/>
    </contour>
  </outline>
</glyph>
<glyph name="e" format="1">
  <advance width="958"/>
  <unicode hex="0065"/>
  <outline>
    <contour>
      <point x="542" y="160" type="curve" smooth="yes"/>
      <point x="443" y="160"/>
      <point x="253" y="167"/>
      <point x="205" y="319" type="curve"/>
      <point x="810" y="535" type="line" smooth="yes"/>
      <point x="844" y="547"/>
      <point x="866" y="596"/>
      <point x="866" y="664" type="curve" smooth="yes"/>
      <point x="866" y="874"/>
      <point x="688" y="985"/>
      <point x="540" y="985" type="curve" smooth="yes"/>
      <point x="244" y="985"/>
      <point x="74" y="747"/>
      <point x="74" y="411" type="curve" smooth="yes"/>
      <point x="74" y="167"/>
      <point x="273" y="-20"/>
      <point x="471" y="-20" type="curve" smooth="yes"/>
      <point x="552" y="-20"/>
      <point x="874" y="-12"/>
      <point x="874" y="134" type="curve" smooth="yes"/>
      <point x="874" y="200"/>
      <point x="849" y="229"/>
      <point x="800" y="229" type="curve" smooth="yes"/>
      <point x="745" y="229"/>
      <point x="643" y="160"/>
    </contour>
    <contour>
      <point x="511" y="798" type="curve" smooth="yes"/>
      <point x="615" y="798"/>
      <point x="712" y="767"/>
      <point x="750" y="686" type="curve"/>
      <point x="633" y="641"/>
      <point x="356" y="517"/>
      <point x="195" y="471" type="curve"/>
      <point x="228" y="706"/>
      <point x="431" y="798"/>
    </contour>
    <contour>
      <point x="472" y="-297" type="move" name="btm"/>
    </contour>
    <contour>
      <point x="496" y="1564" type="move" name="top"/>
    </contour>
  </outline>
</glyph>
<glyph name="i" format="1">
  <advance width="399"/>
  <unicode hex="0069"/>
  <outline>
    <contour>
      <point x="268" y="436" type="curve" smooth="yes"/>
      <point x="268" y="580"/>
      <point x="284" y="745"/>
      <point x="289" y="864" type="curve"/>
      <point x="289" y="920"/>
      <point x="284" y="967"/>
      <point x="240" y="967" type="curve" smooth="yes"/>
      <point x="126" y="967"/>
      <point x="126" y="463"/>
      <point x="126" y="284" type="curve" smooth="yes"/>
      <point x="126" y="136"/>
      <point x="132" y="91"/>
      <point x="134" y="79" type="curve" smooth="yes"/>
      <point x="149" y="4"/>
      <point x="177" y="-23"/>
      <point x="225" y="-23" type="curve" smooth="yes"/>
      <point x="256" y="-23"/>
      <point x="293" y="14"/>
      <point x="293" y="85" type="curve" smooth="yes"/>
      <point x="293" y="184"/>
      <point x="268" y="329"/>
    </contour>
    <contour>
      <point x="248" y="1414" type="curve" smooth="yes"/>
      <point x="203" y="1414"/>
      <point x="144" y="1345"/>
      <point x="144" y="1282" type="curve" smooth="yes"/>
      <point x="144" y="1191"/>
      <point x="218" y="1174"/>
      <point x="256" y="1174" type="curve" smooth="yes"/>
      <point x="319" y="1174"/>
      <point x="349" y="1217"/>
      <point x="349" y="1299" type="curve" smooth="yes"/>
      <point x="349" y="1392"/>
      <point x="293" y="1414"/>
    </contour>
    <contour>
      <point x="238" y="-297" type="move" name="btm"/>
    </contour>
    <contour>
      <point x="169" y="1429" type="move" name="top"/>
    </contour>
  </outline>
</glyph>
<glyph name="o" format="1">
  <advance width="968"/>
  <unicode hex="006F"/>
  <outline>
    <contour>
      <point x="884" y="462" type="curve" smooth="yes"/>
      <point x="884" y="769"/>
      <point x="743" y="965"/>
      <point x="502" y="965" type="curve" smooth="yes"/>
      <point x="293" y="965"/>
      <point x="76" y="829"/>
      <point x="76" y="462" type="curve" smooth="yes"/>
      <point x="76" y="243"/>
      <point x="258" y="-23"/>
      <point x="478" y="-23" type="curve" smooth="yes"/>
      <point x="684" y="-23"/>
      <point x="884" y="175"/>
    </contour>
    <contour>
      <point x="468" y="163" type="curve" smooth="yes"/>
      <point x="334" y="163"/>
      <point x="205" y="324"/>
      <point x="205" y="483" type="curve" smooth="yes"/>
      <point x="205" y="678"/>
      <point x="374" y="775"/>
      <point x="526" y="775" type="curve" smooth="yes"/>
      <point x="655" y="775"/>
      <point x="753" y="652"/>
      <point x="753" y="471" type="curve" smooth="yes"/>
      <point x="753" y="274"/>
      <point x="612" y="163"/>
    </contour>
    <contour>
      <point x="478" y="-297" type="move" name="btm"/>
    </contour>
    <contour>
      <point x="483" y="1515" type="move" name="top"/>
    </contour>
  </outline>
</glyph>
<glyph name="logicalnot" format="1">
  <advance width="1398"/>
  <unicode hex="00AC"/>
  <outline>
    <contour>
      <point x="436" y="769" type="curve" smooth="yes"/>
      <point x="282" y="769"/>
      <point x="225" y="769"/>
      <point x="225" y="678" type="curve" smooth="yes"/>
      <point x="225" y="621"/>
      <point x="260" y="565"/>
      <point x="309" y="565" type="curve" smooth="yes"/>
      <point x="352" y="565" type="line" smooth="yes"/>
      <point x="1112" y="560"/>
      <point x="1146" y="560"/>
      <point x="1146" y="544" type="curve" smooth="yes"/>
      <point x="1146" y="337"/>
      <point x="1133" y="292"/>
      <point x="1133" y="256" type="curve" smooth="yes"/>
      <point x="1133" y="198"/>
      <point x="1171" y="155"/>
      <point x="1211" y="155" type="curve" smooth="yes"/>
      <point x="1243" y="155"/>
      <point x="1295" y="215"/>
      <point x="1295" y="270" type="curve" smooth="yes"/>
      <point x="1283" y="696" type="line" smooth="yes"/>
      <point x="1283" y="724"/>
      <point x="1273" y="773"/>
      <point x="1241" y="773" type="curve" smooth="yes"/>
      <point x="1168" y="773"/>
      <point x="1097" y="751"/>
      <point x="1028" y="751" type="curve" smooth="yes"/>
      <point x="863" y="751"/>
      <point x="602" y="769"/>
    </contour>
  </outline>
</glyph>
<glyph name="onequarter" format="1">
  <advance width="1642"/>
  <unicode hex="00BC"/>
  <outline>
    <contour>
      <point x="1006" y="283" type="line"/>
      <point x="1006" y="270" type="line" smooth="yes"/>
      <point x="1006" y="83"/>
      <point x="1088" y="-38"/>
      <point x="1243" y="-48" type="curve"/>
      <point x="1455" y="-54" type="line"/>
      <point x="1455" y="-361" type="line" smooth="yes"/>
      <point x="1455" y="-407"/>
      <point x="1482" y="-448"/>
      <point x="1506" y="-448" type="curve" smooth="yes"/>
      <point x="1560" y="-448"/>
      <point x="1600" y="-398"/>
      <point x="1600" y="-322" type="curve" smooth="yes"/>
      <point x="1600" y="-244"/>
      <point x="1593" y="-195"/>
      <point x="1593" y="-112" type="curve"/>
      <point x="1593" y="-98"/>
      <point x="1593" y="-61"/>
      <point x="1598" y="-28" type="curve"/>
      <point x="1607" y="-15"/>
      <point x="1621" y="9"/>
      <point x="1621" y="25" type="curve" smooth="yes"/>
      <point x="1621" y="55"/>
      <point x="1612" y="77"/>
      <point x="1604" y="91" type="curve"/>
      <point x="1614" y="642"/>
      <point x="1616" y="648"/>
      <point x="1616" y="654" type="curve" smooth="yes"/>
      <point x="1616" y="692"/>
      <point x="1589" y="756"/>
      <point x="1555" y="756" type="curve" smooth="yes"/>
      <point x="1515" y="756"/>
      <point x="1486" y="721"/>
      <point x="1484" y="652" type="curve" smooth="yes"/>
      <point x="1484" y="336"/>
      <point x="1477" y="220"/>
      <point x="1472" y="148" type="curve"/>
      <point x="1399" y="148" type="line" smooth="yes"/>
      <point x="1236" y="148"/>
      <point x="1134" y="141"/>
      <point x="1134" y="288" type="curve" smooth="yes"/>
      <point x="1141" y="446" type="line"/>
      <point x="1141" y="525"/>
      <point x="1125" y="594"/>
      <point x="1083" y="594" type="curve" smooth="yes"/>
      <point x="1038" y="594"/>
      <point x="1020" y="551"/>
      <point x="1016" y="506" type="curve" smooth="yes"/>
    </contour>
    <contour>
      <point x="93" y="1370"/>
      <point x="216" y="1419"/>
      <point x="231" y="1384" type="curve"/>
      <point x="224" y="1107"/>
      <point x="186" y="1041"/>
      <point x="186" y="821" type="curve"/>
      <point x="186" y="688"/>
      <point x="199" y="588"/>
      <point x="285" y="588" type="curve" smooth="yes"/>
      <point x="321" y="588"/>
      <point x="374" y="633"/>
      <point x="374" y="692" type="curve" smooth="yes"/>
      <point x="374" y="736"/>
      <point x="370" y="796"/>
      <point x="363" y="843" type="curve"/>
      <point x="361" y="1195"/>
      <point x="397" y="1234"/>
      <point x="405" y="1516" type="curve"/>
      <point x="405" y="1603"/>
      <point x="307" y="1636"/>
      <point x="285" y="1636" type="curve" smooth="yes"/>
      <point x="247" y="1636"/>
      <point x="93" y="1493"/>
      <point x="93" y="1435" type="curve" smooth="yes"/>
    </contour>
    <component base="fraction" xOffset="716"/>
  </outline>
</glyph>
<glyph name="AE" format="1">
  <advance width="1662"/>
  <unicode hex="00C6"/>
  <outline>
    <contour>
      <point x="26" y="67" type="curve" smooth="yes"/>
      <point x="26" y="8"/>
      <point x="81" y="-36"/>
      <point x="103" y="-36" type="curve" smooth="yes"/>
      <point x="149" y="-36"/>
      <point x="177" y="5"/>
      <point x="198" y="39" type="curve"/>
      <point x="244" y="126" type="line"/>
      <point x="426" y="436"/>
      <point x="571" y="823"/>
      <point x="705" y="1035" type="curve" smooth="yes"/>
      <point x="716" y="1057"/>
      <point x="729" y="1078"/>
      <point x="732" y="1104" type="curve" smooth="yes"/>
      <point x="732" y="1112" type="line" smooth="yes"/>
      <point x="732" y="1174"/>
      <point x="697" y="1192"/>
      <point x="668" y="1192" type="curve" smooth="yes"/>
      <point x="643" y="1192"/>
      <point x="582" y="1147"/>
      <point x="565" y="1121" type="curve" smooth="yes"/>
      <point x="334" y="709"/>
      <point x="317" y="525"/>
      <point x="36" y="124" type="curve"/>
      <point x="26" y="101"/>
      <point x="26" y="81"/>
    </contour>
    <contour>
      <point x="1421" y="-23" type="curve" smooth="yes"/>
      <point x="1456" y="-23"/>
      <point x="1504" y="2"/>
      <point x="1504" y="84" type="curve" smooth="yes"/>
      <point x="1504" y="136"/>
      <point x="1496" y="208"/>
      <point x="1394" y="208" type="curve" smooth="yes"/>
      <point x="1278" y="208"/>
      <point x="1111" y="200"/>
      <point x="994" y="200" type="curve" smooth="yes"/>
      <point x="901" y="200" type="line"/>
      <point x="901" y="495" type="line"/>
      <point x="899" y="726" type="line" smooth="yes"/>
      <point x="897" y="844"/>
      <point x="895" y="948"/>
      <point x="897" y="980" type="curve" smooth="yes"/>
      <point x="897" y="985"/>
      <point x="899" y="994"/>
      <point x="899" y="999" type="curve"/>
      <point x="1491" y="994" type="line" smooth="yes"/>
      <point x="1526" y="994"/>
      <point x="1557" y="1050"/>
      <point x="1557" y="1099" type="curve" smooth="yes"/>
      <point x="1557" y="1196"/>
      <point x="1522" y="1201"/>
      <point x="1417" y="1201" type="curve"/>
      <point x="973" y="1192" type="line"/>
      <point x="967" y="1191"/>
      <point x="958" y="1191"/>
      <point x="952" y="1191" type="curve" smooth="yes"/>
      <point x="897" y="1191"/>
      <point x="859" y="1231"/>
      <point x="829" y="1231" type="curve" smooth="yes"/>
      <point x="765" y="1231"/>
      <point x="765" y="1144"/>
      <point x="765" y="1066" type="curve" smooth="yes"/>
      <point x="765" y="988" type="line"/>
      <point x="760" y="968"/>
      <point x="760" y="944"/>
      <point x="760" y="920" type="curve" smooth="yes"/>
      <point x="760" y="843"/>
      <point x="767" y="777"/>
      <point x="767" y="716" type="curve" smooth="yes"/>
      <point x="767" y="706"/>
      <point x="767" y="696"/>
      <point x="767" y="688" type="curve" smooth="yes"/>
      <point x="757" y="119" type="line" smooth="yes"/>
      <point x="755" y="43"/>
      <point x="790" y="-8"/>
      <point x="839" y="-8" type="curve" smooth="yes"/>
      <point x="988" y="-8"/>
      <point x="1109" y="8"/>
      <point x="1204" y="8" type="curve" smooth="yes"/>
      <point x="1309" y="8"/>
      <point x="1337" y="-23"/>
    </contour>
    <contour>
      <point x="497" y="655" type="curve"/>
      <point x="495" y="655" type="line"/>
      <point x="466" y="655"/>
      <point x="347" y="655"/>
      <point x="347" y="553" type="curve" smooth="yes"/>
      <point x="347" y="473"/>
      <point x="349" y="462"/>
      <point x="384" y="462" type="curve" smooth="yes"/>
      <point x="443" y="463"/>
      <point x="678" y="458"/>
      <point x="859" y="458" type="curve" smooth="yes"/>
      <point x="930" y="458" type="line" smooth="yes"/>
      <point x="1089" y="458"/>
      <point x="1231" y="450"/>
      <point x="1276" y="454" type="curve" smooth="yes"/>
      <point x="1302" y="454"/>
      <point x="1330" y="502"/>
      <point x="1330" y="560" type="curve" smooth="yes"/>
      <point x="1330" y="598"/>
      <point x="1302" y="666"/>
      <point x="1262" y="666" type="curve" smooth="yes"/>
      <point x="1262" y="666"/>
      <point x="1171" y="652"/>
      <point x="1133" y="652" type="curve" smooth="yes"/>
      <point x="885" y="652"/>
      <point x="497" y="655"/>
    </contour>
    <contour>
      <point x="454" y="1047" type="curve" smooth="yes"/>
      <point x="476" y="1047"/>
      <point x="631" y="1031"/>
      <point x="729" y="1031" type="curve" smooth="yes"/>
      <point x="757" y="1031"/>
      <point x="779" y="1038"/>
      <point x="779" y="1099" type="curve" smooth="yes"/>
      <point x="779" y="1159"/>
      <point x="850" y="1184"/>
      <point x="850" y="1191" type="curve" smooth="yes"/>
      <point x="850" y="1192"/>
      <point x="533" y="1204"/>
      <point x="466" y="1204" type="curve" smooth="yes"/>
      <point x="426" y="1204"/>
      <point x="371" y="1194"/>
      <point x="371" y="1133" type="curve" smooth="yes"/>
      <point x="371" y="1064"/>
      <point x="436" y="1047"/>
    </contour>
    <contour>
      <point x="792" y="-297" type="move" name="btm"/>
    </contour>
    <contour>
      <point x="1093" y="1497" type="move" name="top"/>
    </contour>
  </outline>
</glyph>
<glyph name="germandbls" format="1">
  <advance width="1033"/>
  <unicode hex="00DF"/>
  <outline>
    <contour>
      <point x="270" y="679" type="curve"/>
      <point x="270" y="829"/>
      <point x="292" y="1128"/>
      <point x="532" y="1128" type="curve" smooth="yes"/>
      <point x="600" y="1128"/>
      <point x="664" y="1107"/>
      <point x="664" y="1064" type="curve" smooth="yes"/>
      <point x="664" y="866"/>
      <point x="349" y="958"/>
      <point x="349" y="681" type="curve" smooth="yes"/>
      <point x="349" y="378"/>
      <point x="853" y="499"/>
      <point x="853" y="344" type="curve" smooth="yes"/>
      <point x="853" y="228"/>
      <point x="719" y="175"/>
      <point x="645" y="175" type="curve" smooth="yes"/>
      <point x="557" y="175"/>
      <point x="497" y="184"/>
      <point x="497" y="212" type="curve" smooth="yes"/>
      <point x="497" y="297"/>
      <point x="456" y="313"/>
      <point x="427" y="313" type="curve" smooth="yes"/>
      <point x="384" y="313"/>
      <point x="356" y="248"/>
      <point x="356" y="184" type="curve" smooth="yes"/>
      <point x="356" y="74"/>
      <point x="461" y="-20"/>
      <point x="619" y="-20" type="curve" smooth="yes"/>
      <point x="796" y="-20"/>
      <point x="988" y="101"/>
      <point x="988" y="364" type="curve" smooth="yes"/>
      <point x="988" y="691"/>
      <point x="495" y="651"/>
      <point x="495" y="696" type="curve" smooth="yes"/>
      <point x="495" y="696"/>
      <point x="792" y="810"/>
      <point x="792" y="1068" type="curve" smooth="yes"/>
      <point x="792" y="1204"/>
      <point x="678" y="1317"/>
      <point x="535" y="1317" type="curve" smooth="yes"/>
      <point x="273" y="1317"/>
      <point x="142" y="1064"/>
      <point x="134" y="689" type="curve" smooth="yes"/>
      <point x="134" y="635"/>
      <point x="134" y="521"/>
      <point x="139" y="448" type="curve"/>
      <point x="132" y="119" type="line" smooth="yes"/>
      <point x="130" y="23"/>
      <point x="146" y="-25"/>
      <point x="225" y="-25" type="curve" smooth="yes"/>
      <point x="279" y="-25"/>
      <point x="289" y="0"/>
      <point x="292" y="95" type="curve" smooth="yes"/>
      <point x="292" y="103"/>
      <point x="287" y="132"/>
    </contour>
    <contour>
      <point x="560" y="-297" type="move" name="btm"/>
    </contour>
  </outline>
</glyph>
<glyph name="thorn" format="1">
  <advance width="970"/>
  <unicode hex="00FE"/>
  <outline>
    <contour>
      <point x="859" y="492" type="curve" smooth="yes"/>
      <point x="859" y="802"/>
      <point x="739" y="960"/>
      <point x="472" y="960" type="curve" smooth="yes"/>
      <point x="403" y="960"/>
      <point x="311" y="932"/>
      <point x="256" y="866" type="curve"/>
      <point x="256" y="936"/>
      <point x="266" y="1204"/>
      <point x="266" y="1372" type="curve" smooth="yes"/>
      <point x="266" y="1433"/>
      <point x="223" y="1461"/>
      <point x="195" y="1461" type="curve" smooth="yes"/>
      <point x="134" y="1461"/>
      <point x="129" y="1412"/>
      <point x="126" y="1328" type="curve" smooth="yes"/>
      <point x="99" y="-258" type="line"/>
      <point x="101" y="-349"/>
      <point x="130" y="-381"/>
      <point x="187" y="-381" type="curve" smooth="yes"/>
      <point x="218" y="-381"/>
      <point x="253" y="-347"/>
      <point x="253" y="-273" type="curve" smooth="yes"/>
      <point x="253" y="-232"/>
      <point x="253" y="-142"/>
      <point x="243" y="33" type="curve"/>
      <point x="292" y="-5"/>
      <point x="342" y="-10"/>
      <point x="368" y="-10" type="curve" smooth="yes"/>
      <point x="565" y="-10"/>
      <point x="859" y="119"/>
    </contour>
    <contour>
      <point x="253" y="668" type="line"/>
      <point x="293" y="720"/>
      <point x="391" y="769"/>
      <point x="462" y="769" type="curve" smooth="yes"/>
      <point x="598" y="769"/>
      <point x="716" y="702"/>
      <point x="716" y="528" type="curve" smooth="yes"/>
      <point x="716" y="319"/>
      <point x="563" y="181"/>
      <point x="382" y="181" type="curve" smooth="yes"/>
      <point x="277" y="181"/>
      <point x="253" y="150"/>
      <point x="253" y="332" type="curve"/>
      <point x="250" y="356"/>
      <point x="253" y="391"/>
      <point x="253" y="429" type="curve" smooth="yes"/>
    </contour>
    <contour>
      <point x="478" y="-297" type="move" name="btm"/>
    </contour>
  </outline>
</glyph>
<glyph name="Eogonek" format="1">
  <advance width="988"/>
  <unicode hex="0118"/>
  <outline>
    <contour>
      <point x="771" y="-293" type="curve" smooth="yes"/>
      <point x="734" y="-293"/>
      <point x="689" y="-260"/>
      <point x="671" y="-208" type="curve"/>
      <point x="671" y="-8"/>
      <point x="901" y="-35"/>
      <point x="901" y="74" type="curve" smooth="yes"/>
      <point x="901" y="129"/>
      <point x="860" y="153"/>
      <point x="846" y="153" type="curve"/>
      <point x="802" y="124"/>
      <point x="794" y="105"/>
      <point x="730" y="60" type="curve" smooth="yes"/>
      <point x="647" y="4"/>
      <point x="528" y="-59"/>
      <point x="528" y="-248" type="curve" smooth="yes"/>
      <point x="528" y="-377"/>
      <point x="631" y="-466"/>
      <point x="760" y="-466" type="curve" smooth="yes"/>
      <point x="839" y="-466"/>
      <point x="940" y="-450"/>
      <point x="940" y="-309" type="curve" smooth="yes"/>
      <point x="940" y="-270"/>
      <point x="926" y="-230"/>
      <point x="899" y="-230" type="curve" smooth="yes"/>
      <point x="841" y="-230"/>
      <point x="834" y="-293"/>
    </contour>
    <component base="E"/>
  </outline>
</glyph>
<glyph name="iogonek" format="1">
  <advance width="399"/>
  <unicode hex="012F"/>
  <outline>
    <contour>
      <point x="165" y="-293" type="curve" smooth="yes"/>
      <point x="129" y="-293"/>
      <point x="84" y="-260"/>
      <point x="66" y="-208" type="curve"/>
      <point x="66" y="-8"/>
      <point x="295" y="-35"/>
      <point x="295" y="74" type="curve" smooth="yes"/>
      <point x="295" y="129"/>
      <point x="254" y="153"/>
      <point x="240" y="153" type="curve"/>
      <point x="195" y="124"/>
      <point x="187" y="105"/>
      <point x="124" y="60" type="curve" smooth="yes"/>
      <point x="40" y="4"/>
      <point x="-77" y="-59"/>
      <point x="-77" y="-248" type="curve" smooth="yes"/>
      <point x="-77" y="-377"/>
      <point x="25" y="-466"/>
      <point x="153" y="-466" type="curve" smooth="yes"/>
      <point x="232" y="-466"/>
      <point x="334" y="-450"/>
      <point x="334" y="-309" type="curve" smooth="yes"/>
      <point x="334" y="-270"/>
      <point x="319" y="-230"/>
      <point x="293" y="-230" type="curve" smooth="yes"/>
      <point x="234" y="-230"/>
      <point x="228" y="-293"/>
    </contour>
    <component base="i"/>
  </outline>
</glyph>
<glyph name="Ldot" format="1">
  <advance width="825"/>
  <unicode hex="013F"/>
  <outline>
    <contour>
      <point x="739" y="213" type="line"/>
      <point x="736" y="213"/>
      <point x="734" y="212"/>
      <point x="732" y="212" type="curve"/>
    </contour>
    <component base="L"/>
    <component base="dotaccent" xOffset="472" yOffset="-588"/>
  </outline>
</glyph>
<glyph name="Eng" format="1">
  <advance width="1009"/>
  <unicode hex="014A"/>
  <outline>
    <contour>
      <point x="743" y="-53" type="curve"/>
      <point x="743" y="-59"/>
      <point x="743" y="-66"/>
      <point x="743" y="-71" type="curve" smooth="yes"/>
      <point x="743" y="-208"/>
      <point x="657" y="-352"/>
      <point x="507" y="-352" type="curve" smooth="yes"/>
      <point x="408" y="-352"/>
      <point x="409" y="-268"/>
      <point x="371" y="-268" type="curve" smooth="yes"/>
      <point x="313" y="-268"/>
      <point x="289" y="-342"/>
      <point x="289" y="-387" type="curve" smooth="yes"/>
      <point x="289" y="-517"/>
      <point x="421" y="-545"/>
      <point x="478" y="-545" type="curve" smooth="yes"/>
      <point x="635" y="-545"/>
      <point x="745" y="-471"/>
      <point x="836" y="-293" type="curve" smooth="yes"/>
      <point x="914" y="-144"/>
      <point x="885" y="368"/>
      <point x="897" y="580" type="curve"/>
      <point x="920" y="1087"/>
      <point x="922" y="1119"/>
      <point x="922" y="1171" type="curve" smooth="yes"/>
      <point x="922" y="1276"/>
      <point x="899" y="1283"/>
      <point x="849" y="1283" type="curve" smooth="yes"/>
      <point x="788" y="1283"/>
      <point x="777" y="1213"/>
      <point x="775" y="1083" type="curve"/>
      <point x="765" y="975"/>
      <point x="769" y="213"/>
      <point x="734" y="213" type="curve" smooth="yes"/>
      <point x="709" y="213"/>
      <point x="382" y="686"/>
      <point x="319" y="999" type="curve" smooth="yes"/>
      <point x="299" y="1102"/>
      <point x="270" y="1192"/>
      <point x="193" y="1192" type="curve" smooth="yes"/>
      <point x="153" y="1192"/>
      <point x="130" y="1107"/>
      <point x="130" y="1066" type="curve" smooth="yes"/>
      <point x="130" y="987"/>
      <point x="134" y="916"/>
      <point x="134" y="846" type="curve" smooth="yes"/>
      <point x="134" y="661"/>
      <point x="124" y="592"/>
      <point x="124" y="491" type="curve"/>
      <point x="120" y="212"/>
      <point x="120" y="184"/>
      <point x="120" y="153" type="curve" smooth="yes"/>
      <point x="120" y="66"/>
      <point x="129" y="-5"/>
      <point x="208" y="-5" type="curve" smooth="yes"/>
      <point x="258" y="-5"/>
      <point x="259" y="57"/>
      <point x="259" y="134" type="curve" smooth="yes"/>
      <point x="259" y="334"/>
      <point x="260" y="391"/>
      <point x="260" y="705" type="curve"/>
      <point x="384" y="466"/>
      <point x="592" y="130"/>
    </contour>
  </outline>
</glyph>
<glyph name="jdotless" format="1">
  <advance width="399"/>
  <unicode hex="0237"/>
  <outline>
    <contour>
      <point x="297" y="846" type="curve"/>
      <point x="292" y="894"/>
      <point x="273" y="949"/>
      <point x="223" y="949" type="curve" smooth="yes"/>
      <point x="160" y="949"/>
      <point x="146" y="849"/>
      <point x="146" y="775" type="curve" smooth="yes"/>
      <point x="144" y="329" type="line" smooth="yes"/>
      <point x="142" y="67"/>
      <point x="132" y="-292"/>
      <point x="-167" y="-292" type="curve" smooth="yes"/>
      <point x="-198" y="-292" type="line" smooth="yes"/>
      <point x="-244" y="-292"/>
      <point x="-279" y="-307"/>
      <point x="-279" y="-381" type="curve" smooth="yes"/>
      <point x="-279" y="-483"/>
      <point x="-179" y="-483"/>
      <point x="-142" y="-483" type="curve" smooth="yes"/>
      <point x="283" y="-483"/>
      <point x="277" y="-155"/>
      <point x="277" y="277" type="curve" smooth="yes"/>
      <point x="277" y="354"/>
      <point x="274" y="421"/>
      <point x="274" y="481" type="curve" smooth="yes"/>
      <point x="274" y="612"/>
      <point x="297" y="726"/>
    </contour>
    <contour>
      <point x="223" y="-297" type="move" name="btm"/>
    </contour>
    <contour>
      <point x="225" y="1429" type="move" name="top"/>
    </contour>
  </outline>
</glyph>
<glyph name="circumflex" format="1">
  <advance width="907"/>
  <unicode hex="02C6"/>
  <outline>
    <contour>
      <point x="454" y="1291" type="curve"/>
      <point x="544" y="1241"/>
      <point x="649" y="1019"/>
      <point x="705" y="1019" type="curve" smooth="yes"/>
      <point x="760" y="1019"/>
      <point x="805" y="1062"/>
      <point x="805" y="1109" type="curve" smooth="yes"/>
      <point x="805" y="1162"/>
      <point x="671" y="1252"/>
      <point x="625" y="1302" type="curve" smooth="yes"/>
      <point x="580" y="1350"/>
      <point x="523" y="1426"/>
      <point x="468" y="1426" type="curve" smooth="yes"/>
      <point x="391" y="1426"/>
      <point x="270" y="1305"/>
      <point x="134" y="1194" type="curve"/>
      <point x="114" y="1183"/>
      <point x="85" y="1157"/>
      <point x="85" y="1119" type="curve" smooth="yes"/>
      <point x="85" y="1047"/>
      <point x="122" y="1035"/>
      <point x="155" y="1035" type="curve" smooth="yes"/>
      <point x="240" y="1035"/>
      <point x="377" y="1236"/>
    </contour>
    <contour>
      <point x="478" y="1429" type="move" name="_top"/>
    </contour>
  </outline>
</glyph>
<glyph name="caron" format="1">
  <advance width="907"/>
  <unicode hex="02C7"/>
  <outline>
    <contour>
      <point x="437" y="1197" type="curve"/>
      <point x="346" y="1248"/>
      <point x="243" y="1450"/>
      <point x="187" y="1450" type="curve" smooth="yes"/>
      <point x="129" y="1450"/>
      <point x="85" y="1406"/>
      <point x="85" y="1361" type="curve" smooth="yes"/>
      <point x="85" y="1307"/>
      <point x="220" y="1217"/>
      <point x="266" y="1168" type="curve" smooth="yes"/>
      <point x="309" y="1119"/>
      <point x="368" y="1044"/>
      <point x="423" y="1044" type="curve" smooth="yes"/>
      <point x="501" y="1044"/>
      <point x="621" y="1164"/>
      <point x="755" y="1273" type="curve"/>
      <point x="777" y="1286"/>
      <point x="805" y="1310"/>
      <point x="805" y="1350" type="curve" smooth="yes"/>
      <point x="805" y="1425"/>
      <point x="769" y="1434"/>
      <point x="736" y="1434" type="curve" smooth="yes"/>
      <point x="651" y="1434"/>
      <point x="515" y="1252"/>
    </contour>
    <contour>
      <point x="437" y="1429" type="move" name="_top"/>
    </contour>
  </outline>
</glyph>
<glyph name="breve" format="1">
  <advance width="625"/>
  <unicode hex="02D8"/>
  <outline>
    <contour>
      <point x="315" y="1047" type="curve" smooth="yes"/>
      <point x="495" y="1047"/>
      <point x="616" y="1178"/>
      <point x="616" y="1332" type="curve" smooth="yes"/>
      <point x="616" y="1400"/>
      <point x="580" y="1431"/>
      <point x="550" y="1431" type="curve" smooth="yes"/>
      <point x="525" y="1431"/>
      <point x="476" y="1414"/>
      <point x="476" y="1341" type="curve" smooth="yes"/>
      <point x="476" y="1248"/>
      <point x="381" y="1223"/>
      <point x="307" y="1223" type="curve" smooth="yes"/>
      <point x="60" y="1223"/>
      <point x="205" y="1429"/>
      <point x="81" y="1429" type="curve" smooth="yes"/>
      <point x="57" y="1429"/>
      <point x="8" y="1410"/>
      <point x="8" y="1317" type="curve" smooth="yes"/>
      <point x="8" y="1107"/>
      <point x="159" y="1047"/>
    </contour>
    <contour>
      <point x="315" y="1429" type="move" name="_top"/>
    </contour>
  </outline>
</glyph>
<glyph name="ring" format="1">
  <advance width="555"/>
  <unicode hex="02DA"/>
  <outline>
    <contour>
      <point x="378" y="1544" type="curve" smooth="yes"/>
      <point x="371" y="1546"/>
      <point x="356" y="1551"/>
      <point x="349" y="1557" type="curve"/>
      <point x="337" y="1624"/>
      <point x="322" y="1630"/>
      <point x="283" y="1630" type="curve" smooth="yes"/>
      <point x="179" y="1630"/>
      <point x="49" y="1406"/>
      <point x="49" y="1332" type="curve" smooth="yes"/>
      <point x="49" y="1204"/>
      <point x="157" y="1092"/>
      <point x="273" y="1092" type="curve" smooth="yes"/>
      <point x="378" y="1092"/>
      <point x="502" y="1241"/>
      <point x="502" y="1363" type="curve" smooth="yes"/>
      <point x="502" y="1474"/>
      <point x="436" y="1532"/>
    </contour>
    <contour>
      <point x="159" y="1355" type="curve" smooth="yes"/>
      <point x="159" y="1377"/>
      <point x="187" y="1465"/>
      <point x="208" y="1465" type="curve" smooth="yes"/>
      <point x="237" y="1465"/>
      <point x="399" y="1402"/>
      <point x="399" y="1357" type="curve" smooth="yes"/>
      <point x="399" y="1305"/>
      <point x="347" y="1248"/>
      <point x="317" y="1248" type="curve" smooth="yes"/>
      <point x="256" y="1248"/>
      <point x="159" y="1317"/>
    </contour>
    <contour>
      <point x="270" y="1429" type="move" name="_top"/>
    </contour>
  </outline>
</glyph>
<glyph name="ogonek" format="1">
  <advance width="433"/>
  <unicode hex="02DB"/>
  <outline>
    <contour>
      <point x="258" y="-311" type="curve" smooth="yes"/>
      <point x="222" y="-311"/>
      <point x="155" y="-277"/>
      <point x="155" y="-223" type="curve" smooth="yes"/>
      <point x="155" y="-84"/>
      <point x="426" y="5"/>
      <point x="426" y="134" type="curve" smooth="yes"/>
      <point x="426" y="184"/>
      <point x="387" y="213"/>
      <point x="363" y="213" type="curve"/>
      <point x="220" y="130" type="line"/>
      <point x="146" y="71"/>
      <point x="12" y="-81"/>
      <point x="12" y="-266" type="curve" smooth="yes"/>
      <point x="12" y="-394"/>
      <point x="114" y="-486"/>
      <point x="244" y="-486" type="curve" smooth="yes"/>
      <point x="319" y="-486"/>
      <point x="446" y="-471"/>
      <point x="446" y="-329" type="curve" smooth="yes"/>
      <point x="446" y="-289"/>
      <point x="436" y="-247"/>
      <point x="408" y="-247" type="curve" smooth="yes"/>
      <point x="342" y="-247"/>
      <point x="344" y="-311"/>
    </contour>
    <contour>
      <point x="218" y="1515" type="move" name="_top"/>
    </contour>
  </outline>
</glyph>
<glyph name="hookabovecomb" format="1">
  <advance width="625"/>
  <unicode hex="0309"/>
  <outline>
    <contour>
      <point x="210" y="1386" type="curve" smooth="yes"/>
      <point x="200" y="1414"/>
      <point x="222" y="1465"/>
      <point x="274" y="1484" type="curve" smooth="yes"/>
      <point x="352" y="1512"/>
      <point x="431" y="1453"/>
      <point x="462" y="1429" type="curve" smooth="yes"/>
      <point x="495" y="1402"/>
      <point x="521" y="1372"/>
      <point x="533" y="1337" type="curve" smooth="yes"/>
      <point x="555" y="1272"/>
      <point x="528" y="1112"/>
      <point x="371" y="1057" type="curve" smooth="yes"/>
      <point x="283" y="1025"/>
      <point x="223" y="1018"/>
      <point x="203" y="1078" type="curve" smooth="yes"/>
      <point x="195" y="1099"/>
      <point x="200" y="1138"/>
      <point x="229" y="1147" type="curve" smooth="yes"/>
      <point x="250" y="1156"/>
      <point x="270" y="1147"/>
      <point x="293" y="1156" type="curve" smooth="yes"/>
      <point x="337" y="1173"/>
      <point x="397" y="1213"/>
      <point x="378" y="1266" type="curve" smooth="yes"/>
      <point x="344" y="1363"/>
      <point x="234" y="1317"/>
    </contour>
    <contour>
      <point x="311" y="1515" type="move" name="_top"/>
    </contour>
  </outline>
</glyph>
<glyph name="candraBindu-deva" format="1">
  <advance width="634"/>
  <unicode hex="0901"/>
  <outline>
    <contour>
      <point x="475" y="1394"/>
      <point x="589" y="1485"/>
      <point x="589" y="1600" type="curve" smooth="yes"/>
      <point x="589" y="1638"/>
      <point x="552" y="1725"/>
      <point x="525" y="1725" type="curve" smooth="yes"/>
      <point x="523" y="1725"/>
      <point x="517" y="1719"/>
      <point x="513" y="1706" type="curve"/>
      <point x="503" y="1628" type="line"/>
      <point x="488" y="1568"/>
      <point x="408" y="1523"/>
      <point x="326" y="1523" type="curve" smooth="yes"/>
      <point x="192" y="1523"/>
      <point x="135" y="1594"/>
      <point x="105" y="1692" type="curve"/>
      <point x="104" y="1702"/>
      <point x="105" y="1707"/>
      <point x="102" y="1707" type="curve" smooth="yes"/>
      <point x="87" y="1707"/>
      <point x="55" y="1663"/>
      <point x="55" y="1642" type="curve" smooth="yes"/>
      <point x="55" y="1518"/>
      <point x="184" y="1394"/>
      <point x="326" y="1394" type="curve" smooth="yes"/>
    </contour>
    <contour>
      <point x="342" y="1663"/>
      <point x="431" y="1759"/>
      <point x="431" y="1786" type="curve" smooth="yes"/>
      <point x="431" y="1811"/>
      <point x="342" y="1901"/>
      <point x="321" y="1901" type="curve" smooth="yes"/>
      <point x="298" y="1901"/>
      <point x="222" y="1812"/>
      <point x="222" y="1786" type="curve" smooth="yes"/>
      <point x="222" y="1756"/>
      <point x="293" y="1663"/>
      <point x="321" y="1663" type="curve" smooth="yes"/>
    </contour>
    <contour>
      <point x="318" y="188" type="move" name="_bin"/>
    </contour>
  </outline>
</glyph>
<glyph name="aShort-deva" format="1">
  <advance width="1773"/>
  <unicode hex="0904"/>
  <outline>
    <component base="a-deva"/>
    <component base="eShortMatra-deva" xOffset="1024" yOffset="4"/>
    <contour>
      <point x="1518" y="1264" type="move" name="top"/>
    </contour>
    <contour>
      <point x="694" y="-252" type="move" name="bottom"/>
    </contour>
  </outline>
</glyph>
<glyph name="uu-deva" format="1">
  <advance width="1727"/>
  <unicode hex="090A"/>
  <outline>
    <contour>
      <point x="1254" y="1264" type="line"/>
      <point x="1254" y="1123" type="line"/>
      <point x="1747" y="1123" type="line"/>
      <point x="1742" y="1264" type="line"/>
    </contour>
    <contour>
      <point x="1054" y="353"/>
      <point x="1059" y="364"/>
      <point x="1065" y="374" type="curve" smooth="yes"/>
      <point x="1149" y="532"/>
      <point x="1285" y="652"/>
      <point x="1388" y="652" type="curve" smooth="yes"/>
      <point x="1467" y="652"/>
      <point x="1524" y="567"/>
      <point x="1524" y="473" type="curve" smooth="yes"/>
      <point x="1524" y="274"/>
      <point x="1413" y="98"/>
      <point x="1254" y="49" type="curve"/>
      <point x="1281" y="-35"/>
      <point x="1329" y="-95"/>
      <point x="1378" y="-95" type="curve" smooth="yes"/>
      <point x="1526" y="-95"/>
      <point x="1642" y="116"/>
      <point x="1642" y="347" type="curve" smooth="yes"/>
      <point x="1642" y="547"/>
      <point x="1476" y="805"/>
      <point x="1327" y="805" type="curve" smooth="yes"/>
      <point x="1176" y="805"/>
      <point x="1040" y="684"/>
      <point x="950" y="497" type="curve"/>
      <point x="1049" y="343" type="line"/>
    </contour>
    <component base="u-deva"/>
    <contour>
      <point x="1451" y="1257" type="move" name="bin"/>
    </contour>
    <contour>
      <point x="760" y="-58" type="move" name="bottom"/>
    </contour>
    <contour>
      <point x="899" y="1257" type="move" name="top"/>
    </contour>
  </outline>
</glyph>
<glyph name="rVocalic-deva" format="1">
  <advance width="2067"/>
  <unicode hex="090B"/>
  <outline>
    <contour>
      <point x="633" y="49" type="curve" smooth="yes"/>
      <point x="590" y="49"/>
      <point x="544" y="76"/>
      <point x="544" y="116" type="curve" smooth="yes"/>
      <point x="544" y="175"/>
      <point x="664" y="263"/>
      <point x="765" y="299" type="curve"/>
      <point x="765" y="187"/>
      <point x="691" y="49"/>
    </contour>
    <contour>
      <point x="1340" y="1264" type="line"/>
      <point x="1295" y="1332"/>
      <point x="1236" y="1390"/>
      <point x="1211" y="1390" type="curve" smooth="yes"/>
      <point x="1173" y="1390"/>
      <point x="1152" y="1357"/>
      <point x="1152" y="1264" type="curve"/>
      <point x="-63" y="1264" type="line"/>
      <point x="-63" y="1123" type="line"/>
      <point x="1152" y="1123" type="line"/>
      <point x="1152" y="932" type="line" smooth="yes"/>
      <point x="1152" y="753"/>
      <point x="1157" y="605"/>
      <point x="1176" y="497" type="curve"/>
      <point x="1171" y="497" type="line"/>
      <point x="1132" y="540"/>
      <point x="1070" y="557"/>
      <point x="1009" y="557" type="curve" smooth="yes"/>
      <point x="960" y="557"/>
      <point x="922" y="552"/>
      <point x="871" y="532" type="curve"/>
      <point x="834" y="724"/>
      <point x="686" y="874"/>
      <point x="511" y="874" type="curve" smooth="yes"/>
      <point x="292" y="874"/>
      <point x="91" y="722"/>
      <point x="91" y="557" type="curve" smooth="yes"/>
      <point x="91" y="491"/>
      <point x="198" y="374"/>
      <point x="258" y="374" type="curve" smooth="yes"/>
      <point x="282" y="374"/>
      <point x="292" y="391"/>
      <point x="292" y="418" type="curve" smooth="yes"/>
      <point x="292" y="433"/>
      <point x="244" y="461"/>
      <point x="244" y="489" type="curve" smooth="yes"/>
      <point x="244" y="592"/>
      <point x="439" y="722"/>
      <point x="580" y="722" type="curve" smooth="yes"/>
      <point x="679" y="722"/>
      <point x="750" y="610"/>
      <point x="750" y="489" type="curve"/>
      <point x="560" y="381"/>
      <point x="443" y="237"/>
      <point x="443" y="142" type="curve" smooth="yes"/>
      <point x="443" y="66"/>
      <point x="540" y="-81"/>
      <point x="615" y="-81" type="curve" smooth="yes"/>
      <point x="729" y="-81"/>
      <point x="853" y="105"/>
      <point x="897" y="347" type="curve"/>
      <point x="899" y="347" type="line"/>
      <point x="928" y="368"/>
      <point x="967" y="374"/>
      <point x="1040" y="374" type="curve" smooth="yes"/>
      <point x="1087" y="374"/>
      <point x="1138" y="368"/>
      <point x="1174" y="347" type="curve"/>
      <point x="1176" y="347" type="line"/>
      <point x="1176" y="210"/>
      <point x="1158" y="61"/>
      <point x="1100" y="61" type="curve" smooth="yes"/>
      <point x="1096" y="61"/>
      <point x="1060" y="71"/>
      <point x="1058" y="71" type="curve" smooth="yes"/>
      <point x="1038" y="71"/>
      <point x="1023" y="59"/>
      <point x="1023" y="33" type="curve" smooth="yes"/>
      <point x="1023" y="-38"/>
      <point x="1138" y="-120"/>
      <point x="1192" y="-120" type="curve" smooth="yes"/>
      <point x="1283" y="-120"/>
      <point x="1330" y="39"/>
      <point x="1330" y="222" type="curve" smooth="yes"/>
      <point x="1330" y="364" type="line"/>
      <point x="1335" y="364" type="line" smooth="yes"/>
      <point x="1402" y="364"/>
      <point x="1485" y="374"/>
      <point x="1536" y="406" type="curve"/>
      <point x="1551" y="344"/>
      <point x="1594" y="284"/>
      <point x="1675" y="223" type="curve" smooth="yes"/>
      <point x="1738" y="177"/>
      <point x="1767" y="134"/>
      <point x="1767" y="101" type="curve" smooth="yes"/>
      <point x="1767" y="-57"/>
      <point x="1538" y="35"/>
      <point x="1538" y="-114" type="curve" smooth="yes"/>
      <point x="1538" y="-167"/>
      <point x="1555" y="-210"/>
      <point x="1606" y="-210" type="curve" smooth="yes"/>
      <point x="1778" y="-210"/>
      <point x="1922" y="-84"/>
      <point x="1922" y="63" type="curve" smooth="yes"/>
      <point x="1922" y="136"/>
      <point x="1854" y="225"/>
      <point x="1740" y="305" type="curve"/>
      <point x="1697" y="326"/>
      <point x="1666" y="400"/>
      <point x="1666" y="489" type="curve"/>
      <point x="1752" y="535"/>
      <point x="1807" y="621"/>
      <point x="1807" y="710" type="curve" smooth="yes"/>
      <point x="1807" y="804"/>
      <point x="1735" y="874"/>
      <point x="1644" y="874" type="curve" smooth="yes"/>
      <point x="1555" y="874"/>
      <point x="1496" y="796"/>
      <point x="1496" y="694" type="curve" smooth="yes"/>
      <point x="1496" y="660"/>
      <point x="1501" y="616"/>
      <point x="1520" y="567" type="curve"/>
      <point x="1454" y="547"/>
      <point x="1365" y="532"/>
      <point x="1330" y="532" type="curve" smooth="yes"/>
      <point x="1312" y="532"/>
      <point x="1309" y="868"/>
      <point x="1309" y="916" type="curve" smooth="yes"/>
      <point x="1309" y="1002"/>
      <point x="1315" y="1087"/>
      <point x="1337" y="1123" type="curve"/>
      <point x="2087" y="1123" type="line"/>
      <point x="2087" y="1264" type="line"/>
    </contour>
    <contour>
      <point x="1811" y="1257" type="move" name="bin"/>
    </contour>
    <contour>
      <point x="1185" y="-68" type="move" name="bottom"/>
    </contour>
    <contour>
      <point x="1240" y="1262" type="move" name="top"/>
    </contour>
  </outline>
</glyph>
<glyph name="nga-deva" format="1">
  <advance width="1615"/>
  <unicode hex="0919"/>
  <outline>
    <contour>
      <point x="1356" y="1264" type="line"/>
      <point x="1356" y="1123" type="line"/>
      <point x="1635" y="1123" type="line"/>
      <point x="1635" y="1264" type="line"/>
    </contour>
    <contour>
      <point x="1442" y="506" type="curve" smooth="yes"/>
      <point x="1448" y="506"/>
      <point x="1458" y="506"/>
      <point x="1468" y="516" type="curve" smooth="yes"/>
      <point x="1545" y="608" type="line"/>
      <point x="1554" y="626"/>
      <point x="1561" y="636"/>
      <point x="1561" y="659" type="curve" smooth="yes"/>
      <point x="1561" y="677"/>
      <point x="1548" y="687"/>
      <point x="1521" y="706" type="curve" smooth="yes"/>
      <point x="1442" y="761" type="line" smooth="yes"/>
      <point x="1426" y="769"/>
      <point x="1414" y="779"/>
      <point x="1397" y="779" type="curve" smooth="yes"/>
      <point x="1383" y="779"/>
      <point x="1363" y="766"/>
      <point x="1351" y="754" type="curve" smooth="yes"/>
      <point x="1285" y="675" type="line" smooth="yes"/>
      <point x="1273" y="660"/>
      <point x="1257" y="639"/>
      <point x="1257" y="616" type="curve" smooth="yes"/>
      <point x="1257" y="604"/>
      <point x="1271" y="586"/>
      <point x="1311" y="563" type="curve" smooth="yes"/>
      <point x="1373" y="522" type="line"/>
      <point x="1397" y="512"/>
      <point x="1421" y="506"/>
    </contour>
    <component base="dda-deva"/>
    <contour>
      <point x="704" y="1257" type="move" name="bin"/>
    </contour>
    <contour>
      <point x="819" y="-70" type="move" name="bottom"/>
    </contour>
    <contour>
      <point x="1057" y="1257" type="move" name="top"/>
    </contour>
  </outline>
</glyph>
<glyph name="ca-deva" format="1">
  <advance width="1677"/>
  <unicode hex="091A"/>
  <outline>
    <contour>
      <point x="4" y="1123" type="line"/>
      <point x="1307" y="1123" type="line"/>
      <point x="1309" y="922"/>
      <point x="1315" y="719"/>
      <point x="1317" y="517" type="curve"/>
      <point x="1309" y="517" type="line"/>
      <point x="1305" y="544"/>
      <point x="1278" y="557"/>
      <point x="1254" y="557" type="curve" smooth="yes"/>
      <point x="1238" y="557"/>
      <point x="1126" y="411"/>
      <point x="1021" y="368" type="curve" smooth="yes"/>
      <point x="949" y="337"/>
      <point x="871" y="322"/>
      <point x="792" y="322" type="curve" smooth="yes"/>
      <point x="647" y="322"/>
      <point x="565" y="364"/>
      <point x="565" y="443" type="curve" smooth="yes"/>
      <point x="565" y="550"/>
      <point x="767" y="678"/>
      <point x="907" y="678" type="curve" smooth="yes"/>
      <point x="938" y="678"/>
      <point x="1035" y="652"/>
      <point x="1068" y="652" type="curve" smooth="yes"/>
      <point x="1084" y="652"/>
      <point x="1102" y="661"/>
      <point x="1102" y="678" type="curve" smooth="yes"/>
      <point x="1102" y="743"/>
      <point x="1008" y="881"/>
      <point x="949" y="881" type="curve" smooth="yes"/>
      <point x="924" y="881"/>
      <point x="881" y="875"/>
      <point x="859" y="860" type="curve"/>
      <point x="712" y="800"/>
      <point x="517" y="767"/>
      <point x="282" y="767" type="curve"/>
      <point x="232" y="775"/>
      <point x="126" y="818"/>
      <point x="116" y="818" type="curve" smooth="yes"/>
      <point x="101" y="818"/>
      <point x="85" y="790"/>
      <point x="85" y="767" type="curve" smooth="yes"/>
      <point x="85" y="674"/>
      <point x="215" y="574"/>
      <point x="307" y="567" type="curve"/>
      <point x="384" y="565" type="line" smooth="yes"/>
      <point x="411" y="565"/>
      <point x="437" y="565"/>
      <point x="443" y="567" type="curve" smooth="yes"/>
      <point x="450" y="567" type="line"/>
      <point x="450" y="374"/>
      <point x="674" y="155"/>
      <point x="856" y="155" type="curve" smooth="yes"/>
      <point x="1002" y="155"/>
      <point x="1157" y="208"/>
      <point x="1320" y="322" type="curve"/>
      <point x="1328" y="322" type="line"/>
      <point x="1328" y="189"/>
      <point x="1292" y="56"/>
      <point x="1208" y="56" type="curve" smooth="yes"/>
      <point x="1182" y="56"/>
      <point x="1162" y="40"/>
      <point x="1162" y="15" type="curve" smooth="yes"/>
      <point x="1162" y="-43"/>
      <point x="1262" y="-120"/>
      <point x="1312" y="-120" type="curve" smooth="yes"/>
      <point x="1408" y="-120"/>
      <point x="1487" y="88"/>
      <point x="1487" y="311" type="curve" smooth="yes"/>
      <point x="1487" y="899" type="line" smooth="yes"/>
      <point x="1487" y="1013"/>
      <point x="1512" y="1107"/>
      <point x="1549" y="1123" type="curve"/>
      <point x="1697" y="1123" type="line"/>
      <point x="1697" y="1264" type="line"/>
      <point x="1528" y="1264" type="line"/>
      <point x="1485" y="1343"/>
      <point x="1408" y="1400"/>
      <point x="1345" y="1400" type="curve" smooth="yes"/>
      <point x="1327" y="1400"/>
      <point x="1307" y="1341"/>
      <point x="1307" y="1264" type="curve"/>
      <point x="4" y="1264" type="line"/>
    </contour>
    <contour>
      <point x="428" y="0" type="move" name="nukta"/>
    </contour>
    <contour>
      <point x="1408" y="1267" type="move" name="top"/>
    </contour>
    <contour>
      <point x="772" y="1267" type="move" name="bin"/>
    </contour>
    <contour>
      <point x="1255" y="-39" type="move" name="bottom"/>
    </contour>
  </outline>
</glyph>
<glyph name="ja-deva" format="1">
  <advance width="1760"/>
  <unicode hex="091C"/>
  <outline>
    <contour>
      <point x="1579" y="1264" type="line"/>
      <point x="1522" y="1332"/>
      <point x="1471" y="1398"/>
      <point x="1441" y="1398" type="curve" smooth="yes"/>
      <point x="1394" y="1398"/>
      <point x="1386" y="1361"/>
      <point x="1386" y="1288" type="curve" smooth="yes"/>
      <point x="1386" y="1280"/>
      <point x="1386" y="1272"/>
      <point x="1386" y="1264" type="curve"/>
      <point x="-23" y="1264" type="line"/>
      <point x="-23" y="1123" type="line"/>
      <point x="1386" y="1123" type="line"/>
      <point x="1386" y="678" type="line"/>
      <point x="1340" y="777"/>
      <point x="1310" y="825"/>
      <point x="1286" y="839" type="curve"/>
      <point x="1272" y="825"/>
      <point x="1246" y="818"/>
      <point x="1231" y="818" type="curve" smooth="yes"/>
      <point x="719" y="818" type="line"/>
      <point x="719" y="818"/>
      <point x="633" y="831"/>
      <point x="626" y="831" type="curve" smooth="yes"/>
      <point x="612" y="831"/>
      <point x="588" y="814"/>
      <point x="588" y="790" type="curve" smooth="yes"/>
      <point x="588" y="736"/>
      <point x="647" y="585"/>
      <point x="706" y="585" type="curve" smooth="yes"/>
      <point x="719" y="585"/>
      <point x="765" y="623"/>
      <point x="790" y="623" type="curve" smooth="yes"/>
      <point x="863" y="623"/>
      <point x="930" y="565"/>
      <point x="930" y="489" type="curve" smooth="yes"/>
      <point x="930" y="344"/>
      <point x="792" y="222"/>
      <point x="639" y="222" type="curve" smooth="yes"/>
      <point x="437" y="222"/>
      <point x="250" y="409"/>
      <point x="250" y="639" type="curve" smooth="yes"/>
      <point x="250" y="661"/>
      <point x="289" y="739"/>
      <point x="289" y="767" type="curve" smooth="yes"/>
      <point x="289" y="798"/>
      <point x="187" y="860"/>
      <point x="134" y="860" type="curve" smooth="yes"/>
      <point x="112" y="860"/>
      <point x="99" y="839"/>
      <point x="99" y="818" type="curve" smooth="yes"/>
      <point x="99" y="448"/>
      <point x="433" y="35"/>
      <point x="719" y="35" type="curve" smooth="yes"/>
      <point x="922" y="35"/>
      <point x="1092" y="175"/>
      <point x="1092" y="364" type="curve" smooth="yes"/>
      <point x="1092" y="448"/>
      <point x="1035" y="553"/>
      <point x="958" y="610" type="curve"/>
      <point x="999" y="626"/>
      <point x="1074" y="639"/>
      <point x="1168" y="639" type="curve" smooth="yes"/>
      <point x="1236" y="639"/>
      <point x="1317" y="623"/>
      <point x="1377" y="596" type="curve"/>
      <point x="1392" y="562"/>
      <point x="1396" y="492"/>
      <point x="1396" y="347" type="curve" smooth="yes"/>
      <point x="1396" y="146"/>
      <point x="1351" y="53"/>
      <point x="1270" y="53" type="curve" smooth="yes"/>
      <point x="1248" y="53"/>
      <point x="1233" y="39"/>
      <point x="1233" y="25" type="curve" smooth="yes"/>
      <point x="1233" y="-45"/>
      <point x="1309" y="-120"/>
      <point x="1381" y="-120" type="curve" smooth="yes"/>
      <point x="1494" y="-120"/>
      <point x="1549" y="98"/>
      <point x="1549" y="337" type="curve" smooth="yes"/>
      <point x="1549" y="437"/>
      <point x="1528" y="810"/>
      <point x="1528" y="916" type="curve" smooth="yes"/>
      <point x="1528" y="1111"/>
      <point x="1534" y="1123"/>
      <point x="1569" y="1123" type="curve" smooth="yes"/>
      <point x="1780" y="1123" type="line"/>
      <point x="1780" y="1264" type="line"/>
      <point x="1577" y="1264" type="line"/>
    </contour>
    <contour>
      <point x="157" y="73" type="move" name="nukta"/>
    </contour>
    <contour>
      <point x="1473" y="1257" type="move" name="top"/>
    </contour>
    <contour>
      <point x="787" y="1257" type="move" name="bin"/>
    </contour>
    <contour>
      <point x="1338" y="-70" type="move" name="bottom"/>
    </contour>
  </outline>
</glyph>
<glyph name="jha-deva" format="1">
  <advance width="1636"/>
  <unicode hex="091D"/>
  <outline>
    <contour>
      <point x="1209" y="580"/>
      <point x="1051" y="543"/>
      <point x="932" y="555" type="curve"/>
      <point x="986" y="440" type="line"/>
      <point x="1092" y="425"/>
      <point x="1281" y="465"/>
      <point x="1345" y="525" type="curve"/>
      <point x="1325" y="669" type="line"/>
    </contour>
    <component base="i-deva"/>
    <component base="aaMatra-deva" xOffset="1172"/>
    <contour>
      <point x="132" y="-252" type="move" name="nukta"/>
    </contour>
    <contour>
      <point x="1369" y="1257" type="move" name="top"/>
    </contour>
    <contour>
      <point x="742" y="1257" type="move" name="bin"/>
    </contour>
    <contour>
      <point x="1279" y="-32" type="move" name="bottom"/>
    </contour>
  </outline>
</glyph>
<glyph name="pha-deva" format="1">
  <advance width="1580"/>
  <unicode hex="092B"/>
  <outline>
    <contour>
      <point x="-29" y="1123" type="line"/>
      <point x="293" y="1123" type="line"/>
      <point x="193" y="987"/>
      <point x="142" y="859"/>
      <point x="142" y="710" type="curve" smooth="yes"/>
      <point x="142" y="497"/>
      <point x="367" y="254"/>
      <point x="557" y="254" type="curve" smooth="yes"/>
      <point x="625" y="254"/>
      <point x="706" y="299"/>
      <point x="792" y="371" type="curve"/>
      <point x="800" y="342"/>
      <point x="802" y="307"/>
      <point x="802" y="277" type="curve" smooth="yes"/>
      <point x="802" y="159"/>
      <point x="800" y="45"/>
      <point x="747" y="45" type="curve" smooth="yes"/>
      <point x="706" y="45"/>
      <point x="689" y="40"/>
      <point x="689" y="26" type="curve" smooth="yes"/>
      <point x="689" y="-33"/>
      <point x="786" y="-116"/>
      <point x="833" y="-116" type="curve" smooth="yes"/>
      <point x="934" y="-116"/>
      <point x="968" y="49"/>
      <point x="968" y="254" type="curve" smooth="yes"/>
      <point x="968" y="373"/>
      <point x="965" y="454"/>
      <point x="960" y="507" type="curve"/>
      <point x="963" y="507" type="line"/>
      <point x="1030" y="557"/>
      <point x="1121" y="585"/>
      <point x="1192" y="585" type="curve" smooth="yes"/>
      <point x="1320" y="585"/>
      <point x="1425" y="471"/>
      <point x="1425" y="347" type="curve" smooth="yes"/>
      <point x="1425" y="225"/>
      <point x="1343" y="122"/>
      <point x="1236" y="95" type="curve"/>
      <point x="1216" y="94"/>
      <point x="1192" y="81"/>
      <point x="1192" y="67" type="curve" smooth="yes"/>
      <point x="1192" y="5"/>
      <point x="1272" y="-88"/>
      <point x="1312" y="-88" type="curve" smooth="yes"/>
      <point x="1429" y="-88"/>
      <point x="1538" y="63"/>
      <point x="1538" y="215" type="curve" smooth="yes"/>
      <point x="1538" y="472"/>
      <point x="1332" y="740"/>
      <point x="1129" y="740" type="curve" smooth="yes"/>
      <point x="1083" y="740"/>
      <point x="1005" y="724"/>
      <point x="958" y="694" type="curve"/>
      <point x="946" y="750"/>
      <point x="936" y="812"/>
      <point x="936" y="894" type="curve" smooth="yes"/>
      <point x="936" y="1005"/>
      <point x="955" y="1057"/>
      <point x="975" y="1123" type="curve"/>
      <point x="1600" y="1123" type="line"/>
      <point x="1600" y="1264" type="line"/>
      <point x="1035" y="1264" type="line"/>
      <point x="965" y="1367"/>
      <point x="938" y="1412"/>
      <point x="901" y="1412" type="curve" smooth="yes"/>
      <point x="846" y="1412"/>
      <point x="805" y="1340"/>
      <point x="805" y="1264" type="curve"/>
      <point x="-29" y="1264" type="line"/>
    </contour>
    <contour>
      <point x="436" y="411" type="curve" smooth="yes"/>
      <point x="347" y="411"/>
      <point x="292" y="489"/>
      <point x="292" y="582" type="curve" smooth="yes"/>
      <point x="292" y="800"/>
      <point x="381" y="990"/>
      <point x="542" y="1123" type="curve"/>
      <point x="781" y="1123" type="line"/>
      <point x="777" y="1094"/>
      <point x="769" y="1078"/>
      <point x="769" y="1005" type="curve" smooth="yes"/>
      <point x="769" y="810" type="line" smooth="yes"/>
      <point x="769" y="732"/>
      <point x="777" y="655"/>
      <point x="792" y="590" type="curve"/>
      <point x="661" y="476"/>
      <point x="542" y="411"/>
    </contour>
    <contour>
      <point x="262" y="56" type="move" name="nukta"/>
    </contour>
    <contour>
      <point x="917" y="1257" type="move" name="top"/>
    </contour>
    <contour>
      <point x="483" y="1262" type="move" name="bin"/>
    </contour>
    <contour>
      <point x="748" y="-70" type="move" name="bottom"/>
    </contour>
  </outline>
</glyph>
<glyph name="ma-deva" format="1">
  <advance width="1297"/>
  <unicode hex="092E"/>
  <outline>
    <contour>
      <point x="-31" y="1123" type="line"/>
      <point x="309" y="1123" type="line"/>
      <point x="284" y="1048"/>
      <point x="277" y="952"/>
      <point x="277" y="841" type="curve" smooth="yes"/>
      <point x="277" y="726"/>
      <point x="282" y="649"/>
      <point x="297" y="596" type="curve"/>
      <point x="223" y="567"/>
      <point x="181" y="542"/>
      <point x="181" y="478" type="curve" smooth="yes"/>
      <point x="181" y="392"/>
      <point x="274" y="270"/>
      <point x="354" y="270" type="curve" smooth="yes"/>
      <point x="423" y="270"/>
      <point x="439" y="324"/>
      <point x="439" y="456" type="curve"/>
      <point x="525" y="495"/>
      <point x="625" y="497"/>
      <point x="691" y="497" type="curve" smooth="yes"/>
      <point x="781" y="497"/>
      <point x="874" y="481"/>
      <point x="944" y="443" type="curve"/>
      <point x="944" y="95"/>
      <point x="926" y="29"/>
      <point x="841" y="29" type="curve" smooth="yes"/>
      <point x="820" y="29"/>
      <point x="810" y="10"/>
      <point x="810" y="-20" type="curve" smooth="yes"/>
      <point x="810" y="-69"/>
      <point x="909" y="-120"/>
      <point x="983" y="-120" type="curve" smooth="yes"/>
      <point x="1068" y="-120"/>
      <point x="1111" y="36"/>
      <point x="1111" y="208" type="curve" smooth="yes"/>
      <point x="1111" y="342"/>
      <point x="1083" y="773"/>
      <point x="1083" y="899" type="curve" smooth="yes"/>
      <point x="1083" y="1020"/>
      <point x="1094" y="1123"/>
      <point x="1128" y="1123" type="curve" smooth="yes"/>
      <point x="1317" y="1123" type="line"/>
      <point x="1317" y="1264" type="line"/>
      <point x="1133" y="1264" type="line"/>
      <point x="1102" y="1307"/>
      <point x="1062" y="1400"/>
      <point x="1015" y="1400" type="curve" smooth="yes"/>
      <point x="963" y="1400"/>
      <point x="938" y="1337"/>
      <point x="938" y="1264" type="curve"/>
      <point x="-31" y="1264" type="line"/>
    </contour>
    <contour>
      <point x="439" y="639" type="line"/>
      <point x="436" y="736"/>
      <point x="429" y="805"/>
      <point x="429" y="831" type="curve" smooth="yes"/>
      <point x="429" y="999"/>
      <point x="456" y="1102"/>
      <point x="492" y="1123" type="curve"/>
      <point x="938" y="1123" type="line"/>
      <point x="932" y="1070"/>
      <point x="932" y="1013"/>
      <point x="932" y="942" type="curve" smooth="yes"/>
      <point x="932" y="833"/>
      <point x="940" y="739"/>
      <point x="946" y="633" type="curve"/>
      <point x="846" y="671"/>
      <point x="767" y="678"/>
      <point x="706" y="678" type="curve" smooth="yes"/>
      <point x="592" y="678"/>
      <point x="517" y="661"/>
      <point x="446" y="639" type="curve"/>
    </contour>
    <contour>
      <point x="340" y="58" type="move" name="nukta"/>
    </contour>
    <contour>
      <point x="1044" y="1267" type="move" name="top"/>
    </contour>
    <contour>
      <point x="591" y="1267" type="move" name="bin"/>
    </contour>
    <contour>
      <point x="928" y="-72" type="move" name="bottom"/>
    </contour>
  </outline>
</glyph>
<glyph name="ra-deva" format="1">
  <advance width="920"/>
  <unicode hex="0930"/>
  <outline>
    <contour>
      <point x="-20" y="1123" type="line"/>
      <point x="528" y="1123" type="line"/>
      <point x="528" y="1008"/>
      <point x="532" y="930"/>
      <point x="533" y="874" type="curve"/>
      <point x="489" y="899"/>
      <point x="423" y="916"/>
      <point x="352" y="916" type="curve" smooth="yes"/>
      <point x="240" y="916"/>
      <point x="134" y="812"/>
      <point x="134" y="678" type="curve" smooth="yes"/>
      <point x="134" y="532"/>
      <point x="212" y="392"/>
      <point x="382" y="155" type="curve" smooth="yes"/>
      <point x="557" y="-88"/>
      <point x="715" y="-213"/>
      <point x="786" y="-213" type="curve" smooth="yes"/>
      <point x="805" y="-213"/>
      <point x="850" y="-183"/>
      <point x="850" y="-153" type="curve" smooth="yes"/>
      <point x="850" y="-136"/>
      <point x="846" y="-130"/>
      <point x="834" y="-126" type="curve"/>
      <point x="788" y="-95" type="line" smooth="yes"/>
      <point x="657" y="-8"/>
      <point x="521" y="132"/>
      <point x="399" y="329" type="curve"/>
      <point x="421" y="324"/>
      <point x="439" y="324"/>
      <point x="461" y="324" type="curve" smooth="yes"/>
      <point x="647" y="324"/>
      <point x="679" y="478"/>
      <point x="679" y="697" type="curve" smooth="yes"/>
      <point x="679" y="1013" type="line" smooth="yes"/>
      <point x="679" y="1078"/>
      <point x="684" y="1123"/>
      <point x="712" y="1123" type="curve" smooth="yes"/>
      <point x="940" y="1123" type="line"/>
      <point x="940" y="1264" type="line"/>
      <point x="702" y="1264" type="line"/>
      <point x="635" y="1360"/>
      <point x="607" y="1388"/>
      <point x="574" y="1388" type="curve" smooth="yes"/>
      <point x="550" y="1388"/>
      <point x="521" y="1370"/>
      <point x="521" y="1264" type="curve"/>
      <point x="-20" y="1264" type="line"/>
    </contour>
    <contour>
      <point x="537" y="525"/>
      <point x="443" y="450"/>
      <point x="342" y="450" type="curve" smooth="yes"/>
      <point x="309" y="450"/>
      <point x="273" y="515"/>
      <point x="273" y="565" type="curve" smooth="yes"/>
      <point x="273" y="671"/>
      <point x="354" y="753"/>
      <point x="433" y="753" type="curve" smooth="yes"/>
      <point x="456" y="753"/>
      <point x="501" y="739"/>
      <point x="537" y="710" type="curve"/>
    </contour>
    <contour>
      <point x="63" y="126" type="move" name="nukta"/>
    </contour>
    <contour>
      <point x="612" y="1257" type="move" name="top"/>
    </contour>
    <contour>
      <point x="413" y="1257" type="move" name="bin"/>
    </contour>
    <contour>
      <point x="469" y="-114" type="move" name="bottom"/>
    </contour>
  </outline>
</glyph>
<glyph name="la-deva" format="1">
  <advance width="1460"/>
  <unicode hex="0932"/>
  <outline>
    <contour>
      <point x="-29" y="1123" type="line"/>
      <point x="1126" y="1123" type="line"/>
      <point x="1121" y="1093"/>
      <point x="1114" y="1023"/>
      <point x="1114" y="884" type="curve" smooth="yes"/>
      <point x="1114" y="860" type="line"/>
      <point x="1076" y="875"/>
      <point x="1020" y="885"/>
      <point x="967" y="885" type="curve" smooth="yes"/>
      <point x="836" y="885"/>
      <point x="722" y="829"/>
      <point x="679" y="753" type="curve"/>
      <point x="612" y="863"/>
      <point x="525" y="942"/>
      <point x="431" y="942" type="curve" smooth="yes"/>
      <point x="256" y="942"/>
      <point x="96" y="773"/>
      <point x="96" y="567" type="curve" smooth="yes"/>
      <point x="96" y="193"/>
      <point x="336" y="-80"/>
      <point x="660" y="-80" type="curve" smooth="yes"/>
      <point x="671" y="-80"/>
      <point x="679" y="-51"/>
      <point x="679" y="-26" type="curve"/>
      <point x="673" y="24"/>
      <point x="643" y="67"/>
      <point x="594" y="67" type="curve" smooth="yes"/>
      <point x="419" y="67"/>
      <point x="236" y="208"/>
      <point x="236" y="454" type="curve" smooth="yes"/>
      <point x="236" y="626"/>
      <point x="363" y="767"/>
      <point x="489" y="767" type="curve" smooth="yes"/>
      <point x="533" y="767"/>
      <point x="588" y="732"/>
      <point x="633" y="694" type="curve"/>
      <point x="635" y="694" type="line"/>
      <point x="596" y="651"/>
      <point x="585" y="610"/>
      <point x="585" y="585" type="curve" smooth="yes"/>
      <point x="585" y="540"/>
      <point x="674" y="454"/>
      <point x="724" y="454" type="curve" smooth="yes"/>
      <point x="724" y="454"/>
      <point x="747" y="454"/>
      <point x="747" y="489" type="curve" smooth="yes"/>
      <point x="747" y="491"/>
      <point x="747" y="492"/>
      <point x="747" y="497" type="curve" smooth="yes"/>
      <point x="767" y="619"/>
      <point x="881" y="722"/>
      <point x="973" y="722" type="curve" smooth="yes"/>
      <point x="1093" y="722"/>
      <point x="1112" y="676"/>
      <point x="1112" y="607" type="curve" smooth="yes"/>
      <point x="1112" y="248"/>
      <point x="1093" y="60"/>
      <point x="1020" y="60" type="curve" smooth="yes"/>
      <point x="994" y="60"/>
      <point x="975" y="49"/>
      <point x="975" y="33" type="curve" smooth="yes"/>
      <point x="975" y="-18"/>
      <point x="1084" y="-120"/>
      <point x="1138" y="-120" type="curve" smooth="yes"/>
      <point x="1223" y="-120"/>
      <point x="1264" y="114"/>
      <point x="1266" y="374" type="curve" smooth="yes"/>
      <point x="1268" y="916" type="line" smooth="yes"/>
      <point x="1268" y="1005"/>
      <point x="1272" y="1078"/>
      <point x="1291" y="1123" type="curve"/>
      <point x="1480" y="1123" type="line"/>
      <point x="1480" y="1264" type="line"/>
      <point x="1328" y="1264" type="line"/>
      <point x="1283" y="1345"/>
      <point x="1238" y="1396"/>
      <point x="1213" y="1396" type="curve" smooth="yes"/>
      <point x="1171" y="1396"/>
      <point x="1152" y="1343"/>
      <point x="1139" y="1264" type="curve"/>
      <point x="-29" y="1264" type="line"/>
    </contour>
    <contour>
      <point x="111" y="-107" type="move" name="nukta"/>
    </contour>
    <contour>
      <point x="1237" y="1267" type="move" name="top"/>
    </contour>
    <contour>
      <point x="670" y="1267" type="move" name="bin"/>
    </contour>
    <contour>
      <point x="1109" y="-76" type="move" name="bottom"/>
    </contour>
  </outline>
</glyph>
<glyph name="lla-deva" format="1">
  <advance width="1639"/>
  <unicode hex="0933"/>
  <outline>
    <contour>
      <point x="-20" y="1123" type="line"/>
      <point x="1060" y="1123" type="line"/>
      <point x="1060" y="805" type="line"/>
      <point x="962" y="740"/>
      <point x="870" y="651"/>
      <point x="828" y="585" type="curve"/>
      <point x="716" y="767"/>
      <point x="591" y="853"/>
      <point x="461" y="853" type="curve" smooth="yes"/>
      <point x="258" y="853"/>
      <point x="101" y="676"/>
      <point x="101" y="456" type="curve" smooth="yes"/>
      <point x="101" y="243"/>
      <point x="323" y="14"/>
      <point x="548" y="14" type="curve" smooth="yes"/>
      <point x="651" y="14"/>
      <point x="765" y="149"/>
      <point x="883" y="337" type="curve"/>
      <point x="990" y="532"/>
      <point x="1143" y="674"/>
      <point x="1204" y="674" type="curve" smooth="yes"/>
      <point x="1296" y="674"/>
      <point x="1365" y="600"/>
      <point x="1365" y="517" type="curve" smooth="yes"/>
      <point x="1365" y="344"/>
      <point x="1247" y="142"/>
      <point x="1035" y="142" type="curve" smooth="yes"/>
      <point x="958" y="142"/>
      <point x="925" y="212"/>
      <point x="886" y="212" type="curve" smooth="yes"/>
      <point x="863" y="212"/>
      <point x="845" y="203"/>
      <point x="845" y="163" type="curve" smooth="yes"/>
      <point x="845" y="105"/>
      <point x="962" y="-2"/>
      <point x="1114" y="-2" type="curve" smooth="yes"/>
      <point x="1317" y="-2"/>
      <point x="1500" y="187"/>
      <point x="1500" y="406" type="curve" smooth="yes"/>
      <point x="1500" y="555"/>
      <point x="1367" y="736"/>
      <point x="1198" y="804" type="curve"/>
      <point x="1198" y="1092"/>
      <point x="1211" y="1123"/>
      <point x="1226" y="1123" type="curve" smooth="yes"/>
      <point x="1659" y="1123" type="line"/>
      <point x="1659" y="1264" type="line"/>
      <point x="1247" y="1264" type="line"/>
      <point x="1203" y="1332"/>
      <point x="1143" y="1390"/>
      <point x="1119" y="1390" type="curve" smooth="yes"/>
      <point x="1080" y="1390"/>
      <point x="1060" y="1357"/>
      <point x="1060" y="1264" type="curve"/>
      <point x="-20" y="1264" type="line"/>
    </contour>
    <contour>
      <point x="506" y="689" type="curve" smooth="yes"/>
      <point x="610" y="689"/>
      <point x="714" y="625"/>
      <point x="773" y="497" type="curve"/>
      <point x="677" y="324"/>
      <point x="548" y="165"/>
      <point x="449" y="165" type="curve" smooth="yes"/>
      <point x="325" y="165"/>
      <point x="220" y="244"/>
      <point x="220" y="344" type="curve" smooth="yes"/>
      <point x="220" y="483"/>
      <point x="344" y="689"/>
    </contour>
    <contour>
      <point x="101" y="-111" type="move" name="nukta"/>
    </contour>
    <contour>
      <point x="1154" y="1267" type="move" name="top"/>
    </contour>
    <contour>
      <point x="765" y="1268" type="move" name="bin"/>
    </contour>
    <contour>
      <point x="805" y="-49" type="move" name="bottom"/>
    </contour>
  </outline>
</glyph>
<glyph name="uMatra-deva" format="1">
  <advance width="540"/>
  <unicode hex="0941"/>
  <outline>
    <contour>
      <point x="-486" y="-497" type="curve"/>
      <point x="-318" y="-690"/>
      <point x="-56" y="-794"/>
      <point x="231" y="-794" type="curve" smooth="yes"/>
      <point x="432" y="-794"/>
      <point x="601" y="-652"/>
      <point x="601" y="-460" type="curve" smooth="yes"/>
      <point x="601" y="-267"/>
      <point x="434" y="-114"/>
      <point x="239" y="-114" type="curve" smooth="yes"/>
      <point x="125" y="-114"/>
      <point x="30" y="-139"/>
      <point x="-18" y="-177" type="curve"/>
      <point x="34" y="-247"/>
      <point x="72" y="-346"/>
      <point x="117" y="-346" type="curve" smooth="yes"/>
      <point x="133" y="-346"/>
      <point x="241" y="-267"/>
      <point x="322" y="-267" type="curve" smooth="yes"/>
      <point x="422" y="-267"/>
      <point x="506" y="-353"/>
      <point x="506" y="-434" type="curve" smooth="yes"/>
      <point x="506" y="-541"/>
      <point x="365" y="-639"/>
      <point x="206" y="-639" type="curve" smooth="yes"/>
      <point x="-94" y="-639"/>
      <point x="-328" y="-568"/>
      <point x="-455" y="-446" type="curve"/>
      <point x="-470" y="-446"/>
      <point x="-486" y="-487"/>
    </contour>
    <contour>
      <point x="238" y="0" type="move" name="_bottom"/>
    </contour>
  </outline>
</glyph>
<glyph name="rrVocalicMatra-deva" format="1">
  <advance width="560"/>
  <unicode hex="0944"/>
  <outline>
    <contour>
      <point x="25" y="-150" type="curve" smooth="yes"/>
      <point x="25" y="-244"/>
      <point x="86" y="-339"/>
      <point x="165" y="-374" type="curve"/>
      <point x="131" y="-401"/>
      <point x="116" y="-447"/>
      <point x="116" y="-483" type="curve" smooth="yes"/>
      <point x="116" y="-646"/>
      <point x="245" y="-786"/>
      <point x="419" y="-786" type="curve" smooth="yes"/>
      <point x="562" y="-786"/>
      <point x="712" y="-742"/>
      <point x="712" y="-695" type="curve" smooth="yes"/>
      <point x="712" y="-618"/>
      <point x="671" y="-571"/>
      <point x="631" y="-571" type="curve" smooth="yes"/>
      <point x="626" y="-571"/>
      <point x="617" y="-578"/>
      <point x="600" y="-585" type="curve"/>
      <point x="544" y="-624" type="line" smooth="yes"/>
      <point x="527" y="-636"/>
      <point x="489" y="-644"/>
      <point x="422" y="-644" type="curve" smooth="yes"/>
      <point x="384" y="-644" type="line" smooth="yes"/>
      <point x="313" y="-644"/>
      <point x="239" y="-582"/>
      <point x="239" y="-494" type="curve" smooth="yes"/>
      <point x="239" y="-459"/>
      <point x="289" y="-430"/>
      <point x="361" y="-430" type="curve" smooth="yes"/>
      <point x="517" y="-430" type="line" smooth="yes"/>
      <point x="554" y="-430"/>
      <point x="581" y="-415"/>
      <point x="581" y="-388" type="curve" smooth="yes"/>
      <point x="581" y="-351"/>
      <point x="511" y="-270"/>
      <point x="482" y="-270" type="curve" smooth="yes"/>
      <point x="446" y="-270"/>
      <point x="324" y="-310"/>
      <point x="279" y="-310" type="curve" smooth="yes"/>
      <point x="208" y="-310"/>
      <point x="158" y="-267"/>
      <point x="158" y="-229" type="curve" smooth="yes"/>
      <point x="158" y="-180"/>
      <point x="204" y="-139"/>
      <point x="268" y="-139" type="curve" smooth="yes"/>
      <point x="429" y="-139" type="line" smooth="yes"/>
      <point x="464" y="-139"/>
      <point x="497" y="-112"/>
      <point x="497" y="-85" type="curve" smooth="yes"/>
      <point x="497" y="-26"/>
      <point x="476" y="7"/>
      <point x="429" y="7" type="curve" smooth="yes"/>
      <point x="243" y="7" type="line" smooth="yes"/>
      <point x="129" y="7"/>
      <point x="25" y="-58"/>
    </contour>
    <contour>
      <point x="279" y="0" type="move" name="_bottom"/>
    </contour>
  </outline>
</glyph>
<glyph name="anudatta-deva" format="1">
  <advance width="540"/>
  <unicode hex="0952"/>
  <outline>
    <contour>
      <point x="740" y="-391" type="line" smooth="yes"/>
      <point x="758" y="-391"/>
      <point x="777" y="-371"/>
      <point x="777" y="-336" type="curve" smooth="yes"/>
      <point x="777" y="-302"/>
      <point x="704" y="-250"/>
      <point x="669" y="-250" type="curve" smooth="yes"/>
      <point x="-179" y="-250" type="line" smooth="yes"/>
      <point x="-212" y="-250"/>
      <point x="-250" y="-275"/>
      <point x="-250" y="-314" type="curve" smooth="yes"/>
      <point x="-250" y="-369"/>
      <point x="-198" y="-394"/>
      <point x="-146" y="-394" type="curve" smooth="yes"/>
      <point x="-136" y="-394" type="line" smooth="yes"/>
      <point x="-132" y="-394"/>
      <point x="-129" y="-391"/>
      <point x="-124" y="-391" type="curve" smooth="yes"/>
    </contour>
  </outline>
</glyph>
<glyph name="five-deva" format="1">
  <advance width="1519"/>
  <unicode hex="096B"/>
  <outline>
    <contour>
      <point x="226" y="990" type="curve" smooth="yes"/>
      <point x="226" y="740"/>
      <point x="550" y="419"/>
      <point x="788" y="419" type="curve" smooth="yes"/>
      <point x="845" y="419"/>
      <point x="940" y="464"/>
      <point x="1038" y="526" type="curve"/>
      <point x="1094" y="457"/>
      <point x="1121" y="355"/>
      <point x="1121" y="217" type="curve" smooth="yes"/>
      <point x="1121" y="43"/>
      <point x="1018" y="-110"/>
      <point x="884" y="-110" type="curve" smooth="yes"/>
      <point x="857" y="-110"/>
      <point x="839" y="-122"/>
      <point x="839" y="-136" type="curve" smooth="yes"/>
      <point x="839" y="-166"/>
      <point x="868" y="-201"/>
      <point x="956" y="-250" type="curve" smooth="yes"/>
      <point x="1042" y="-303" type="line"/>
      <point x="1174" y="-303"/>
      <point x="1293" y="-132"/>
      <point x="1293" y="75" type="curve" smooth="yes"/>
      <point x="1293" y="217"/>
      <point x="1221" y="423"/>
      <point x="1121" y="617" type="curve"/>
      <point x="1126" y="617" type="line"/>
      <point x="1187" y="675"/>
      <point x="1208" y="775"/>
      <point x="1208" y="900" type="curve" smooth="yes"/>
      <point x="1208" y="1044"/>
      <point x="1135" y="1163"/>
      <point x="1058" y="1163" type="curve" smooth="yes"/>
      <point x="990" y="1163"/>
      <point x="893" y="1018"/>
      <point x="893" y="938" type="curve" smooth="yes"/>
      <point x="893" y="852"/>
      <point x="921" y="775"/>
      <point x="972" y="692" type="curve"/>
      <point x="971" y="692" type="line"/>
      <point x="887" y="624"/>
      <point x="755" y="587"/>
      <point x="650" y="587" type="curve" smooth="yes"/>
      <point x="523" y="587"/>
      <point x="391" y="690"/>
      <point x="391" y="830" type="curve" smooth="yes"/>
      <point x="391" y="988"/>
      <point x="484" y="1153"/>
      <point x="615" y="1246" type="curve"/>
      <point x="633" y="1266"/>
      <point x="658" y="1282"/>
      <point x="658" y="1305" type="curve" smooth="yes"/>
      <point x="658" y="1348"/>
      <point x="574" y="1452"/>
      <point x="526" y="1452" type="curve" smooth="yes"/>
      <point x="405" y="1452"/>
      <point x="226" y="1167"/>
    </contour>
  </outline>
</glyph>
<glyph name="six-deva" format="1">
  <advance width="1461"/>
  <unicode hex="096C"/>
  <outline>
    <contour>
      <point x="258" y="1098" type="curve" smooth="yes"/>
      <point x="258" y="962"/>
      <point x="350" y="816"/>
      <point x="473" y="730" type="curve"/>
      <point x="385" y="680"/>
      <point x="332" y="587"/>
      <point x="332" y="492" type="curve" smooth="yes"/>
      <point x="332" y="194"/>
      <point x="574" y="-50"/>
      <point x="845" y="-50" type="curve" smooth="yes"/>
      <point x="887" y="-50"/>
      <point x="929" y="-45"/>
      <point x="959" y="-37" type="curve"/>
      <point x="1042" y="-236"/>
      <point x="1120" y="-364"/>
      <point x="1196" y="-364" type="curve" smooth="yes"/>
      <point x="1208" y="-364"/>
      <point x="1255" y="-308"/>
      <point x="1255" y="-278" type="curve" smooth="yes"/>
      <point x="1255" y="-239"/>
      <point x="1097" y="-77"/>
      <point x="1072" y="0" type="curve"/>
      <point x="1187" y="45"/>
      <point x="1255" y="136"/>
      <point x="1255" y="228" type="curve" smooth="yes"/>
      <point x="1255" y="348"/>
      <point x="1135" y="477"/>
      <point x="1040" y="477" type="curve" smooth="yes"/>
      <point x="945" y="477"/>
      <point x="859" y="409"/>
      <point x="859" y="316" type="curve" smooth="yes"/>
      <point x="859" y="265"/>
      <point x="870" y="217"/>
      <point x="898" y="154" type="curve"/>
      <point x="868" y="138"/>
      <point x="810" y="129"/>
      <point x="721" y="129" type="curve" smooth="yes"/>
      <point x="583" y="129"/>
      <point x="451" y="226"/>
      <point x="451" y="362" type="curve" smooth="yes"/>
      <point x="451" y="498"/>
      <point x="667" y="626"/>
      <point x="884" y="626" type="curve" smooth="yes"/>
      <point x="898" y="626"/>
      <point x="962" y="615"/>
      <point x="982" y="615" type="curve" smooth="yes"/>
      <point x="995" y="615"/>
      <point x="1010" y="624"/>
      <point x="1010" y="638" type="curve" smooth="yes"/>
      <point x="1010" y="662"/>
      <point x="988" y="712"/>
      <point x="904" y="830" type="curve"/>
      <point x="780" y="830"/>
      <point x="658" y="810"/>
      <point x="572" y="773" type="curve"/>
      <point x="464" y="821"/>
      <point x="408" y="906"/>
      <point x="408" y="977" type="curve" smooth="yes"/>
      <point x="408" y="1142"/>
      <point x="595" y="1266"/>
      <point x="788" y="1266" type="curve" smooth="yes"/>
      <point x="813" y="1266"/>
      <point x="887" y="1213"/>
      <point x="906" y="1213" type="curve" smooth="yes"/>
      <point x="937" y="1213"/>
      <point x="948" y="1232"/>
      <point x="948" y="1266" type="curve" smooth="yes"/>
      <point x="948" y="1327"/>
      <point x="927" y="1384"/>
      <point x="878" y="1439" type="curve"/>
      <point x="826" y="1445"/>
      <point x="775" y="1452"/>
      <point x="683" y="1452" type="curve" smooth="yes"/>
      <point x="416" y="1452"/>
      <point x="258" y="1316"/>
    </contour>
    <contour>
      <point x="1038" y="201" type="curve"/>
      <point x="1008" y="222"/>
      <point x="999" y="255"/>
      <point x="999" y="303" type="curve" smooth="yes"/>
      <point x="999" y="339"/>
      <point x="1055" y="362"/>
      <point x="1086" y="362" type="curve" smooth="yes"/>
      <point x="1117" y="362"/>
      <point x="1153" y="337"/>
      <point x="1153" y="282" type="curve" smooth="yes"/>
      <point x="1153" y="239"/>
      <point x="1083" y="201"/>
    </contour>
  </outline>
</glyph>
<glyph name="jjya-deva" format="1">
  <advance width="1405"/>
  <unicode hex="097A"/>
  <outline>
    <contour>
      <point x="517" y="347" type="curve" smooth="yes"/>
      <point x="371" y="347"/>
      <point x="240" y="473"/>
      <point x="240" y="596" type="curve" smooth="yes"/>
      <point x="240" y="623"/>
      <point x="266" y="652"/>
      <point x="289" y="652" type="curve" smooth="yes"/>
      <point x="352" y="652" type="line" smooth="yes"/>
      <point x="426" y="652"/>
      <point x="491" y="674"/>
      <point x="537" y="719" type="curve"/>
      <point x="633" y="645"/>
      <point x="736" y="567"/>
      <point x="829" y="492" type="curve"/>
      <point x="729" y="418"/>
      <point x="596" y="347"/>
    </contour>
    <contour>
      <point x="580" y="805" type="line"/>
      <point x="586" y="825"/>
      <point x="586" y="846"/>
      <point x="586" y="874" type="curve" smooth="yes"/>
      <point x="586" y="952"/>
      <point x="555" y="1040"/>
      <point x="502" y="1123" type="curve"/>
      <point x="1021" y="1123" type="line"/>
      <point x="1009" y="1102"/>
      <point x="1005" y="1040"/>
      <point x="1005" y="938" type="curve" smooth="yes"/>
      <point x="1005" y="899" type="line" smooth="yes"/>
      <point x="1005" y="833"/>
      <point x="1031" y="607"/>
      <point x="1031" y="547" type="curve"/>
      <point x="973" y="596"/>
      <point x="960" y="610"/>
      <point x="955" y="610" type="curve" smooth="yes"/>
      <point x="942" y="610"/>
      <point x="920" y="592"/>
      <point x="899" y="565" type="curve"/>
    </contour>
    <contour>
      <point x="1233" y="1264" type="line"/>
      <point x="1188" y="1345"/>
      <point x="1144" y="1396"/>
      <point x="1117" y="1396" type="curve" smooth="yes"/>
      <point x="1078" y="1396"/>
      <point x="1060" y="1343"/>
      <point x="1048" y="1264" type="curve"/>
      <point x="-5" y="1264" type="line"/>
      <point x="-5" y="1123" type="line"/>
      <point x="431" y="1123" type="line"/>
      <point x="448" y="1093"/>
      <point x="463" y="1060"/>
      <point x="463" y="1028" type="curve" smooth="yes"/>
      <point x="463" y="913"/>
      <point x="411" y="841"/>
      <point x="326" y="841" type="curve" smooth="yes"/>
      <point x="208" y="841" type="line" smooth="yes"/>
      <point x="163" y="841"/>
      <point x="134" y="818"/>
      <point x="134" y="777" type="curve" smooth="yes"/>
      <point x="134" y="458"/>
      <point x="342" y="177"/>
      <point x="605" y="177" type="curve" smooth="yes"/>
      <point x="745" y="177"/>
      <point x="907" y="273"/>
      <point x="1060" y="416" type="curve"/>
      <point x="1060" y="408"/>
      <point x="1060" y="400"/>
      <point x="1060" y="394" type="curve" smooth="yes"/>
      <point x="1060" y="210"/>
      <point x="1009" y="63"/>
      <point x="940" y="63" type="curve" smooth="yes"/>
      <point x="899" y="63"/>
      <point x="871" y="45"/>
      <point x="871" y="14" type="curve" smooth="yes"/>
      <point x="871" y="-49"/>
      <point x="983" y="-149"/>
      <point x="1054" y="-149" type="curve" smooth="yes"/>
      <point x="1139" y="-149"/>
      <point x="1206" y="74"/>
      <point x="1206" y="322" type="curve" smooth="yes"/>
      <point x="1206" y="427"/>
      <point x="1168" y="804"/>
      <point x="1168" y="916" type="curve" smooth="yes"/>
      <point x="1168" y="999"/>
      <point x="1188" y="1083"/>
      <point x="1216" y="1123" type="curve"/>
      <point x="1425" y="1123" type="line"/>
      <point x="1425" y="1264" type="line"/>
    </contour>
    <contour>
      <point x="284" y="0" type="move" name="nukta"/>
    </contour>
    <contour>
      <point x="1149" y="1257" type="move" name="top"/>
    </contour>
    <contour>
      <point x="684" y="1257" type="move" name="bin"/>
    </contour>
    <contour>
      <point x="983" y="-79" type="move" name="bottom"/>
    </contour>
  </outline>
</glyph>
<glyph name="perthousand" format="1">
  <advance width="2097"/>
  <unicode hex="2030"/>
  <outline>
    <contour>
      <point x="1959" y="382" type="curve" smooth="yes"/>
      <point x="1959" y="600"/>
      <point x="1755" y="621"/>
      <point x="1693" y="621" type="curve" smooth="yes"/>
      <point x="1546" y="621"/>
      <point x="1459" y="413"/>
      <point x="1459" y="301" type="curve" smooth="yes"/>
      <point x="1459" y="119"/>
      <point x="1536" y="0"/>
      <point x="1705" y="0" type="curve" smooth="yes"/>
      <point x="1859" y="0"/>
      <point x="1959" y="218"/>
    </contour>
    <contour>
      <point x="1604" y="301" type="curve" smooth="yes"/>
      <point x="1604" y="363"/>
      <point x="1652" y="450"/>
      <point x="1687" y="450" type="curve" smooth="yes"/>
      <point x="1723" y="450"/>
      <point x="1815" y="421"/>
      <point x="1815" y="368" type="curve" smooth="yes"/>
      <point x="1815" y="303"/>
      <point x="1763" y="181"/>
      <point x="1714" y="181" type="curve" smooth="yes"/>
      <point x="1646" y="181"/>
      <point x="1604" y="222"/>
    </contour>
    <component base="percent"/>
  </outline>
</glyph>
<glyph name="infinity" format="1">
  <advance width="1216"/>
  <unicode hex="221E"/>
  <outline>
    <contour>
      <point x="282" y="273" type="curve" smooth="yes"/>
      <point x="359" y="273"/>
      <point x="508" y="367"/>
      <point x="602" y="472" type="curve"/>
      <point x="850" y="250"/>
      <point x="885" y="218"/>
      <point x="930" y="218" type="curve" smooth="yes"/>
      <point x="1009" y="218"/>
      <point x="1128" y="337"/>
      <point x="1129" y="462" type="curve"/>
      <point x="1107" y="660"/>
      <point x="1015" y="924"/>
      <point x="839" y="924" type="curve" smooth="yes"/>
      <point x="753" y="924"/>
      <point x="678" y="849"/>
      <point x="616" y="760" type="curve"/>
      <point x="468" y="860"/>
      <point x="392" y="889"/>
      <point x="319" y="889" type="curve" smooth="yes"/>
      <point x="144" y="889"/>
      <point x="76" y="767"/>
      <point x="76" y="621" type="curve" smooth="yes"/>
      <point x="76" y="431"/>
      <point x="153" y="273"/>
    </contour>
    <contour>
      <point x="814" y="710" type="curve"/>
      <point x="952" y="710"/>
      <point x="988" y="505"/>
      <point x="988" y="454" type="curve" smooth="yes"/>
      <point x="988" y="437"/>
      <point x="968" y="421"/>
      <point x="960" y="413" type="curve"/>
      <point x="944" y="413"/>
      <point x="930" y="426"/>
      <point x="920" y="436" type="curve" smooth="yes"/>
      <point x="841" y="518"/>
      <point x="715" y="600"/>
      <point x="710" y="623" type="curve"/>
      <point x="710" y="639"/>
      <point x="798" y="706"/>
    </contour>
    <contour>
      <point x="315" y="691" type="curve"/>
      <point x="371" y="691"/>
      <point x="486" y="652"/>
      <point x="518" y="605" type="curve"/>
      <point x="495" y="553"/>
      <point x="305" y="481"/>
      <point x="292" y="481" type="curve" smooth="yes"/>
      <point x="243" y="481"/>
      <point x="212" y="565"/>
      <point x="212" y="621" type="curve" smooth="yes"/>
      <point x="212" y="678"/>
      <point x="273" y="691"/>
    </contour>
  </outline>
</glyph>
<glyph name="acute.cap" format="1">
  <advance width="547"/>
  <outline>
    <contour>
      <point x="63" y="1299" type="curve"/>
      <point x="126" y="1299"/>
      <point x="439" y="1417"/>
      <point x="439" y="1544" type="curve" smooth="yes"/>
      <point x="439" y="1606"/>
      <point x="408" y="1628"/>
      <point x="367" y="1628" type="curve" smooth="yes"/>
      <point x="305" y="1628"/>
      <point x="183" y="1522"/>
      <point x="91" y="1467" type="curve" smooth="yes"/>
      <point x="57" y="1444"/>
      <point x="23" y="1414"/>
      <point x="23" y="1365" type="curve" smooth="yes"/>
      <point x="23" y="1302"/>
      <point x="63" y="1299"/>
    </contour>
    <contour>
      <point x="144" y="1429" type="move" name="_top"/>
    </contour>
  </outline>
</glyph>
<glyph name="aiMatra_anusvara-deva" format="1">
  <advance width="831"/>
  <outline>
    <component base="anusvara-deva" xOffset="785" yOffset="-14"/>
    <component base="aiMatra-deva" xOffset="443"/>
    <contour>
      <point x="681" y="1262" type="move" name="_top"/>
    </contour>
  </outline>
</glyph>
<glyph name="b_la-deva.loclMAR" format="1">
  <advance width="1352"/>
  <outline>
    <contour>
      <point x="-12" y="1123" type="line"/>
      <point x="975" y="1123" type="line"/>
      <point x="975" y="952"/>
      <point x="983" y="764"/>
      <point x="993" y="551" type="curve"/>
      <point x="965" y="574" type="line"/>
      <point x="920" y="541" type="line"/>
      <point x="860" y="773"/>
      <point x="681" y="935"/>
      <point x="486" y="935" type="curve" smooth="yes"/>
      <point x="289" y="935"/>
      <point x="109" y="820"/>
      <point x="109" y="677" type="curve" smooth="yes"/>
      <point x="109" y="469"/>
      <point x="347" y="252"/>
      <point x="542" y="252" type="curve" smooth="yes"/>
      <point x="694" y="252"/>
      <point x="850" y="296"/>
      <point x="999" y="407" type="curve"/>
      <point x="999" y="262"/>
      <point x="1000" y="88"/>
      <point x="935" y="88" type="curve" smooth="yes"/>
      <point x="896" y="88"/>
      <point x="875" y="101"/>
      <point x="875" y="69" type="curve" smooth="yes"/>
      <point x="875" y="16"/>
      <point x="1023" y="-45"/>
      <point x="1068" y="-45" type="curve" smooth="yes"/>
      <point x="1161" y="-45"/>
      <point x="1139" y="88"/>
      <point x="1139" y="376" type="curve" smooth="yes"/>
      <point x="1138" y="997" type="line" smooth="yes"/>
      <point x="1138" y="1054"/>
      <point x="1146" y="1123"/>
      <point x="1173" y="1123" type="curve" smooth="yes"/>
      <point x="1372" y="1123" type="line"/>
      <point x="1372" y="1264" type="line"/>
      <point x="1164" y="1264" type="line"/>
      <point x="1102" y="1355"/>
      <point x="1070" y="1400"/>
      <point x="1047" y="1400" type="curve" smooth="yes"/>
      <point x="988" y="1400"/>
      <point x="975" y="1340"/>
      <point x="975" y="1264" type="curve"/>
      <point x="-12" y="1264" type="line"/>
    </contour>
    <contour>
      <point x="526" y="417"/>
      <point x="486" y="408"/>
      <point x="429" y="408" type="curve" smooth="yes"/>
      <point x="313" y="408"/>
      <point x="237" y="471"/>
      <point x="237" y="551" type="curve" smooth="yes"/>
      <point x="237" y="628"/>
      <point x="322" y="742"/>
      <point x="461" y="762" type="curve"/>
      <point x="495" y="656"/>
      <point x="535" y="529"/>
      <point x="565" y="424" type="curve"/>
    </contour>
    <contour>
      <point x="533" y="783" type="line"/>
      <point x="565" y="790"/>
      <point x="588" y="795"/>
      <point x="607" y="795" type="curve" smooth="yes"/>
      <point x="702" y="795"/>
      <point x="814" y="675"/>
      <point x="874" y="521" type="curve"/>
      <point x="792" y="491"/>
      <point x="716" y="467"/>
      <point x="645" y="451" type="curve"/>
    </contour>
    <contour>
      <point x="1207" y="-75"/>
      <point x="1072" y="156"/>
      <point x="855" y="156" type="curve" smooth="yes"/>
      <point x="775" y="156"/>
      <point x="672" y="77"/>
      <point x="645" y="49" type="curve"/>
      <point x="629" y="33" type="line"/>
      <point x="555" y="118"/>
      <point x="454" y="169"/>
      <point x="404" y="169" type="curve" smooth="yes"/>
      <point x="252" y="169"/>
      <point x="127" y="41"/>
      <point x="127" y="-123" type="curve" smooth="yes"/>
      <point x="127" y="-420"/>
      <point x="351" y="-685"/>
      <point x="584" y="-685" type="curve" smooth="yes"/>
      <point x="603" y="-685"/>
      <point x="614" y="-674"/>
      <point x="614" y="-651" type="curve"/>
      <point x="609" y="-596"/>
      <point x="569" y="-564"/>
      <point x="545" y="-564" type="curve" smooth="yes"/>
      <point x="380" y="-564"/>
      <point x="262" y="-397"/>
      <point x="262" y="-222" type="curve" smooth="yes"/>
      <point x="262" y="-82"/>
      <point x="356" y="37"/>
      <point x="483" y="37" type="curve" smooth="yes"/>
      <point x="510" y="37"/>
      <point x="548" y="11"/>
      <point x="582" y="-20" type="curve"/>
      <point x="559" y="-49"/>
      <point x="550" y="-92"/>
      <point x="550" y="-116" type="curve" smooth="yes"/>
      <point x="550" y="-154"/>
      <point x="611" y="-238"/>
      <point x="653" y="-238" type="curve" smooth="yes"/>
      <point x="731" y="-238"/>
      <point x="745" y="-37"/>
      <point x="936" y="-37" type="curve" smooth="yes"/>
      <point x="1021" y="-37"/>
      <point x="1105" y="-126"/>
      <point x="1105" y="-252" type="curve" smooth="yes"/>
      <point x="1105" y="-372"/>
      <point x="997" y="-477"/>
      <point x="881" y="-477" type="curve" smooth="yes"/>
      <point x="871" y="-477"/>
      <point x="809" y="-466"/>
      <point x="799" y="-466" type="curve" smooth="yes"/>
      <point x="782" y="-466"/>
      <point x="763" y="-477"/>
      <point x="763" y="-496" type="curve" smooth="yes"/>
      <point x="763" y="-549"/>
      <point x="867" y="-651"/>
      <point x="901" y="-651" type="curve" smooth="yes"/>
      <point x="1072" y="-651"/>
      <point x="1207" y="-501"/>
      <point x="1207" y="-328" type="curve" smooth="yes"/>
    </contour>
    <contour>
      <point x="473" y="1257" type="move" name="bin"/>
    </contour>
    <contour>
      <point x="805" y="-566" type="move" name="bottom"/>
    </contour>
    <contour>
      <point x="1095" y="1257" type="move" name="top"/>
    </contour>
  </outline>
</glyph>
<glyph name="b_r-deva" format="1">
  <advance width="1065"/>
  <outline>
    <contour>
      <point x="1084" y="1123" type="line"/>
      <point x="1084" y="1264" type="line"/>
      <point x="-20" y="1264" type="line"/>
      <point x="-20" y="1123" type="line"/>
    </contour>
    <contour>
      <point x="134" y="416"/>
      <point x="377" y="183"/>
      <point x="567" y="183" type="curve" smooth="yes"/>
      <point x="724" y="183"/>
      <point x="1078" y="260"/>
      <point x="1238" y="406" type="curve"/>
      <point x="1102" y="555" type="line"/>
      <point x="946" y="497" type="line"/>
      <point x="889" y="726"/>
      <point x="710" y="881"/>
      <point x="515" y="881" type="curve" smooth="yes"/>
      <point x="317" y="881"/>
      <point x="134" y="767"/>
      <point x="134" y="623" type="curve" smooth="yes"/>
    </contour>
    <contour>
      <point x="458" y="364" type="line"/>
      <point x="339" y="364"/>
      <point x="263" y="418"/>
      <point x="263" y="497" type="curve" smooth="yes"/>
      <point x="263" y="574"/>
      <point x="349" y="657"/>
      <point x="491" y="694" type="curve"/>
      <point x="497" y="694" type="line"/>
      <point x="532" y="588"/>
      <point x="560" y="478"/>
      <point x="595" y="374" type="curve"/>
      <point x="590" y="374" type="line"/>
    </contour>
    <contour>
      <point x="563" y="722" type="line"/>
      <point x="590" y="726" type="line" smooth="yes"/>
      <point x="610" y="729"/>
      <point x="623" y="732"/>
      <point x="631" y="732" type="curve" smooth="yes"/>
      <point x="643" y="732" type="line" smooth="yes"/>
      <point x="736" y="732"/>
      <point x="843" y="629"/>
      <point x="901" y="473" type="curve"/>
      <point x="666" y="406" type="line"/>
    </contour>
    <contour>
      <point x="105" y="-45"/>
      <point x="79" y="-69"/>
      <point x="79" y="-99" type="curve" smooth="yes"/>
      <point x="79" y="-117"/>
      <point x="219" y="-216"/>
      <point x="251" y="-216" type="curve" smooth="yes"/>
      <point x="294" y="-216"/>
      <point x="357" y="-164"/>
      <point x="537" y="-5" type="curve"/>
      <point x="644" y="97"/>
      <point x="725" y="186"/>
      <point x="753" y="225" type="curve"/>
      <point x="689" y="292" type="line"/>
      <point x="396" y="66"/>
      <point x="304" y="-45"/>
      <point x="141" y="-45" type="curve" smooth="yes"/>
    </contour>
  </outline>
</glyph>
<glyph name="brevecomb_hookabovecomb.cap" format="1">
  <advance width="625"/>
  <outline>
    <contour>
      <point x="315" y="1206" type="curve" smooth="yes"/>
      <point x="495" y="1206"/>
      <point x="616" y="1300"/>
      <point x="616" y="1453" type="curve" smooth="yes"/>
      <point x="616" y="1522"/>
      <point x="580" y="1553"/>
      <point x="550" y="1553" type="curve" smooth="yes"/>
      <point x="525" y="1553"/>
      <point x="486" y="1530"/>
      <point x="476" y="1464" type="curve" smooth="yes"/>
      <point x="462" y="1372"/>
      <point x="381" y="1365"/>
      <point x="307" y="1365" type="curve" smooth="yes"/>
      <point x="60" y="1365"/>
      <point x="205" y="1551"/>
      <point x="81" y="1551" type="curve" smooth="yes"/>
      <point x="57" y="1551"/>
      <point x="8" y="1532"/>
      <point x="8" y="1439" type="curve" smooth="yes"/>
      <point x="8" y="1268"/>
      <point x="159" y="1206"/>
    </contour>
    <contour>
      <point x="229" y="1833" type="curve" smooth="yes"/>
      <point x="220" y="1862"/>
      <point x="243" y="1893"/>
      <point x="295" y="1911" type="curve" smooth="yes"/>
      <point x="373" y="1939"/>
      <point x="439" y="1914"/>
      <point x="471" y="1891" type="curve" smooth="yes"/>
      <point x="502" y="1864"/>
      <point x="521" y="1839"/>
      <point x="533" y="1805" type="curve" smooth="yes"/>
      <point x="555" y="1740"/>
      <point x="550" y="1621"/>
      <point x="391" y="1565" type="curve" smooth="yes"/>
      <point x="303" y="1534"/>
      <point x="244" y="1546"/>
      <point x="223" y="1587" type="curve" smooth="yes"/>
      <point x="213" y="1608"/>
      <point x="220" y="1646"/>
      <point x="250" y="1656" type="curve" smooth="yes"/>
      <point x="270" y="1664"/>
      <point x="292" y="1656"/>
      <point x="313" y="1664" type="curve" smooth="yes"/>
      <point x="357" y="1681"/>
      <point x="394" y="1681"/>
      <point x="378" y="1733" type="curve" smooth="yes"/>
      <point x="346" y="1847"/>
      <point x="254" y="1765"/>
    </contour>
    <contour>
      <point x="311" y="1515" type="move" name="_top"/>
    </contour>
  </outline>
</glyph>
<glyph name="c_la-deva.loclMAR" format="1">
  <advance width="1536"/>
  <outline>
    <contour>
      <point x="-14" y="1123" type="line"/>
      <point x="1174" y="1123" type="line"/>
      <point x="1174" y="617" type="line"/>
      <point x="1182" y="617" type="line"/>
      <point x="1174" y="644"/>
      <point x="1143" y="657"/>
      <point x="1112" y="657" type="curve" smooth="yes"/>
      <point x="1101" y="657"/>
      <point x="996" y="513"/>
      <point x="885" y="468" type="curve" smooth="yes"/>
      <point x="817" y="439"/>
      <point x="796" y="422"/>
      <point x="711" y="422" type="curve" smooth="yes"/>
      <point x="532" y="422"/>
      <point x="430" y="463"/>
      <point x="430" y="543" type="curve" smooth="yes"/>
      <point x="430" y="647"/>
      <point x="571" y="778"/>
      <point x="761" y="778" type="curve" smooth="yes"/>
      <point x="793" y="778"/>
      <point x="885" y="752"/>
      <point x="923" y="752" type="curve" smooth="yes"/>
      <point x="958" y="752"/>
      <point x="972" y="757"/>
      <point x="972" y="761" type="curve" smooth="yes"/>
      <point x="972" y="839"/>
      <point x="862" y="981"/>
      <point x="819" y="981" type="curve" smooth="yes"/>
      <point x="793" y="981"/>
      <point x="762" y="975"/>
      <point x="738" y="960" type="curve"/>
      <point x="619" y="888"/>
      <point x="412" y="853"/>
      <point x="188" y="853" type="curve"/>
      <point x="150" y="857"/>
      <point x="76" y="918"/>
      <point x="61" y="918" type="curve" smooth="yes"/>
      <point x="45" y="918"/>
      <point x="34" y="908"/>
      <point x="34" y="890" type="curve" smooth="yes"/>
      <point x="34" y="774"/>
      <point x="165" y="647"/>
      <point x="257" y="647" type="curve" smooth="yes"/>
      <point x="257" y="647"/>
      <point x="267" y="650"/>
      <point x="274" y="652" type="curve" smooth="yes"/>
      <point x="316" y="657" type="line"/>
      <point x="316" y="468"/>
      <point x="562" y="255"/>
      <point x="759" y="255" type="curve" smooth="yes"/>
      <point x="930" y="255"/>
      <point x="1046" y="312"/>
      <point x="1193" y="437" type="curve"/>
      <point x="1200" y="437" type="line"/>
      <point x="1200" y="295"/>
      <point x="1137" y="136"/>
      <point x="1059" y="136" type="curve" smooth="yes"/>
      <point x="1032" y="136"/>
      <point x="1013" y="120"/>
      <point x="1013" y="95" type="curve" smooth="yes"/>
      <point x="1013" y="37"/>
      <point x="1139" y="-60"/>
      <point x="1195" y="-60" type="curve" smooth="yes"/>
      <point x="1281" y="-60"/>
      <point x="1328" y="189"/>
      <point x="1328" y="411" type="curve" smooth="yes"/>
      <point x="1328" y="981" type="line" smooth="yes"/>
      <point x="1328" y="1043"/>
      <point x="1330" y="1123"/>
      <point x="1359" y="1123" type="curve" smooth="yes"/>
      <point x="1556" y="1123" type="line"/>
      <point x="1556" y="1264" type="line"/>
      <point x="1376" y="1264" type="line"/>
      <point x="1321" y="1357"/>
      <point x="1294" y="1412"/>
      <point x="1250" y="1412" type="curve" smooth="yes"/>
      <point x="1200" y="1412"/>
      <point x="1174" y="1340"/>
      <point x="1174" y="1264" type="curve"/>
      <point x="-14" y="1264" type="line"/>
    </contour>
    <contour>
      <point x="1404" y="-95"/>
      <point x="1269" y="136"/>
      <point x="1052" y="136" type="curve" smooth="yes"/>
      <point x="972" y="136"/>
      <point x="869" y="57"/>
      <point x="842" y="29" type="curve"/>
      <point x="826" y="13" type="line"/>
      <point x="752" y="98"/>
      <point x="651" y="149"/>
      <point x="601" y="149" type="curve" smooth="yes"/>
      <point x="449" y="149"/>
      <point x="324" y="21"/>
      <point x="324" y="-143" type="curve" smooth="yes"/>
      <point x="324" y="-440"/>
      <point x="548" y="-705"/>
      <point x="781" y="-705" type="curve" smooth="yes"/>
      <point x="800" y="-705"/>
      <point x="811" y="-694"/>
      <point x="811" y="-671" type="curve"/>
      <point x="806" y="-616"/>
      <point x="766" y="-584"/>
      <point x="742" y="-584" type="curve" smooth="yes"/>
      <point x="577" y="-584"/>
      <point x="459" y="-417"/>
      <point x="459" y="-242" type="curve" smooth="yes"/>
      <point x="459" y="-102"/>
      <point x="553" y="17"/>
      <point x="680" y="17" type="curve" smooth="yes"/>
      <point x="707" y="17"/>
      <point x="745" y="-9"/>
      <point x="779" y="-40" type="curve"/>
      <point x="756" y="-69"/>
      <point x="747" y="-112"/>
      <point x="747" y="-136" type="curve" smooth="yes"/>
      <point x="747" y="-174"/>
      <point x="808" y="-258"/>
      <point x="850" y="-258" type="curve" smooth="yes"/>
      <point x="928" y="-258"/>
      <point x="942" y="-57"/>
      <point x="1133" y="-57" type="curve" smooth="yes"/>
      <point x="1218" y="-57"/>
      <point x="1302" y="-146"/>
      <point x="1302" y="-272" type="curve" smooth="yes"/>
      <point x="1302" y="-392"/>
      <point x="1194" y="-497"/>
      <point x="1078" y="-497" type="curve" smooth="yes"/>
      <point x="1068" y="-497"/>
      <point x="1006" y="-486"/>
      <point x="996" y="-486" type="curve" smooth="yes"/>
      <point x="979" y="-486"/>
      <point x="960" y="-497"/>
      <point x="960" y="-516" type="curve" smooth="yes"/>
      <point x="960" y="-569"/>
      <point x="1064" y="-671"/>
      <point x="1098" y="-671" type="curve" smooth="yes"/>
      <point x="1269" y="-671"/>
      <point x="1404" y="-521"/>
      <point x="1404" y="-348" type="curve" smooth="yes"/>
    </contour>
    <contour>
      <point x="613" y="1257" type="move" name="bin"/>
    </contour>
    <contour>
      <point x="1079" y="-569" type="move" name="bottom"/>
    </contour>
    <contour>
      <point x="1300" y="1257" type="move" name="top"/>
    </contour>
  </outline>
</glyph>
<glyph name="circumflexcomb_acutecomb.cap" format="1">
  <advance width="0"/>
  <outline>
    <contour>
      <point x="4" y="1485" type="curve" name="hr00"/>
      <point x="94" y="1435"/>
      <point x="169" y="1280"/>
      <point x="223" y="1280" type="curve" smooth="yes"/>
      <point x="282" y="1280"/>
      <point x="326" y="1343"/>
      <point x="326" y="1390" type="curve" smooth="yes"/>
      <point x="326" y="1443"/>
      <point x="222" y="1496"/>
      <point x="175" y="1546" type="curve" smooth="yes"/>
      <point x="130" y="1594"/>
      <point x="74" y="1670"/>
      <point x="18" y="1670" type="curve" smooth="yes"/>
      <point x="-59" y="1670"/>
      <point x="-139" y="1598"/>
      <point x="-275" y="1487" type="curve"/>
      <point x="-295" y="1475"/>
      <point x="-324" y="1451"/>
      <point x="-324" y="1412" type="curve" smooth="yes"/>
      <point x="-324" y="1340"/>
      <point x="-287" y="1309"/>
      <point x="-254" y="1309" type="curve" smooth="yes"/>
      <point x="-169" y="1309"/>
      <point x="-74" y="1431"/>
    </contour>
    <contour>
      <point x="270" y="1577" type="curve"/>
      <point x="334" y="1577"/>
      <point x="565" y="1697"/>
      <point x="565" y="1823" type="curve" smooth="yes"/>
      <point x="565" y="1884"/>
      <point x="533" y="1907"/>
      <point x="492" y="1907" type="curve" smooth="yes"/>
      <point x="431" y="1907"/>
      <point x="349" y="1780"/>
      <point x="258" y="1725" type="curve" smooth="yes"/>
      <point x="223" y="1703"/>
      <point x="210" y="1672"/>
      <point x="210" y="1624" type="curve" smooth="yes"/>
      <point x="210" y="1561"/>
      <point x="270" y="1577"/>
    </contour>
    <contour>
      <point x="0" y="1515" type="move" name="_top"/>
    </contour>
  </outline>
</glyph>
<glyph name="circumflexcomb_gravecomb.cap" format="1">
  <advance width="0"/>
  <outline>
    <contour>
      <point x="4" y="1506" type="curve" name="hr00"/>
      <point x="94" y="1454"/>
      <point x="169" y="1320"/>
      <point x="223" y="1320" type="curve" smooth="yes"/>
      <point x="282" y="1320"/>
      <point x="326" y="1384"/>
      <point x="326" y="1431" type="curve" smooth="yes"/>
      <point x="326" y="1484"/>
      <point x="222" y="1516"/>
      <point x="175" y="1567" type="curve" smooth="yes"/>
      <point x="130" y="1614"/>
      <point x="74" y="1691"/>
      <point x="18" y="1691" type="curve" smooth="yes"/>
      <point x="-59" y="1691"/>
      <point x="-139" y="1618"/>
      <point x="-275" y="1528" type="curve"/>
      <point x="-295" y="1516"/>
      <point x="-324" y="1491"/>
      <point x="-324" y="1453" type="curve" smooth="yes"/>
      <point x="-324" y="1381"/>
      <point x="-287" y="1350"/>
      <point x="-254" y="1350" type="curve" smooth="yes"/>
      <point x="-169" y="1350"/>
      <point x="-74" y="1451"/>
    </contour>
    <contour>
      <point x="458" y="1515" type="curve"/>
      <point x="458" y="1515"/>
      <point x="461" y="1515"/>
      <point x="463" y="1515" type="curve" smooth="yes"/>
      <point x="473" y="1515"/>
      <point x="526" y="1525"/>
      <point x="526" y="1598" type="curve" smooth="yes"/>
      <point x="526" y="1630"/>
      <point x="511" y="1659"/>
      <point x="491" y="1683" type="curve" smooth="yes"/>
      <point x="403" y="1788"/>
      <point x="329" y="1933"/>
      <point x="256" y="1933" type="curve" smooth="yes"/>
      <point x="229" y="1933"/>
      <point x="183" y="1909"/>
      <point x="183" y="1847" type="curve" smooth="yes"/>
      <point x="183" y="1723"/>
      <point x="403" y="1534"/>
    </contour>
    <contour>
      <point x="0" y="1515" type="move" name="_top"/>
    </contour>
  </outline>
</glyph>
<glyph name="d_ga-deva" format="1">
  <advance width="1253"/>
  <outline>
    <contour>
      <point x="-20" y="1123" type="line"/>
      <point x="930" y="1123" type="line"/>
      <point x="936" y="1092"/>
      <point x="936" y="993"/>
      <point x="936" y="968" type="curve" smooth="yes"/>
      <point x="936" y="843"/>
      <point x="895" y="815"/>
      <point x="590" y="815" type="curve" smooth="yes"/>
      <point x="309" y="815"/>
      <point x="116" y="678"/>
      <point x="116" y="462" type="curve" smooth="yes"/>
      <point x="116" y="250"/>
      <point x="215" y="124"/>
      <point x="371" y="39" type="curve"/>
      <point x="373" y="-124" type="line"/>
      <point x="368" y="-124" type="line" smooth="yes"/>
      <point x="319" y="-113"/>
      <point x="289" y="-104"/>
      <point x="277" y="-104" type="curve" smooth="yes"/>
      <point x="215" y="-104"/>
      <point x="155" y="-173"/>
      <point x="155" y="-266" type="curve" smooth="yes"/>
      <point x="155" y="-391"/>
      <point x="293" y="-547"/>
      <point x="411" y="-547" type="curve" smooth="yes"/>
      <point x="552" y="-547"/>
      <point x="508" y="-347"/>
      <point x="578" y="-347" type="curve" smooth="yes"/>
      <point x="592" y="-347"/>
      <point x="625" y="-373"/>
      <point x="635" y="-373" type="curve" smooth="yes"/>
      <point x="647" y="-373"/>
      <point x="660" y="-359"/>
      <point x="660" y="-338" type="curve" smooth="yes"/>
      <point x="660" y="-313"/>
      <point x="616" y="-273"/>
      <point x="533" y="-228" type="curve"/>
      <point x="532" y="-35" type="line"/>
      <point x="535" y="-35" type="line" smooth="yes"/>
      <point x="547" y="-39"/>
      <point x="571" y="-43"/>
      <point x="623" y="-43" type="curve" smooth="yes"/>
      <point x="674" y="-43" type="line" smooth="yes"/>
      <point x="679" y="-43"/>
      <point x="697" y="-41"/>
      <point x="722" y="-35" type="curve"/>
      <point x="825" y="-14" type="line"/>
      <point x="955" y="-287"/>
      <point x="978" y="-342"/>
      <point x="1031" y="-342" type="curve" smooth="yes"/>
      <point x="1054" y="-342"/>
      <point x="1078" y="-322"/>
      <point x="1078" y="-284" type="curve" smooth="yes"/>
      <point x="1078" y="-230"/>
      <point x="1025" y="-253"/>
      <point x="938" y="14" type="curve"/>
      <point x="1044" y="60"/>
      <point x="1094" y="160"/>
      <point x="1094" y="273" type="curve" smooth="yes"/>
      <point x="1094" y="397"/>
      <point x="1008" y="517"/>
      <point x="913" y="517" type="curve" smooth="yes"/>
      <point x="802" y="517"/>
      <point x="726" y="421"/>
      <point x="726" y="307" type="curve" smooth="yes"/>
      <point x="726" y="260"/>
      <point x="734" y="208"/>
      <point x="747" y="155" type="curve"/>
      <point x="745" y="155" type="line"/>
      <point x="697" y="136"/>
      <point x="647" y="129"/>
      <point x="570" y="129" type="curve" smooth="yes"/>
      <point x="394" y="129"/>
      <point x="253" y="198"/>
      <point x="253" y="354" type="curve" smooth="yes"/>
      <point x="253" y="526"/>
      <point x="437" y="660"/>
      <point x="647" y="660" type="curve" smooth="yes"/>
      <point x="815" y="660" type="line" smooth="yes"/>
      <point x="968" y="660"/>
      <point x="1074" y="750"/>
      <point x="1074" y="866" type="curve" smooth="yes"/>
      <point x="1074" y="1028"/>
      <point x="1078" y="1123"/>
      <point x="1099" y="1123" type="curve" smooth="yes"/>
      <point x="1273" y="1123" type="line"/>
      <point x="1273" y="1264" type="line"/>
      <point x="1119" y="1264" type="line"/>
      <point x="1083" y="1312"/>
      <point x="1031" y="1375"/>
      <point x="990" y="1375" type="curve" smooth="yes"/>
      <point x="967" y="1375"/>
      <point x="938" y="1320"/>
      <point x="932" y="1264" type="curve"/>
      <point x="-20" y="1264" type="line"/>
    </contour>
    <contour>
      <point x="866" y="195" type="line"/>
      <point x="856" y="223"/>
      <point x="846" y="270"/>
      <point x="846" y="322" type="curve" smooth="yes"/>
      <point x="846" y="368"/>
      <point x="877" y="406"/>
      <point x="926" y="406" type="curve" smooth="yes"/>
      <point x="958" y="406"/>
      <point x="977" y="367"/>
      <point x="977" y="322" type="curve" smooth="yes"/>
      <point x="977" y="263"/>
      <point x="938" y="200"/>
      <point x="871" y="195" type="curve" smooth="yes"/>
    </contour>
    <contour>
      <point x="292" y="-232" type="curve" smooth="yes"/>
      <point x="329" y="-232"/>
      <point x="377" y="-270"/>
      <point x="377" y="-320" type="curve" smooth="yes"/>
      <point x="377" y="-347"/>
      <point x="329" y="-392"/>
      <point x="307" y="-392" type="curve" smooth="yes"/>
      <point x="260" y="-392"/>
      <point x="228" y="-347"/>
      <point x="228" y="-303" type="curve" smooth="yes"/>
      <point x="228" y="-270"/>
      <point x="260" y="-232"/>
    </contour>
    <contour>
      <point x="600" y="1257" type="move" name="bin"/>
    </contour>
    <contour>
      <point x="1025" y="-307" type="move" name="bottom"/>
    </contour>
    <contour>
      <point x="1016" y="1257" type="move" name="top"/>
    </contour>
  </outline>
</glyph>
<glyph name="d_gha-deva" format="1">
  <advance width="1555"/>
  <outline>
    <contour>
      <point x="-20" y="1123" type="line"/>
      <point x="1191" y="1123" type="line"/>
      <point x="1194" y="1033" type="line"/>
      <point x="1194" y="907"/>
      <point x="1168" y="881"/>
      <point x="871" y="881" type="curve" smooth="yes"/>
      <point x="586" y="881"/>
      <point x="397" y="740"/>
      <point x="397" y="528" type="curve" smooth="yes"/>
      <point x="397" y="347"/>
      <point x="476" y="189"/>
      <point x="596" y="95" type="curve"/>
      <point x="535" y="76"/>
      <point x="476" y="33"/>
      <point x="436" y="-43" type="curve"/>
      <point x="431" y="-43" type="line" smooth="yes"/>
      <point x="322" y="-18"/>
      <point x="205" y="81"/>
      <point x="205" y="181" type="curve"/>
      <point x="229" y="150"/>
      <point x="253" y="150"/>
      <point x="254" y="150" type="curve" smooth="yes"/>
      <point x="301" y="150"/>
      <point x="339" y="212"/>
      <point x="339" y="289" type="curve" smooth="yes"/>
      <point x="339" y="354"/>
      <point x="260" y="439"/>
      <point x="212" y="439" type="curve" smooth="yes"/>
      <point x="120" y="439"/>
      <point x="79" y="384"/>
      <point x="79" y="254" type="curve" smooth="yes"/>
      <point x="79" y="45"/>
      <point x="238" y="-76"/>
      <point x="403" y="-89" type="curve" smooth="yes"/>
      <point x="408" y="-89" type="line"/>
      <point x="397" y="-167" type="line"/>
      <point x="397" y="-313"/>
      <point x="535" y="-421"/>
      <point x="694" y="-421" type="curve" smooth="yes"/>
      <point x="881" y="-421"/>
      <point x="1057" y="-277"/>
      <point x="1111" y="-66" type="curve"/>
      <point x="1119" y="-66" type="line"/>
      <point x="1237" y="-299"/>
      <point x="1272" y="-342"/>
      <point x="1315" y="-342" type="curve" smooth="yes"/>
      <point x="1330" y="-342"/>
      <point x="1355" y="-322"/>
      <point x="1355" y="-284" type="curve" smooth="yes"/>
      <point x="1355" y="-237"/>
      <point x="1337" y="-284"/>
      <point x="1248" y="-76" type="curve"/>
      <point x="1209" y="14" type="line"/>
      <point x="1211" y="14" type="line"/>
      <point x="1318" y="60"/>
      <point x="1386" y="160"/>
      <point x="1386" y="273" type="curve" smooth="yes"/>
      <point x="1386" y="397"/>
      <point x="1291" y="517"/>
      <point x="1184" y="517" type="curve" smooth="yes"/>
      <point x="1087" y="517"/>
      <point x="1002" y="421"/>
      <point x="1002" y="307" type="curve" smooth="yes"/>
      <point x="1002" y="260"/>
      <point x="1015" y="208"/>
      <point x="1033" y="155" type="curve"/>
      <point x="1031" y="155" type="line"/>
      <point x="978" y="136"/>
      <point x="932" y="129"/>
      <point x="856" y="129" type="curve" smooth="yes"/>
      <point x="681" y="129"/>
      <point x="535" y="263"/>
      <point x="535" y="421" type="curve" smooth="yes"/>
      <point x="535" y="592"/>
      <point x="719" y="722"/>
      <point x="936" y="722" type="curve" smooth="yes"/>
      <point x="1099" y="722" type="line" smooth="yes"/>
      <point x="1425" y="722"/>
      <point x="1297" y="1123"/>
      <point x="1351" y="1123" type="curve" smooth="yes"/>
      <point x="1575" y="1123" type="line"/>
      <point x="1575" y="1264" type="line"/>
      <point x="1377" y="1264" type="line"/>
      <point x="1310" y="1343"/>
      <point x="1297" y="1381"/>
      <point x="1241" y="1381" type="curve" smooth="yes"/>
      <point x="1204" y="1381"/>
      <point x="1196" y="1320"/>
      <point x="1192" y="1264" type="curve"/>
      <point x="-20" y="1264" type="line"/>
    </contour>
    <contour>
      <point x="1149" y="195" type="line"/>
      <point x="1142" y="223"/>
      <point x="1129" y="270"/>
      <point x="1129" y="322" type="curve" smooth="yes"/>
      <point x="1129" y="368"/>
      <point x="1157" y="406"/>
      <point x="1192" y="406" type="curve" smooth="yes"/>
      <point x="1231" y="406"/>
      <point x="1264" y="367"/>
      <point x="1264" y="322" type="curve" smooth="yes"/>
      <point x="1264" y="263"/>
      <point x="1209" y="200"/>
      <point x="1154" y="195" type="curve" smooth="yes"/>
    </contour>
    <contour>
      <point x="641" y="-311" type="curve" smooth="yes"/>
      <point x="580" y="-311"/>
      <point x="537" y="-273"/>
      <point x="537" y="-225" type="curve" smooth="yes"/>
      <point x="537" y="-134"/>
      <point x="621" y="-53"/>
      <point x="736" y="-5" type="curve"/>
      <point x="765" y="-12" type="line" smooth="yes"/>
      <point x="829" y="-29"/>
      <point x="884" y="-41"/>
      <point x="938" y="-43" type="curve" smooth="yes"/>
      <point x="944" y="-43"/>
      <point x="949" y="-43"/>
      <point x="958" y="-43" type="curve" smooth="yes"/>
      <point x="960" y="-43" type="line"/>
      <point x="905" y="-210"/>
      <point x="767" y="-311"/>
    </contour>
  </outline>
</glyph>
<glyph name="d_ra-deva" format="1">
  <advance width="1258"/>
  <outline>
    <contour>
      <point x="127" y="-337"/>
      <point x="101" y="-361"/>
      <point x="101" y="-391" type="curve" smooth="yes"/>
      <point x="101" y="-409"/>
      <point x="241" y="-508"/>
      <point x="273" y="-508" type="curve" smooth="yes"/>
      <point x="316" y="-508"/>
      <point x="379" y="-456"/>
      <point x="559" y="-297" type="curve"/>
      <point x="666" y="-195"/>
      <point x="747" y="-106"/>
      <point x="775" y="-67" type="curve"/>
      <point x="711" y="0" type="line"/>
      <point x="418" y="-226"/>
      <point x="326" y="-337"/>
      <point x="163" y="-337" type="curve" smooth="yes"/>
    </contour>
    <component base="da-deva"/>
    <contour>
      <point x="601" y="1257" type="move" name="bin"/>
    </contour>
    <contour>
      <point x="968" y="-277" type="move" name="bottom"/>
    </contour>
    <contour>
      <point x="943" y="1257" type="move" name="top"/>
    </contour>
  </outline>
</glyph>
<glyph name="d_ya-deva" format="1">
  <advance width="1529"/>
  <outline>
    <contour>
      <point x="-33" y="1123" type="line"/>
      <point x="664" y="1123" type="line"/>
      <point x="664" y="987" type="line"/>
      <point x="515" y="987" type="line" smooth="yes"/>
      <point x="307" y="987"/>
      <point x="173" y="884"/>
      <point x="173" y="753" type="curve" smooth="yes"/>
      <point x="173" y="681"/>
      <point x="215" y="595"/>
      <point x="289" y="532" type="curve"/>
      <point x="205" y="497"/>
      <point x="139" y="436"/>
      <point x="139" y="374" type="curve" smooth="yes"/>
      <point x="139" y="187"/>
      <point x="374" y="14"/>
      <point x="626" y="14" type="curve" smooth="yes"/>
      <point x="841" y="14"/>
      <point x="1018" y="85"/>
      <point x="1174" y="195" type="curve"/>
      <point x="1174" y="114"/>
      <point x="1139" y="36"/>
      <point x="1099" y="-12" type="curve"/>
      <point x="1083" y="-12"/>
      <point x="1070" y="-26"/>
      <point x="1070" y="-53" type="curve" smooth="yes"/>
      <point x="1070" y="-81"/>
      <point x="1176" y="-120"/>
      <point x="1221" y="-120" type="curve" smooth="yes"/>
      <point x="1307" y="-120"/>
      <point x="1343" y="20"/>
      <point x="1343" y="183" type="curve" smooth="yes"/>
      <point x="1343" y="315"/>
      <point x="1315" y="773"/>
      <point x="1315" y="899" type="curve" smooth="yes"/>
      <point x="1315" y="1003"/>
      <point x="1317" y="1123"/>
      <point x="1330" y="1123" type="curve" smooth="yes"/>
      <point x="1549" y="1123" type="line"/>
      <point x="1549" y="1264" type="line"/>
      <point x="1345" y="1264" type="line"/>
      <point x="1288" y="1328"/>
      <point x="1246" y="1388"/>
      <point x="1211" y="1388" type="curve" smooth="yes"/>
      <point x="1178" y="1388"/>
      <point x="1162" y="1341"/>
      <point x="1162" y="1264" type="curve"/>
      <point x="839" y="1264" type="line"/>
      <point x="753" y="1363"/>
      <point x="743" y="1388"/>
      <point x="732" y="1388" type="curve" smooth="yes"/>
      <point x="681" y="1388"/>
      <point x="664" y="1325"/>
      <point x="664" y="1264" type="curve"/>
      <point x="-33" y="1264" type="line"/>
    </contour>
    <contour>
      <point x="413" y="175" type="line" smooth="yes"/>
      <point x="332" y="175"/>
      <point x="268" y="218"/>
      <point x="268" y="287" type="curve" smooth="yes"/>
      <point x="268" y="356"/>
      <point x="364" y="426"/>
      <point x="661" y="426" type="curve"/>
      <point x="726" y="399"/>
      <point x="765" y="381"/>
      <point x="775" y="381" type="curve" smooth="yes"/>
      <point x="820" y="381"/>
      <point x="859" y="431"/>
      <point x="859" y="489" type="curve" smooth="yes"/>
      <point x="859" y="552"/>
      <point x="777" y="596"/>
      <point x="702" y="596" type="curve" smooth="yes"/>
      <point x="518" y="596"/>
      <point x="400" y="588"/>
      <point x="354" y="567" type="curve"/>
      <point x="349" y="567" type="line"/>
      <point x="324" y="596"/>
      <point x="309" y="629"/>
      <point x="309" y="652" type="curve" smooth="yes"/>
      <point x="309" y="732"/>
      <point x="397" y="805"/>
      <point x="540" y="805" type="curve" smooth="yes"/>
      <point x="712" y="805" type="line" smooth="yes"/>
      <point x="783" y="805"/>
      <point x="805" y="844"/>
      <point x="805" y="914" type="curve" smooth="yes"/>
      <point x="805" y="994" type="line" smooth="yes"/>
      <point x="805" y="1107"/>
      <point x="812" y="1123"/>
      <point x="839" y="1123" type="curve" smooth="yes"/>
      <point x="1162" y="1123" type="line"/>
      <point x="1162" y="1013" type="line" smooth="yes"/>
      <point x="1162" y="895"/>
      <point x="1181" y="502"/>
      <point x="1181" y="392" type="curve"/>
      <point x="1121" y="458" type="line"/>
      <point x="1054" y="313"/>
      <point x="831" y="175"/>
      <point x="598" y="175" type="curve" smooth="yes"/>
    </contour>
    <contour>
      <point x="726" y="1340" type="move" name="bin"/>
    </contour>
    <contour>
      <point x="1206" y="-55" type="move" name="bottom"/>
    </contour>
    <contour>
      <point x="1248" y="1257" type="move" name="top"/>
    </contour>
  </outline>
</glyph>
<glyph name="dd_tta-deva" format="1">
  <advance width="1347"/>
  <outline>
    <contour>
      <point x="1083" y="105"/>
      <point x="1236" y="208"/>
      <point x="1236" y="347" type="curve" smooth="yes"/>
      <point x="1236" y="501"/>
      <point x="1094" y="626"/>
      <point x="955" y="626" type="curve" smooth="yes"/>
      <point x="877" y="626"/>
      <point x="607" y="571"/>
      <point x="528" y="571" type="curve" smooth="yes"/>
      <point x="463" y="571"/>
      <point x="400" y="605"/>
      <point x="400" y="649" type="curve" smooth="yes"/>
      <point x="400" y="705"/>
      <point x="491" y="775"/>
      <point x="602" y="775" type="curve" smooth="yes"/>
      <point x="1050" y="775" type="line" smooth="yes"/>
      <point x="1064" y="775"/>
      <point x="1083" y="792"/>
      <point x="1083" y="818" type="curve" smooth="yes"/>
      <point x="1083" y="859"/>
      <point x="1054" y="907"/>
      <point x="1054" y="930" type="curve" smooth="yes"/>
      <point x="1054" y="1064"/>
      <point x="1057" y="1123"/>
      <point x="1064" y="1123" type="curve" smooth="yes"/>
      <point x="1367" y="1123" type="line"/>
      <point x="1367" y="1264" type="line"/>
      <point x="1080" y="1264" type="line"/>
      <point x="994" y="1361"/>
      <point x="978" y="1360"/>
      <point x="955" y="1360" type="curve" smooth="yes"/>
      <point x="922" y="1360"/>
      <point x="894" y="1341"/>
      <point x="894" y="1264" type="curve"/>
      <point x="-20" y="1264" type="line"/>
      <point x="-20" y="1123" type="line"/>
      <point x="913" y="1123" type="line"/>
      <point x="913" y="1002"/>
      <point x="904" y="946"/>
      <point x="877" y="946" type="curve" smooth="yes"/>
      <point x="592" y="946" type="line" smooth="yes"/>
      <point x="429" y="946"/>
      <point x="287" y="850"/>
      <point x="287" y="747" type="curve" smooth="yes"/>
      <point x="287" y="600"/>
      <point x="462" y="427"/>
      <point x="626" y="427" type="curve" smooth="yes"/>
      <point x="697" y="427"/>
      <point x="944" y="492"/>
      <point x="1028" y="492" type="curve" smooth="yes"/>
      <point x="1068" y="492"/>
      <point x="1111" y="462"/>
      <point x="1111" y="427" type="curve" smooth="yes"/>
      <point x="1111" y="332"/>
      <point x="967" y="248"/>
      <point x="777" y="248" type="curve" smooth="yes"/>
      <point x="523" y="248"/>
      <point x="297" y="344"/>
      <point x="136" y="505" type="curve"/>
      <point x="134" y="505" type="line"/>
      <point x="116" y="532"/>
      <point x="85" y="550"/>
      <point x="79" y="550" type="curve" smooth="yes"/>
      <point x="66" y="550"/>
      <point x="55" y="511"/>
      <point x="55" y="478" type="curve"/>
      <point x="220" y="254"/>
      <point x="489" y="105"/>
      <point x="809" y="105" type="curve" smooth="yes"/>
    </contour>
    <contour>
      <point x="867" y="155" type="line"/>
      <point x="867" y="-11" type="line" smooth="yes"/>
      <point x="867" y="-41"/>
      <point x="820" y="-62"/>
      <point x="784" y="-62" type="curve" smooth="yes"/>
      <point x="591" y="-62" type="line" smooth="yes"/>
      <point x="379" y="-62"/>
      <point x="239" y="-179"/>
      <point x="239" y="-359" type="curve" smooth="yes"/>
      <point x="239" y="-598"/>
      <point x="474" y="-742"/>
      <point x="768" y="-742" type="curve" smooth="yes"/>
      <point x="979" y="-742"/>
      <point x="1147" y="-672"/>
      <point x="1147" y="-575" type="curve" smooth="yes"/>
      <point x="1147" y="-513"/>
      <point x="1102" y="-448"/>
      <point x="1060" y="-448" type="curve" smooth="yes"/>
      <point x="1058" y="-448"/>
      <point x="1040" y="-454"/>
      <point x="1005" y="-472" type="curve"/>
      <point x="989" y="-489" type="line"/>
      <point x="883" y="-544"/>
      <point x="771" y="-575"/>
      <point x="665" y="-575" type="curve" smooth="yes"/>
      <point x="437" y="-575"/>
      <point x="358" y="-536"/>
      <point x="358" y="-414" type="curve" smooth="yes"/>
      <point x="358" y="-305"/>
      <point x="503" y="-235"/>
      <point x="698" y="-235" type="curve" smooth="yes"/>
      <point x="847" y="-235" type="line" smooth="yes"/>
      <point x="920" y="-235"/>
      <point x="1001" y="-156"/>
      <point x="1001" y="-62" type="curve" smooth="yes"/>
      <point x="1002" y="155" type="line"/>
    </contour>
  </outline>
</glyph>
<glyph name="eMatra_reph_anusvara-deva" format="1">
  <advance width="540"/>
  <outline>
    <component base="eMatra-deva"/>
    <component base="reph_anusvara-deva" xOffset="69"/>
    <contour>
      <point x="774" y="1369" type="move" name="bin"/>
    </contour>
    <contour>
      <point x="232" y="1258" type="move" name="_top"/>
    </contour>
  </outline>
</glyph>
<glyph name="gh-deva" format="1">
  <advance width="1097"/>
  <outline>
    <contour>
      <point x="-20" y="1123" type="line"/>
      <point x="279" y="1123" type="line"/>
      <point x="203" y="1052"/>
      <point x="157" y="973"/>
      <point x="157" y="899" type="curve" smooth="yes"/>
      <point x="157" y="825"/>
      <point x="225" y="760"/>
      <point x="303" y="710" type="curve"/>
      <point x="215" y="649"/>
      <point x="149" y="542"/>
      <point x="149" y="431" type="curve" smooth="yes"/>
      <point x="149" y="279"/>
      <point x="443" y="63"/>
      <point x="626" y="63" type="curve" smooth="yes"/>
      <point x="753" y="63"/>
      <point x="926" y="144"/>
      <point x="1078" y="297" type="curve"/>
      <point x="1078" y="489" type="line"/>
      <point x="1031" y="544" type="line"/>
      <point x="1035" y="537" type="line"/>
      <point x="1028" y="544"/>
      <point x="1023" y="547"/>
      <point x="1020" y="547" type="curve" smooth="yes"/>
      <point x="1008" y="547"/>
      <point x="987" y="507"/>
      <point x="973" y="454" type="curve"/>
      <point x="891" y="317"/>
      <point x="696" y="208"/>
      <point x="526" y="208" type="curve" smooth="yes"/>
      <point x="347" y="208"/>
      <point x="263" y="266"/>
      <point x="263" y="374" type="curve" smooth="yes"/>
      <point x="263" y="476"/>
      <point x="456" y="623"/>
      <point x="555" y="623" type="curve" smooth="yes"/>
      <point x="565" y="623"/>
      <point x="592" y="616"/>
      <point x="619" y="610" type="curve"/>
      <point x="621" y="610" type="line"/>
      <point x="645" y="602"/>
      <point x="661" y="596"/>
      <point x="671" y="596" type="curve" smooth="yes"/>
      <point x="697" y="596"/>
      <point x="719" y="621"/>
      <point x="719" y="652" type="curve" smooth="yes"/>
      <point x="719" y="760"/>
      <point x="676" y="805"/>
      <point x="567" y="805" type="curve" smooth="yes"/>
      <point x="563" y="805"/>
      <point x="557" y="804"/>
      <point x="552" y="800" type="curve"/>
      <point x="439" y="771" type="line" smooth="yes"/>
      <point x="423" y="767"/>
      <point x="406" y="767"/>
      <point x="403" y="767" type="curve" smooth="yes"/>
      <point x="352" y="767"/>
      <point x="319" y="790"/>
      <point x="319" y="831" type="curve" smooth="yes"/>
      <point x="319" y="932"/>
      <point x="462" y="1052"/>
      <point x="555" y="1052" type="curve" smooth="yes"/>
      <point x="588" y="1052"/>
      <point x="623" y="1083"/>
      <point x="623" y="1123" type="curve"/>
      <point x="1117" y="1123" type="line"/>
      <point x="1117" y="1264" type="line"/>
      <point x="-20" y="1264" type="line"/>
    </contour>
  </outline>
</glyph>
<glyph name="grave.cap" format="1">
  <advance width="408"/>
  <outline>
    <contour>
      <point x="324" y="1299" type="curve"/>
      <point x="324" y="1299"/>
      <point x="367" y="1302"/>
      <point x="367" y="1365" type="curve" smooth="yes"/>
      <point x="367" y="1414"/>
      <point x="332" y="1444"/>
      <point x="297" y="1467" type="curve" smooth="yes"/>
      <point x="205" y="1522"/>
      <point x="84" y="1628"/>
      <point x="23" y="1628" type="curve" smooth="yes"/>
      <point x="-20" y="1628"/>
      <point x="-53" y="1606"/>
      <point x="-53" y="1544" type="curve" smooth="yes"/>
      <point x="-53" y="1417"/>
      <point x="260" y="1299"/>
    </contour>
    <contour>
      <point x="144" y="1429" type="move" name="_top"/>
    </contour>
  </outline>
</glyph>
<glyph name="h_ya-deva" format="1">
  <advance width="1881"/>
  <outline>
    <contour>
      <point x="-8" y="1123" type="line"/>
      <point x="805" y="1123" type="line"/>
      <point x="818" y="1093"/>
      <point x="822" y="1070"/>
      <point x="822" y="1040" type="curve" smooth="yes"/>
      <point x="822" y="987"/>
      <point x="777" y="942"/>
      <point x="734" y="942" type="curve" smooth="yes"/>
      <point x="679" y="942"/>
      <point x="499" y="973"/>
      <point x="448" y="973" type="curve" smooth="yes"/>
      <point x="317" y="973"/>
      <point x="205" y="895"/>
      <point x="205" y="805" type="curve" smooth="yes"/>
      <point x="205" y="702"/>
      <point x="283" y="596"/>
      <point x="394" y="557" type="curve"/>
      <point x="243" y="502"/>
      <point x="119" y="377"/>
      <point x="119" y="232" type="curve" smooth="yes"/>
      <point x="119" y="-110"/>
      <point x="436" y="-392"/>
      <point x="802" y="-392" type="curve" smooth="yes"/>
      <point x="904" y="-392"/>
      <point x="988" y="-352"/>
      <point x="988" y="-287" type="curve" smooth="yes"/>
      <point x="988" y="-250"/>
      <point x="958" y="-222"/>
      <point x="930" y="-222" type="curve" smooth="yes"/>
      <point x="881" y="-222"/>
      <point x="753" y="-263"/>
      <point x="716" y="-263" type="curve" smooth="yes"/>
      <point x="495" y="-263"/>
      <point x="301" y="-89"/>
      <point x="301" y="129" type="curve" smooth="yes"/>
      <point x="301" y="311"/>
      <point x="497" y="462"/>
      <point x="729" y="483" type="curve"/>
      <point x="856" y="481"/>
      <point x="968" y="443"/>
      <point x="998" y="387" type="curve"/>
      <point x="994" y="387" type="line"/>
      <point x="829" y="337"/>
      <point x="705" y="203"/>
      <point x="705" y="76" type="curve" smooth="yes"/>
      <point x="705" y="-43"/>
      <point x="834" y="-130"/>
      <point x="993" y="-130" type="curve" smooth="yes"/>
      <point x="1159" y="-130"/>
      <point x="1341" y="-25"/>
      <point x="1475" y="155" type="curve"/>
      <point x="1485" y="155" type="line"/>
      <point x="1485" y="74"/>
      <point x="1470" y="-10"/>
      <point x="1426" y="-39" type="curve"/>
      <point x="1425" y="-39" type="line"/>
      <point x="1406" y="-39"/>
      <point x="1396" y="-68"/>
      <point x="1396" y="-95" type="curve" smooth="yes"/>
      <point x="1396" y="-129"/>
      <point x="1516" y="-210"/>
      <point x="1561" y="-210" type="curve" smooth="yes"/>
      <point x="1625" y="-210"/>
      <point x="1672" y="-12"/>
      <point x="1672" y="195" type="curve" smooth="yes"/>
      <point x="1672" y="337"/>
      <point x="1646" y="812"/>
      <point x="1646" y="955" type="curve" smooth="yes"/>
      <point x="1646" y="1052"/>
      <point x="1651" y="1123"/>
      <point x="1681" y="1123" type="curve" smooth="yes"/>
      <point x="1901" y="1123" type="line"/>
      <point x="1901" y="1264" type="line"/>
      <point x="1701" y="1264" type="line"/>
      <point x="1660" y="1325"/>
      <point x="1608" y="1412"/>
      <point x="1555" y="1412" type="curve" smooth="yes"/>
      <point x="1504" y="1412"/>
      <point x="1471" y="1372"/>
      <point x="1471" y="1330" type="curve" smooth="yes"/>
      <point x="1471" y="1264" type="line"/>
      <point x="999" y="1264" type="line"/>
      <point x="922" y="1332"/>
      <point x="891" y="1372"/>
      <point x="853" y="1372" type="curve" smooth="yes"/>
      <point x="820" y="1372"/>
      <point x="781" y="1320"/>
      <point x="781" y="1264" type="curve"/>
      <point x="-8" y="1264" type="line"/>
    </contour>
    <contour>
      <point x="1005" y="1123" type="curve"/>
      <point x="1471" y="1123" type="line"/>
      <point x="1471" y="1070"/>
      <point x="1467" y="1023"/>
      <point x="1467" y="973" type="curve" smooth="yes"/>
      <point x="1467" y="881"/>
      <point x="1480" y="600"/>
      <point x="1485" y="489" type="curve"/>
      <point x="1340" y="208"/>
      <point x="1133" y="-2"/>
      <point x="968" y="-2" type="curve" smooth="yes"/>
      <point x="871" y="-2"/>
      <point x="798" y="36"/>
      <point x="798" y="91" type="curve" smooth="yes"/>
      <point x="798" y="254"/>
      <point x="1162" y="179"/>
      <point x="1162" y="337" type="curve" smooth="yes"/>
      <point x="1162" y="473"/>
      <point x="913" y="623"/>
      <point x="724" y="623" type="curve" smooth="yes"/>
      <point x="645" y="623"/>
      <point x="563" y="615"/>
      <point x="483" y="596" type="curve"/>
      <point x="481" y="596" type="line"/>
      <point x="426" y="616"/>
      <point x="387" y="661"/>
      <point x="387" y="710" type="curve" smooth="yes"/>
      <point x="387" y="773"/>
      <point x="468" y="818"/>
      <point x="547" y="818" type="curve" smooth="yes"/>
      <point x="616" y="818"/>
      <point x="833" y="790"/>
      <point x="905" y="790" type="curve" smooth="yes"/>
      <point x="958" y="790"/>
      <point x="993" y="822"/>
      <point x="993" y="885" type="curve" smooth="yes"/>
      <point x="993" y="924"/>
      <point x="973" y="1035"/>
      <point x="973" y="1066" type="curve" smooth="yes"/>
      <point x="973" y="1093"/>
      <point x="975" y="1123"/>
    </contour>
    <contour>
      <point x="853" y="1340" type="move" name="bin"/>
    </contour>
    <contour>
      <point x="1502" y="-154" type="move" name="bottom"/>
    </contour>
    <contour>
      <point x="1561" y="1257" type="move" name="top"/>
    </contour>
  </outline>
</glyph>
<glyph name="ha_uuMatra-deva" format="1">
  <advance width="1347"/>
  <outline>
    <contour>
      <point x="-23" y="1123" type="line"/>
      <point x="844" y="1123" type="line"/>
      <point x="850" y="1093"/>
      <point x="853" y="1070"/>
      <point x="853" y="1040" type="curve" smooth="yes"/>
      <point x="853" y="988"/>
      <point x="829" y="942"/>
      <point x="786" y="942" type="curve" smooth="yes"/>
      <point x="754" y="942"/>
      <point x="537" y="973"/>
      <point x="478" y="973" type="curve" smooth="yes"/>
      <point x="357" y="973"/>
      <point x="245" y="899"/>
      <point x="245" y="805" type="curve" smooth="yes"/>
      <point x="245" y="705"/>
      <point x="313" y="596"/>
      <point x="426" y="557" type="curve"/>
      <point x="300" y="533"/>
      <point x="219" y="486"/>
      <point x="219" y="362" type="curve" smooth="yes"/>
      <point x="219" y="156"/>
      <point x="461" y="29"/>
      <point x="903" y="29" type="curve" smooth="yes"/>
      <point x="990" y="29"/>
      <point x="1078" y="83"/>
      <point x="1078" y="110" type="curve" smooth="yes"/>
      <point x="1078" y="127"/>
      <point x="1049" y="168"/>
      <point x="1018" y="168" type="curve" smooth="yes"/>
      <point x="958" y="168"/>
      <point x="779" y="173"/>
      <point x="775" y="173" type="curve" smooth="yes"/>
      <point x="532" y="173"/>
      <point x="395" y="222"/>
      <point x="395" y="315" type="curve" smooth="yes"/>
      <point x="395" y="469"/>
      <point x="508" y="489"/>
      <point x="722" y="489" type="curve" smooth="yes"/>
      <point x="876" y="489"/>
      <point x="976" y="512"/>
      <point x="991" y="435" type="curve" smooth="yes"/>
      <point x="998" y="398" type="line"/>
      <point x="989" y="373"/>
      <point x="980" y="355"/>
      <point x="980" y="329" type="curve" smooth="yes"/>
      <point x="980" y="275"/>
      <point x="1057" y="281"/>
      <point x="1096" y="281" type="curve" smooth="yes"/>
      <point x="1126" y="281"/>
      <point x="1154" y="294"/>
      <point x="1154" y="392" type="curve" smooth="yes"/>
      <point x="1154" y="568"/>
      <point x="985" y="607"/>
      <point x="725" y="607" type="curve" smooth="yes"/>
      <point x="615" y="607"/>
      <point x="562" y="605"/>
      <point x="537" y="596" type="curve" smooth="yes"/>
      <point x="531" y="596" type="line" smooth="yes"/>
      <point x="457" y="621"/>
      <point x="404" y="666"/>
      <point x="404" y="710" type="curve" smooth="yes"/>
      <point x="404" y="771"/>
      <point x="491" y="818"/>
      <point x="575" y="818" type="curve" smooth="yes"/>
      <point x="643" y="818"/>
      <point x="843" y="790"/>
      <point x="907" y="790" type="curve" smooth="yes"/>
      <point x="973" y="790"/>
      <point x="1005" y="836"/>
      <point x="1005" y="899" type="curve" smooth="yes"/>
      <point x="1005" y="936"/>
      <point x="998" y="1035"/>
      <point x="998" y="1066" type="curve" smooth="yes"/>
      <point x="998" y="1092"/>
      <point x="1013" y="1123"/>
      <point x="1038" y="1123" type="curve" smooth="yes"/>
      <point x="1367" y="1123" type="line"/>
      <point x="1367" y="1264" type="line"/>
      <point x="1052" y="1264" type="line"/>
      <point x="973" y="1332"/>
      <point x="936" y="1372"/>
      <point x="897" y="1372" type="curve" smooth="yes"/>
      <point x="868" y="1372"/>
      <point x="844" y="1320"/>
      <point x="844" y="1264" type="curve"/>
      <point x="-23" y="1264" type="line"/>
    </contour>
    <contour>
      <point x="1194" y="-170" type="curve"/>
      <point x="1058" y="1"/>
      <point x="846" y="94"/>
      <point x="614" y="94" type="curve" smooth="yes"/>
      <point x="451" y="94"/>
      <point x="314" y="-33"/>
      <point x="314" y="-203" type="curve" smooth="yes"/>
      <point x="314" y="-376"/>
      <point x="449" y="-513"/>
      <point x="607" y="-513" type="curve" smooth="yes"/>
      <point x="699" y="-513"/>
      <point x="776" y="-489"/>
      <point x="815" y="-456" type="curve"/>
      <point x="773" y="-394"/>
      <point x="742" y="-306"/>
      <point x="706" y="-306" type="curve" smooth="yes"/>
      <point x="693" y="-306"/>
      <point x="605" y="-376"/>
      <point x="540" y="-376" type="curve" smooth="yes"/>
      <point x="459" y="-376"/>
      <point x="391" y="-299"/>
      <point x="391" y="-227" type="curve" smooth="yes"/>
      <point x="391" y="-132"/>
      <point x="505" y="-44"/>
      <point x="634" y="-44" type="curve" smooth="yes"/>
      <point x="877" y="-44"/>
      <point x="1066" y="-108"/>
      <point x="1169" y="-217" type="curve"/>
      <point x="1181" y="-217"/>
      <point x="1194" y="-179"/>
    </contour>
    <contour>
      <point x="461" y="1257" type="move" name="bin"/>
    </contour>
    <contour>
      <point x="607" y="-513" type="move" name="bottom"/>
    </contour>
    <contour>
      <point x="947" y="1257" type="move" name="top"/>
    </contour>
  </outline>
</glyph>
<glyph name="hookabovecomb.cap" format="1">
  <advance width="625"/>
  <outline>
    <contour>
      <point x="208" y="1699"/>
      <point x="208" y="1808" type="curve" smooth="yes"/>
      <point x="208" y="1858"/>
      <point x="258" y="1898"/>
      <point x="318" y="1898" type="curve" smooth="yes"/>
      <point x="386" y="1898"/>
      <point x="452" y="1869"/>
      <point x="477" y="1849" type="curve" smooth="yes"/>
      <point x="523" y="1813"/>
      <point x="558" y="1758"/>
      <point x="558" y="1708" type="curve" smooth="yes"/>
      <point x="558" y="1567"/>
      <point x="385" y="1440"/>
      <point x="268" y="1440" type="curve" smooth="yes"/>
      <point x="227" y="1440"/>
      <point x="200" y="1467"/>
      <point x="200" y="1505" type="curve" smooth="yes"/>
      <point x="200" y="1545"/>
      <point x="223" y="1559"/>
      <point x="260" y="1559" type="curve" smooth="yes"/>
      <point x="314" y="1559"/>
      <point x="372" y="1603"/>
      <point x="372" y="1649" type="curve" smooth="yes"/>
      <point x="372" y="1739"/>
    </contour>
    <contour>
      <point x="311" y="1515" type="move" name="_top"/>
    </contour>
  </outline>
</glyph>
<glyph name="iMatra-deva.0" format="1">
  <advance width="656"/>
  <outline>
    <contour>
      <point x="-20" y="1123" type="line"/>
      <point x="287" y="1123" type="line"/>
      <point x="287" y="283" type="line" smooth="yes"/>
      <point x="287" y="157"/>
      <point x="243" y="49"/>
      <point x="169" y="49" type="curve" smooth="yes"/>
      <point x="149" y="49"/>
      <point x="122" y="36"/>
      <point x="122" y="14" type="curve" smooth="yes"/>
      <point x="122" y="-29"/>
      <point x="240" y="-120"/>
      <point x="283" y="-120" type="curve" smooth="yes"/>
      <point x="363" y="-120"/>
      <point x="441" y="-2"/>
      <point x="441" y="142" type="curve" smooth="yes"/>
      <point x="441" y="955" type="line" smooth="yes"/>
      <point x="441" y="1050"/>
      <point x="481" y="1123"/>
      <point x="521" y="1123" type="curve" smooth="yes"/>
      <point x="678" y="1123" type="line"/>
      <point x="678" y="1264" type="line"/>
      <point x="450" y="1264" type="line"/>
      <point x="354" y="1286"/>
      <point x="299" y="1404"/>
      <point x="299" y="1520" type="curve" smooth="yes"/>
      <point x="299" y="1666"/>
      <point x="399" y="1785"/>
      <point x="528" y="1785" type="curve" smooth="yes"/>
      <point x="734" y="1785"/>
      <point x="863" y="1609"/>
      <point x="977" y="1355" type="curve"/>
      <point x="985" y="1335"/>
      <point x="1008" y="1325"/>
      <point x="1028" y="1325" type="curve" smooth="yes"/>
      <point x="1033" y="1325"/>
      <point x="1038" y="1343"/>
      <point x="1038" y="1386" type="curve"/>
      <point x="998" y="1624"/>
      <point x="821" y="1948"/>
      <point x="505" y="1948" type="curve" smooth="yes"/>
      <point x="287" y="1948"/>
      <point x="149" y="1783"/>
      <point x="149" y="1565" type="curve" smooth="yes"/>
      <point x="149" y="1449"/>
      <point x="198" y="1328"/>
      <point x="284" y="1264" type="curve"/>
      <point x="-20" y="1264" type="line"/>
    </contour>
    <contour>
      <point x="1049" y="1257" type="move" name="bin"/>
    </contour>
    <contour>
      <point x="1100" y="1257" type="move" name="imatra"/>
    </contour>
    <contour>
      <point x="1019" y="1347" type="move" name="top"/>
    </contour>
  </outline>
</glyph>
<glyph name="iMatra-deva.25" format="1">
  <advance width="556"/>
  <outline>
    <contour>
      <point x="-20" y="1123" type="line"/>
      <point x="287" y="1123" type="line"/>
      <point x="287" y="283" type="line" smooth="yes"/>
      <point x="287" y="157"/>
      <point x="243" y="49"/>
      <point x="169" y="49" type="curve" smooth="yes"/>
      <point x="149" y="49"/>
      <point x="122" y="36"/>
      <point x="122" y="14" type="curve" smooth="yes"/>
      <point x="122" y="-29"/>
      <point x="240" y="-120"/>
      <point x="283" y="-120" type="curve" smooth="yes"/>
      <point x="363" y="-120"/>
      <point x="441" y="-2"/>
      <point x="441" y="142" type="curve" smooth="yes"/>
      <point x="441" y="955" type="line" smooth="yes"/>
      <point x="441" y="1050"/>
      <point x="481" y="1123"/>
      <point x="521" y="1123" type="curve" smooth="yes"/>
      <point x="678" y="1123" type="line"/>
      <point x="678" y="1264" type="line"/>
      <point x="450" y="1264" type="line"/>
      <point x="354" y="1286"/>
      <point x="299" y="1404"/>
      <point x="299" y="1520" type="curve" smooth="yes"/>
      <point x="299" y="1666"/>
      <point x="449" y="1785"/>
      <point x="678" y="1785" type="curve" smooth="yes"/>
      <point x="1353" y="1785"/>
      <point x="2145" y="1553"/>
      <point x="2305" y="1355" type="curve"/>
      <point x="2313" y="1335"/>
      <point x="2336" y="1325"/>
      <point x="2356" y="1325" type="curve" smooth="yes"/>
      <point x="2361" y="1325"/>
      <point x="2366" y="1343"/>
      <point x="2366" y="1386" type="curve"/>
      <point x="2333" y="1567"/>
      <point x="1484" y="1948"/>
      <point x="655" y="1948" type="curve" smooth="yes"/>
      <point x="364" y="1948"/>
      <point x="149" y="1783"/>
      <point x="149" y="1565" type="curve" smooth="yes"/>
      <point x="149" y="1449"/>
      <point x="198" y="1328"/>
      <point x="284" y="1264" type="curve"/>
      <point x="-20" y="1264" type="line"/>
    </contour>
    <contour>
      <point x="2463" y="1340" type="move" name="bin"/>
    </contour>
    <contour>
      <point x="2461" y="1439" type="move" name="imatra"/>
    </contour>
    <contour>
      <point x="2460" y="1386" type="move" name="top"/>
    </contour>
  </outline>
</glyph>
<glyph name="ja_ra-deva" format="1">
  <advance width="1760"/>
  <outline>
    <contour>
      <point x="779" y="47"/>
      <point x="753" y="23"/>
      <point x="753" y="-7" type="curve" smooth="yes"/>
      <point x="753" y="-25"/>
      <point x="893" y="-124"/>
      <point x="925" y="-124" type="curve" smooth="yes"/>
      <point x="968" y="-124"/>
      <point x="1009" y="-90"/>
      <point x="1189" y="69" type="curve"/>
      <point x="1272" y="142"/>
      <point x="1432" y="325"/>
      <point x="1460" y="364" type="curve"/>
      <point x="1396" y="461" type="line"/>
      <point x="1168" y="263"/>
      <point x="978" y="47"/>
      <point x="815" y="47" type="curve" smooth="yes"/>
    </contour>
    <contour>
      <point x="1579" y="1264" type="line"/>
      <point x="1522" y="1332"/>
      <point x="1471" y="1398"/>
      <point x="1441" y="1398" type="curve" smooth="yes"/>
      <point x="1394" y="1398"/>
      <point x="1386" y="1361"/>
      <point x="1386" y="1288" type="curve" smooth="yes"/>
      <point x="1386" y="1280"/>
      <point x="1386" y="1272"/>
      <point x="1386" y="1264" type="curve"/>
      <point x="-23" y="1264" type="line"/>
      <point x="-23" y="1123" type="line"/>
      <point x="1386" y="1123" type="line"/>
      <point x="1386" y="798" type="line"/>
      <point x="1340" y="897"/>
      <point x="1310" y="925"/>
      <point x="1286" y="939" type="curve"/>
      <point x="1272" y="925"/>
      <point x="1246" y="918"/>
      <point x="1231" y="918" type="curve" smooth="yes"/>
      <point x="719" y="918" type="line"/>
      <point x="719" y="918"/>
      <point x="633" y="931"/>
      <point x="626" y="931" type="curve" smooth="yes"/>
      <point x="612" y="931"/>
      <point x="588" y="914"/>
      <point x="588" y="890" type="curve" smooth="yes"/>
      <point x="588" y="836"/>
      <point x="647" y="705"/>
      <point x="706" y="705" type="curve" smooth="yes"/>
      <point x="719" y="705"/>
      <point x="765" y="743"/>
      <point x="790" y="743" type="curve" smooth="yes"/>
      <point x="863" y="743"/>
      <point x="930" y="685"/>
      <point x="930" y="609" type="curve" smooth="yes"/>
      <point x="930" y="464"/>
      <point x="792" y="342"/>
      <point x="639" y="342" type="curve" smooth="yes"/>
      <point x="437" y="342"/>
      <point x="250" y="509"/>
      <point x="250" y="739" type="curve" smooth="yes"/>
      <point x="250" y="761"/>
      <point x="289" y="839"/>
      <point x="289" y="867" type="curve" smooth="yes"/>
      <point x="289" y="898"/>
      <point x="187" y="960"/>
      <point x="134" y="960" type="curve" smooth="yes"/>
      <point x="112" y="960"/>
      <point x="99" y="939"/>
      <point x="99" y="918" type="curve" smooth="yes"/>
      <point x="99" y="548"/>
      <point x="433" y="155"/>
      <point x="719" y="155" type="curve" smooth="yes"/>
      <point x="922" y="155"/>
      <point x="1092" y="305"/>
      <point x="1092" y="494" type="curve" smooth="yes"/>
      <point x="1092" y="578"/>
      <point x="1035" y="673"/>
      <point x="958" y="730" type="curve"/>
      <point x="999" y="746"/>
      <point x="1074" y="759"/>
      <point x="1168" y="759" type="curve" smooth="yes"/>
      <point x="1236" y="759"/>
      <point x="1317" y="743"/>
      <point x="1377" y="716" type="curve"/>
      <point x="1392" y="682"/>
      <point x="1396" y="492"/>
      <point x="1396" y="347" type="curve" smooth="yes"/>
      <point x="1396" y="30"/>
      <point x="1351" y="-63"/>
      <point x="1270" y="-63" type="curve" smooth="yes"/>
      <point x="1248" y="-63"/>
      <point x="1233" y="-77"/>
      <point x="1233" y="-91" type="curve" smooth="yes"/>
      <point x="1233" y="-161"/>
      <point x="1309" y="-236"/>
      <point x="1381" y="-236" type="curve" smooth="yes"/>
      <point x="1494" y="-236"/>
      <point x="1549" y="-18"/>
      <point x="1549" y="337" type="curve" smooth="yes"/>
      <point x="1549" y="437"/>
      <point x="1528" y="810"/>
      <point x="1528" y="916" type="curve" smooth="yes"/>
      <point x="1528" y="1111"/>
      <point x="1534" y="1123"/>
      <point x="1569" y="1123" type="curve" smooth="yes"/>
      <point x="1780" y="1123" type="line"/>
      <point x="1780" y="1264" type="line"/>
      <point x="1577" y="1264" type="line"/>
    </contour>
    <contour>
      <point x="840" y="1257" type="move" name="bin"/>
    </contour>
    <contour>
      <point x="1320" y="-181" type="move" name="bottom"/>
    </contour>
    <contour>
      <point x="1498" y="1258" type="move" name="top"/>
    </contour>
  </outline>
</glyph>
<glyph name="jha-deva.np" format="1">
  <advance width="1777"/>
  <outline>
    <contour>
      <point x="139" y="1388"/>
      <point x="50" y="1286"/>
      <point x="50" y="1164" type="curve" smooth="yes"/>
      <point x="50" y="1013"/>
      <point x="186" y="875"/>
      <point x="338" y="841" type="curve"/>
      <point x="338" y="563" type="line"/>
      <point x="263" y="518"/>
      <point x="224" y="491"/>
      <point x="224" y="439" type="curve" smooth="yes"/>
      <point x="224" y="368"/>
      <point x="318" y="228"/>
      <point x="401" y="228" type="curve" smooth="yes"/>
      <point x="472" y="228"/>
      <point x="486" y="299"/>
      <point x="486" y="416" type="curve"/>
      <point x="523" y="436"/>
      <point x="581" y="431"/>
      <point x="731" y="431" type="curve" smooth="yes"/>
      <point x="923" y="431"/>
      <point x="1025" y="381"/>
      <point x="1025" y="322" type="curve" smooth="yes"/>
      <point x="1025" y="187"/>
      <point x="954" y="63"/>
      <point x="887" y="63" type="curve"/>
      <point x="856" y="36" type="line"/>
      <point x="856" y="-29"/>
      <point x="959" y="-120"/>
      <point x="1031" y="-120" type="curve" smooth="yes"/>
      <point x="1113" y="-120"/>
      <point x="1172" y="88"/>
      <point x="1172" y="311" type="curve" smooth="yes"/>
      <point x="1172" y="403"/>
      <point x="1152" y="724"/>
      <point x="1152" y="818" type="curve" smooth="yes"/>
      <point x="1152" y="967"/>
      <point x="1144" y="1078"/>
      <point x="1182" y="1123" type="curve"/>
      <point x="1797" y="1123" type="line"/>
      <point x="1797" y="1264" type="line"/>
      <point x="1223" y="1264" type="line"/>
      <point x="1180" y="1337"/>
      <point x="1128" y="1400"/>
      <point x="1093" y="1400" type="curve" smooth="yes"/>
      <point x="1050" y="1400"/>
      <point x="1015" y="1341"/>
      <point x="1015" y="1264" type="curve"/>
      <point x="842" y="1264" type="line" smooth="yes"/>
      <point x="806" y="1264"/>
      <point x="707" y="1302"/>
      <point x="679" y="1302" type="curve" smooth="yes"/>
      <point x="622" y="1302"/>
      <point x="589" y="1268"/>
      <point x="589" y="1233" type="curve" smooth="yes"/>
      <point x="589" y="1162"/>
      <point x="690" y="1070"/>
      <point x="732" y="1070" type="curve" smooth="yes"/>
      <point x="783" y="1070"/>
      <point x="830" y="1123"/>
      <point x="925" y="1123" type="curve" smooth="yes"/>
      <point x="994" y="1123" type="line"/>
      <point x="983" y="1070"/>
      <point x="999" y="987"/>
      <point x="999" y="860" type="curve" smooth="yes"/>
      <point x="999" y="771"/>
      <point x="1014" y="666"/>
      <point x="1035" y="567" type="curve"/>
      <point x="959" y="596"/>
      <point x="880" y="610"/>
      <point x="690" y="610" type="curve" smooth="yes"/>
      <point x="581" y="610"/>
      <point x="506" y="602"/>
      <point x="486" y="596" type="curve"/>
      <point x="486" y="818" type="line"/>
      <point x="502" y="810"/>
      <point x="523" y="805"/>
      <point x="533" y="805" type="curve" smooth="yes"/>
      <point x="554" y="805"/>
      <point x="566" y="833"/>
      <point x="566" y="874" type="curve" smooth="yes"/>
      <point x="566" y="879"/>
      <point x="562" y="885"/>
      <point x="551" y="895" type="curve" smooth="yes"/>
      <point x="508" y="932" type="line" smooth="yes"/>
      <point x="500" y="940"/>
      <point x="486" y="958"/>
      <point x="486" y="973" type="curve" smooth="yes"/>
      <point x="486" y="1109" type="line" smooth="yes"/>
      <point x="486" y="1264"/>
      <point x="385" y="1388"/>
      <point x="257" y="1388" type="curve" smooth="yes"/>
    </contour>
    <contour>
      <point x="335" y="1050"/>
      <point x="335" y="1009"/>
      <point x="329" y="987" type="curve"/>
      <point x="248" y="987"/>
      <point x="139" y="1047"/>
      <point x="139" y="1123" type="curve" smooth="yes"/>
      <point x="139" y="1178"/>
      <point x="186" y="1206"/>
      <point x="213" y="1206" type="curve" smooth="yes"/>
      <point x="283" y="1206"/>
      <point x="335" y="1157"/>
      <point x="335" y="1092" type="curve" smooth="yes"/>
    </contour>
    <contour>
      <point x="1140" y="547" type="line"/>
      <point x="1220" y="595"/>
      <point x="1392" y="639"/>
      <point x="1500" y="639" type="curve" smooth="yes"/>
      <point x="1571" y="639"/>
      <point x="1630" y="582"/>
      <point x="1630" y="497" type="curve" smooth="yes"/>
      <point x="1630" y="359"/>
      <point x="1534" y="232"/>
      <point x="1404" y="232" type="curve" smooth="yes"/>
      <point x="1379" y="232"/>
      <point x="1355" y="218"/>
      <point x="1355" y="195" type="curve" smooth="yes"/>
      <point x="1355" y="183"/>
      <point x="1364" y="160"/>
      <point x="1377" y="149" type="curve"/>
      <point x="1448" y="76" type="line"/>
      <point x="1605" y="76"/>
      <point x="1746" y="203"/>
      <point x="1746" y="364" type="curve" smooth="yes"/>
      <point x="1746" y="540"/>
      <point x="1537" y="805"/>
      <point x="1385" y="805" type="curve" smooth="yes"/>
      <point x="1313" y="805"/>
      <point x="1183" y="778"/>
      <point x="1145" y="757" type="curve"/>
    </contour>
    <contour>
      <point x="160" y="58" type="move" name="nukta"/>
    </contour>
    <contour>
      <point x="1142" y="1257" type="move" name="top"/>
    </contour>
    <contour>
      <point x="696" y="1257" type="move" name="bin"/>
    </contour>
    <contour>
      <point x="970" y="-49" type="move" name="bottom"/>
    </contour>
  </outline>
</glyph>
<glyph name="k-deva" format="1">
  <advance width="1391"/>
  <outline>
    <contour>
      <point x="-23" y="1123" type="line"/>
      <point x="987" y="1123" type="line"/>
      <point x="987" y="732" type="line"/>
      <point x="978" y="732" type="line"/>
      <point x="909" y="846"/>
      <point x="753" y="916"/>
      <point x="585" y="916" type="curve" smooth="yes"/>
      <point x="305" y="916"/>
      <point x="119" y="800"/>
      <point x="119" y="623" type="curve" smooth="yes"/>
      <point x="119" y="468"/>
      <point x="400" y="232"/>
      <point x="600" y="232" type="curve" smooth="yes"/>
      <point x="739" y="232"/>
      <point x="864" y="283"/>
      <point x="978" y="364" type="curve"/>
      <point x="987" y="364" type="line"/>
      <point x="987" y="232" type="line" smooth="yes"/>
      <point x="987" y="144"/>
      <point x="932" y="63"/>
      <point x="844" y="63" type="curve" smooth="yes"/>
      <point x="825" y="63"/>
      <point x="796" y="50"/>
      <point x="796" y="35" type="curve" smooth="yes"/>
      <point x="796" y="-25"/>
      <point x="909" y="-120"/>
      <point x="958" y="-120" type="curve" smooth="yes"/>
      <point x="1070" y="-120"/>
      <point x="1152" y="-8"/>
      <point x="1152" y="142" type="curve" smooth="yes"/>
      <point x="1152" y="567" type="line"/>
      <point x="1231" y="615"/>
      <point x="1328" y="639"/>
      <point x="1429" y="639" type="curve" smooth="yes"/>
      <point x="1474" y="639"/>
      <point x="1512" y="598"/>
      <point x="1526" y="550" type="curve"/>
      <point x="1599" y="596" type="line"/>
      <point x="1563" y="724"/>
      <point x="1453" y="805"/>
      <point x="1328" y="805" type="curve" smooth="yes"/>
      <point x="1254" y="805"/>
      <point x="1191" y="798"/>
      <point x="1154" y="777" type="curve"/>
      <point x="1152" y="1013" type="line" smooth="yes"/>
      <point x="1152" y="1093"/>
      <point x="1173" y="1123"/>
      <point x="1188" y="1123" type="curve" smooth="yes"/>
      <point x="1402" y="1123" type="line"/>
      <point x="1402" y="1264" type="line"/>
      <point x="1186" y="1264" type="line"/>
      <point x="1138" y="1347"/>
      <point x="1070" y="1400"/>
      <point x="1021" y="1400" type="curve" smooth="yes"/>
      <point x="999" y="1400"/>
      <point x="987" y="1355"/>
      <point x="987" y="1302" type="curve" smooth="yes"/>
      <point x="987" y="1264" type="line"/>
      <point x="-23" y="1264" type="line"/>
    </contour>
    <contour>
      <point x="499" y="387" type="curve" smooth="yes"/>
      <point x="349" y="387"/>
      <point x="222" y="468"/>
      <point x="222" y="547" type="curve" smooth="yes"/>
      <point x="222" y="639"/>
      <point x="443" y="732"/>
      <point x="639" y="732" type="curve" smooth="yes"/>
      <point x="753" y="732"/>
      <point x="987" y="652"/>
      <point x="987" y="596" type="curve" smooth="yes"/>
      <point x="987" y="517"/>
      <point x="671" y="387"/>
    </contour>
    <contour>
      <point x="269" y="28" type="move" name="nukta"/>
    </contour>
    <contour>
      <point x="1084" y="1257" type="move" name="top"/>
    </contour>
    <contour>
      <point x="471" y="1257" type="move" name="bin"/>
    </contour>
    <contour>
      <point x="923" y="-49" type="move" name="bottom"/>
    </contour>
  </outline>
</glyph>
<glyph name="k_ca-deva" format="1">
  <advance width="2901"/>
  <outline>
    <contour>
      <point x="987" y="517"/>
      <point x="671" y="387"/>
      <point x="499" y="387" type="curve" smooth="yes"/>
      <point x="349" y="387"/>
      <point x="222" y="468"/>
      <point x="222" y="547" type="curve" smooth="yes"/>
      <point x="222" y="639"/>
      <point x="443" y="732"/>
      <point x="639" y="732" type="curve" smooth="yes"/>
      <point x="753" y="732"/>
      <point x="987" y="652"/>
      <point x="987" y="596" type="curve" smooth="yes"/>
    </contour>
    <contour>
      <point x="1577" y="607"/>
      <point x="1667" y="607" type="curve" smooth="yes"/>
      <point x="1674" y="607" type="line"/>
      <point x="1674" y="414"/>
      <point x="1898" y="155"/>
      <point x="2080" y="155" type="curve" smooth="yes"/>
      <point x="2226" y="155"/>
      <point x="2381" y="208"/>
      <point x="2544" y="322" type="curve"/>
      <point x="2552" y="322" type="line"/>
      <point x="2552" y="189"/>
      <point x="2496" y="76"/>
      <point x="2412" y="76" type="curve" smooth="yes"/>
      <point x="2386" y="76"/>
      <point x="2366" y="60"/>
      <point x="2366" y="35" type="curve" smooth="yes"/>
      <point x="2366" y="-23"/>
      <point x="2486" y="-120"/>
      <point x="2536" y="-120" type="curve" smooth="yes"/>
      <point x="2632" y="-120"/>
      <point x="2711" y="88"/>
      <point x="2711" y="311" type="curve" smooth="yes"/>
      <point x="2711" y="899" type="line" smooth="yes"/>
      <point x="2711" y="1013"/>
      <point x="2736" y="1107"/>
      <point x="2773" y="1123" type="curve"/>
      <point x="2921" y="1123" type="line"/>
      <point x="2921" y="1264" type="line"/>
      <point x="2752" y="1264" type="line"/>
      <point x="2709" y="1343"/>
      <point x="2632" y="1400"/>
      <point x="2569" y="1400" type="curve" smooth="yes"/>
      <point x="2551" y="1400"/>
      <point x="2531" y="1341"/>
      <point x="2531" y="1264" type="curve"/>
      <point x="1186" y="1264" type="line"/>
      <point x="1138" y="1347"/>
      <point x="1070" y="1400"/>
      <point x="1021" y="1400" type="curve" smooth="yes"/>
      <point x="999" y="1400"/>
      <point x="987" y="1355"/>
      <point x="987" y="1302" type="curve" smooth="yes"/>
      <point x="987" y="1264" type="line"/>
      <point x="-23" y="1264" type="line"/>
      <point x="-23" y="1123" type="line"/>
      <point x="987" y="1123" type="line"/>
      <point x="987" y="732" type="line"/>
      <point x="978" y="732" type="line"/>
      <point x="909" y="846"/>
      <point x="753" y="916"/>
      <point x="585" y="916" type="curve" smooth="yes"/>
      <point x="305" y="916"/>
      <point x="119" y="800"/>
      <point x="119" y="623" type="curve" smooth="yes"/>
      <point x="119" y="468"/>
      <point x="400" y="232"/>
      <point x="600" y="232" type="curve" smooth="yes"/>
      <point x="739" y="232"/>
      <point x="864" y="283"/>
      <point x="978" y="364" type="curve"/>
      <point x="987" y="364" type="line"/>
      <point x="987" y="232" type="line" smooth="yes"/>
      <point x="987" y="144"/>
      <point x="932" y="63"/>
      <point x="844" y="63" type="curve" smooth="yes"/>
      <point x="825" y="63"/>
      <point x="796" y="50"/>
      <point x="796" y="35" type="curve" smooth="yes"/>
      <point x="796" y="-25"/>
      <point x="909" y="-120"/>
      <point x="958" y="-120" type="curve" smooth="yes"/>
      <point x="1070" y="-120"/>
      <point x="1152" y="-8"/>
      <point x="1152" y="142" type="curve" smooth="yes"/>
      <point x="1152" y="589" type="line"/>
      <point x="1351" y="659"/>
    </contour>
    <contour>
      <point x="1257" y="783"/>
      <point x="1187" y="766"/>
      <point x="1154" y="747" type="curve"/>
      <point x="1152" y="1013" type="line" smooth="yes"/>
      <point x="1151" y="1093"/>
      <point x="1173" y="1123"/>
      <point x="1188" y="1123" type="curve" smooth="yes"/>
      <point x="2531" y="1123" type="line"/>
      <point x="2533" y="922"/>
      <point x="2539" y="719"/>
      <point x="2541" y="517" type="curve"/>
      <point x="2533" y="517" type="line"/>
      <point x="2529" y="544"/>
      <point x="2502" y="557"/>
      <point x="2478" y="557" type="curve" smooth="yes"/>
      <point x="2462" y="557"/>
      <point x="2350" y="411"/>
      <point x="2245" y="368" type="curve" smooth="yes"/>
      <point x="2173" y="337"/>
      <point x="2095" y="322"/>
      <point x="2016" y="322" type="curve" smooth="yes"/>
      <point x="1871" y="322"/>
      <point x="1789" y="364"/>
      <point x="1789" y="443" type="curve" smooth="yes"/>
      <point x="1789" y="550"/>
      <point x="1991" y="678"/>
      <point x="2131" y="678" type="curve" smooth="yes"/>
      <point x="2162" y="678"/>
      <point x="2259" y="652"/>
      <point x="2292" y="652" type="curve" smooth="yes"/>
      <point x="2308" y="652"/>
      <point x="2326" y="661"/>
      <point x="2326" y="678" type="curve" smooth="yes"/>
      <point x="2326" y="743"/>
      <point x="2232" y="881"/>
      <point x="2173" y="881" type="curve" smooth="yes"/>
      <point x="2148" y="881"/>
      <point x="2105" y="875"/>
      <point x="2083" y="860" type="curve"/>
      <point x="1919" y="793"/>
      <point x="1784" y="736"/>
      <point x="1670" y="738" type="curve" smooth="yes"/>
      <point x="1541" y="740"/>
      <point x="1439" y="784"/>
      <point x="1351" y="784" type="curve"/>
    </contour>
    <contour>
      <point x="249" y="0" type="move" name="nukta"/>
    </contour>
    <contour>
      <point x="2642" y="1266" type="move" name="top"/>
    </contour>
    <contour>
      <point x="1749" y="1267" type="move" name="bin"/>
    </contour>
    <contour>
      <point x="2496" y="-57" type="move" name="bottom"/>
    </contour>
  </outline>
</glyph>
<glyph name="k_t_ta-deva" format="1">
  <advance width="3405"/>
  <outline>
    <contour>
      <point x="2323" y="1123" type="line"/>
      <point x="2323" y="1264" type="line"/>
      <point x="1190" y="1264" type="line"/>
      <point x="1190" y="1123" type="line"/>
    </contour>
    <contour>
      <point x="1361" y="215"/>
      <point x="1684" y="-222"/>
      <point x="1847" y="-222" type="curve" smooth="yes"/>
      <point x="1869" y="-222"/>
      <point x="1877" y="-205"/>
      <point x="1877" y="-173" type="curve" smooth="yes"/>
      <point x="1877" y="-134"/>
      <point x="1857" y="-95"/>
      <point x="1817" y="-68" type="curve"/>
      <point x="1655" y="-26"/>
      <point x="1529" y="136"/>
      <point x="1529" y="337" type="curve" smooth="yes"/>
      <point x="1529" y="525"/>
      <point x="1672" y="639"/>
      <point x="1882" y="639" type="curve" smooth="yes"/>
      <point x="2027" y="639"/>
      <point x="2195" y="602"/>
      <point x="2298" y="535" type="curve"/>
      <point x="2298" y="641" type="line"/>
      <point x="2180" y="767"/>
      <point x="1982" y="831"/>
      <point x="1838" y="831" type="curve" smooth="yes"/>
      <point x="1551" y="831"/>
      <point x="1361" y="684"/>
      <point x="1361" y="443" type="curve" smooth="yes"/>
    </contour>
    <component base="k-deva"/>
    <component base="ta-deva" xOffset="2035"/>
  </outline>
</glyph>
<glyph name="k_t_ya-deva" format="1">
  <advance width="3325"/>
  <outline>
    <contour>
      <point x="1382" y="1264" type="line"/>
      <point x="1382" y="1123" type="line"/>
      <point x="1957" y="1123" type="line"/>
      <point x="1957" y="1264" type="line"/>
    </contour>
    <contour>
      <point x="2090" y="720" type="line"/>
      <point x="2057" y="760"/>
      <point x="1946" y="841"/>
      <point x="1819" y="841" type="curve" smooth="yes"/>
      <point x="1534" y="841"/>
      <point x="1385" y="694"/>
      <point x="1385" y="453" type="curve" smooth="yes"/>
      <point x="1385" y="225"/>
      <point x="1627" y="-109"/>
      <point x="1789" y="-109" type="curve" smooth="yes"/>
      <point x="1814" y="-109"/>
      <point x="1824" y="-92"/>
      <point x="1824" y="-60" type="curve" smooth="yes"/>
      <point x="1824" y="-21"/>
      <point x="1801" y="18"/>
      <point x="1759" y="45" type="curve"/>
      <point x="1597" y="87"/>
      <point x="1550" y="226"/>
      <point x="1550" y="347" type="curve" smooth="yes"/>
      <point x="1550" y="535"/>
      <point x="1654" y="649"/>
      <point x="1867" y="649" type="curve" smooth="yes"/>
      <point x="1936" y="649"/>
      <point x="2014" y="650"/>
      <point x="2115" y="582" type="curve"/>
    </contour>
    <component base="k-deva"/>
    <component base="ya-deva" xOffset="1931"/>
  </outline>
</glyph>
<glyph name="kh_ma-deva" format="1">
  <advance width="2675"/>
  <outline>
    <component base="ma-deva" xOffset="1378"/>
    <component base="kh-deva"/>
    <contour>
      <point x="218" y="-114" type="move" name="nukta"/>
    </contour>
    <contour>
      <point x="2431" y="1261" type="move" name="top"/>
    </contour>
    <contour>
      <point x="1373" y="1257" type="move" name="bin"/>
    </contour>
    <contour>
      <point x="2283" y="-46" type="move" name="bottom"/>
    </contour>
  </outline>
</glyph>
<glyph name="kh_sha-deva" format="1">
  <advance width="3036"/>
  <outline>
    <contour>
      <point x="-31" y="1123" type="line"/>
      <point x="472" y="1123" type="line"/>
      <point x="472" y="942"/>
      <point x="476" y="829"/>
      <point x="489" y="777" type="curve"/>
      <point x="481" y="777" type="line"/>
      <point x="413" y="805"/>
      <point x="347" y="818"/>
      <point x="317" y="818" type="curve" smooth="yes"/>
      <point x="212" y="818"/>
      <point x="114" y="726"/>
      <point x="114" y="610" type="curve" smooth="yes"/>
      <point x="114" y="483"/>
      <point x="208" y="332"/>
      <point x="377" y="149" type="curve" smooth="yes"/>
      <point x="555" y="-43"/>
      <point x="715" y="-130"/>
      <point x="829" y="-130" type="curve" smooth="yes"/>
      <point x="1023" y="-130"/>
      <point x="1331" y="-28"/>
      <point x="1660" y="257" type="curve"/>
      <point x="1660" y="477" type="line"/>
      <point x="1569" y="684"/>
      <point x="1390" y="820"/>
      <point x="1231" y="820" type="curve" smooth="yes"/>
      <point x="1013" y="820"/>
      <point x="836" y="682"/>
      <point x="836" y="517" type="curve" smooth="yes"/>
      <point x="836" y="366"/>
      <point x="988" y="198"/>
      <point x="1173" y="115" type="curve"/>
      <point x="1050" y="34"/>
      <point x="899" y="14"/>
      <point x="745" y="14" type="curve" smooth="yes"/>
      <point x="623" y="14"/>
      <point x="489" y="109"/>
      <point x="387" y="268" type="curve"/>
      <point x="436" y="268" type="line" smooth="yes"/>
      <point x="562" y="268"/>
      <point x="649" y="418"/>
      <point x="649" y="652" type="curve" smooth="yes"/>
      <point x="649" y="706"/>
      <point x="641" y="866"/>
      <point x="641" y="916" type="curve" smooth="yes"/>
      <point x="641" y="1020"/>
      <point x="647" y="1084"/>
      <point x="661" y="1123" type="curve"/>
      <point x="1705" y="1123" type="line"/>
      <point x="1705" y="1264" type="line"/>
      <point x="649" y="1264" type="line"/>
      <point x="619" y="1302" type="line"/>
      <point x="557" y="1370"/>
      <point x="532" y="1400"/>
      <point x="521" y="1400" type="curve" smooth="yes"/>
      <point x="492" y="1400"/>
      <point x="472" y="1372"/>
      <point x="472" y="1330" type="curve" smooth="yes"/>
      <point x="472" y="1264" type="line"/>
      <point x="-31" y="1264" type="line"/>
    </contour>
    <contour>
      <point x="1146" y="282" type="curve" smooth="yes"/>
      <point x="1050" y="282"/>
      <point x="958" y="342"/>
      <point x="958" y="433" type="curve" smooth="yes"/>
      <point x="958" y="552"/>
      <point x="1122" y="654"/>
      <point x="1325" y="654" type="curve" smooth="yes"/>
      <point x="1457" y="654"/>
      <point x="1559" y="558"/>
      <point x="1581" y="433" type="curve"/>
      <point x="1578" y="433" type="line"/>
      <point x="1487" y="331"/>
      <point x="1327" y="282"/>
    </contour>
    <contour>
      <point x="292" y="406" type="curve" smooth="yes"/>
      <point x="253" y="406"/>
      <point x="218" y="448"/>
      <point x="218" y="517" type="curve" smooth="yes"/>
      <point x="218" y="612"/>
      <point x="287" y="694"/>
      <point x="368" y="694" type="curve" smooth="yes"/>
      <point x="406" y="694"/>
      <point x="450" y="661"/>
      <point x="486" y="623" type="curve"/>
      <point x="489" y="623" type="line"/>
      <point x="473" y="497"/>
      <point x="384" y="406"/>
    </contour>
    <component base="sha-deva" xOffset="1371"/>
    <contour>
      <point x="192" y="-45" type="move" name="nukta"/>
    </contour>
    <contour>
      <point x="2727" y="1257" type="move" name="top"/>
    </contour>
    <contour>
      <point x="1507" y="1257" type="move" name="bin"/>
    </contour>
    <contour>
      <point x="2612" y="0" type="move" name="bottom"/>
    </contour>
  </outline>
</glyph>
